<svg xmlns="http://www.w3.org/2000/svg" width="649.656" height="231.733" viewBox="0 0 649.656 231.733">
  <g id="Group_30" data-name="Group 30" transform="translate(-744.01 241.061)">
    <path id="Path_1386" data-name="Path 1386" d="M807.993-158.715h4.866a138.344,138.344,0,0,0,23.068-1.826q10.8-1.822,16.681-4.663a44.361,44.361,0,0,0,.81-8.518q0-22.915-22.1-33.462a114.912,114.912,0,0,1,28.493-10.242V-233.75A124.29,124.29,0,0,0,815.9-216.006v19.468q16.426,5.681,21.8,17.44-9.939,2.335-24.741,2.332h-3.041a115.543,115.543,0,0,1-27.276-3.447L779.5-164.5a110.456,110.456,0,0,0,15.514,4.259q-4.766,5.782-18.352,5.781-16.835,0-16.834-12.27,0-5.779,3.651-15.816l-12.371-4.867q-7.1,14.093-7.1,25.55,0,11.763,7.5,18.15t21.8,6.389q14.7,0,23.676-5.881T807.993-158.715Z" transform="translate(0 3.641)" fill="#fff"/>
    <path id="Path_1387" data-name="Path 1387" d="M825.739-241.061q-17.745,5.072-29,10.952v8.72a200.06,200.06,0,0,1,29-10.748Z" transform="translate(26.26 0)" fill="#fff"/>
    <path id="Path_1388" data-name="Path 1388" d="M858.322-170.458q4.867,4.562,13.789,4.563h2.434a54.178,54.178,0,0,0,12.575-1.522,42.433,42.433,0,0,0,10.139-3.549q2.433-7.3,2.434-19.164a95.013,95.013,0,0,0-2.028-20.179l-14.7,3.144a114.171,114.171,0,0,1,2.941,22.205,50.806,50.806,0,0,1-11.052,1.014h-1.622q-4.157,0-5.881-2.18t-4.563-9.177q-2.029-5.069-3.245-7.808a64.775,64.775,0,0,0-4.257-7.555,52.991,52.991,0,0,0-6.8-8.669l-11.457,11.154q9.022,10.242,12.573,19.975.506,1.218,1.318,3.651a61.1,61.1,0,0,1-14.4,1.32q-4.258,0-13.181-.407v17.949a99.715,99.715,0,0,0,13.383.709A42.231,42.231,0,0,0,858.322-170.458Z" transform="translate(39.509 10.821)" fill="#fff"/>
    <path id="Path_1389" data-name="Path 1389" d="M875.907-218.093l-10.951-9.43-8.923,10.546,10.952,9.025Z" transform="translate(55.791 6.742)" fill="#fff"/>
    <path id="Path_1390" data-name="Path 1390" d="M899.057-216.129l-10.951-9.431-8.923,10.546,10.951,9.025Z" transform="translate(67.321 7.72)" fill="#fff"/>
    <path id="Path_1391" data-name="Path 1391" d="M870.248-151.349a49.668,49.668,0,0,0,10.342,1.216,27.316,27.316,0,0,0,12.826-2.839,21.4,21.4,0,0,0,8.518-7.908,37.641,37.641,0,0,0,4.512-11.256,60.81,60.81,0,0,0,1.42-13.587,93.731,93.731,0,0,0-3.347-24.337L888.5-205.5q4.46,15.417,4.461,21.5a21.61,21.61,0,0,1-3.8,12.979q-3.8,5.274-12.625,5.275a30.7,30.7,0,0,1-5.069-.407Z" transform="translate(62.871 15.44)" fill="#fff"/>
    <path id="Path_1392" data-name="Path 1392" d="M951.108-207.872l-10.951-9.43-8.923,10.545,10.951,9.025Z" transform="translate(93.244 11.833)" fill="#fff"/>
    <path id="Path_1393" data-name="Path 1393" d="M945.174-150.841q16.527,0,25.3-8.212t8.771-23.017q0-3.348-.3-6.489-.609-6.184-4.463-20.078l-15.716,4.665q5.069,16.224,5.071,24.538a8.9,8.9,0,0,1-4.361,7.757q-4.361,2.89-11.458,2.891-7.4,0-10.85-3.144t-3.447-9.328q0-5.982,3.651-14.805L925-200.932q-7.1,12.981-7.1,25.047,0,11.862,7.048,18.454T945.174-150.841Z" transform="translate(86.602 16.148)" fill="#fff"/>
    <path id="Path_1394" data-name="Path 1394" d="M965.956-159.22h15.819v-73.515l-15.819,1.318Z" transform="translate(110.537 4.146)" fill="#fff"/>
    <path id="Path_1395" data-name="Path 1395" d="M1022.49-169.715a64.38,64.38,0,0,0,1.014-10.85q0-22.711-17.948-38.429L994.1-206.827q12.067,10.952,15.818,23.525-6.083.609-12.675.608t-15.31-.608v17.442a102.808,102.808,0,0,0,13.485.81Q1014.071-165.05,1022.49-169.715Z" transform="translate(118.493 10.99)" fill="#fff"/>
    <path id="Path_1396" data-name="Path 1396" d="M1005.621-139.551a49.668,49.668,0,0,0,10.343,1.216q11.255,0,17.746-6.489t8.518-17.238q4.357,3.348,12.269,3.347h28.289a138.347,138.347,0,0,0,23.068-1.826q10.8-1.822,16.681-4.663a44.488,44.488,0,0,0,.81-8.518q0-22.915-22.105-33.462a114.921,114.921,0,0,1,28.494-10.242V-233.75a124.3,124.3,0,0,0-43.907,17.744v19.468q16.428,5.681,21.8,17.44-9.939,2.335-24.743,2.332h-27.173q-7.2,0-9.836-3.751a15.042,15.042,0,0,1-1.318-2.332c-.4-.876-.745-1.673-1.013-2.382s-.593-1.708-.965-2.992-.658-2.265-.861-2.941-.524-1.876-.963-3.6-.726-2.888-.861-3.5l-14.7,4.563q4.157,14.3,4.157,21.5a20.369,20.369,0,0,1-4.157,12.93q-4.159,5.323-13.285,5.324a30.7,30.7,0,0,1-5.068-.407Z" transform="translate(130.292 3.641)" fill="#fff"/>
    <path id="Path_1397" data-name="Path 1397" d="M1092.9-241.061q-17.747,5.072-29,10.952v8.72a200.01,200.01,0,0,1,29-10.748Z" transform="translate(159.316 0)" fill="#fff"/>
    <path id="Path_1398" data-name="Path 1398" d="M1086.972-165.747a30.7,30.7,0,0,1-5.069-.407l-1.217,14.805a49.669,49.669,0,0,0,10.342,1.216,27.321,27.321,0,0,0,12.826-2.839,21.406,21.406,0,0,0,8.518-7.908,37.685,37.685,0,0,0,4.513-11.256,60.906,60.906,0,0,0,1.419-13.587,93.663,93.663,0,0,0-3.347-24.337l-16.021,4.563q4.46,15.417,4.463,21.5a21.6,21.6,0,0,1-3.8,12.979Q1095.793-165.747,1086.972-165.747Z" transform="translate(167.677 15.44)" fill="#fff"/>
    <path id="Path_1399" data-name="Path 1399" d="M1164.822-216.548v20.279a46.776,46.776,0,0,1,14.449,7.555,28.321,28.321,0,0,1,8.569,10.7q-9.332,1.928-24.235,1.926H1137.24q-8.516,0-8.516-9.531v-45.934l-15.819,1.318v48.063q0,11.662,4.716,17.9t15.87,6.236h30.52q27.072,0,38.735-6.489a47.3,47.3,0,0,0,.81-9.026q0-23.32-23.119-33.866a107.813,107.813,0,0,1,29.508-10.85V-235.1A124.238,124.238,0,0,0,1164.822-216.548Z" transform="translate(183.722 2.967)" fill="#fff"/>
    <path id="Path_1400" data-name="Path 1400" d="M755.337-111.753q-4.667,0-7.2,2.433a8.971,8.971,0,0,0-2.535,6.794,9.142,9.142,0,0,0,2.535,6.846q2.532,2.481,7.2,2.484a9.723,9.723,0,0,0,7.1-2.484,9.154,9.154,0,0,0,2.535-6.846,9.019,9.019,0,0,0-2.535-6.743A9.717,9.717,0,0,0,755.337-111.753Z" transform="translate(0.793 64.4)" fill="#fff"/>
    <path id="Path_1401" data-name="Path 1401" d="M773-111.753q-4.665,0-7.2,2.433a8.977,8.977,0,0,0-2.535,6.794,9.148,9.148,0,0,0,2.535,6.846Q768.335-93.2,773-93.2a9.719,9.719,0,0,0,7.1-2.484,9.148,9.148,0,0,0,2.535-6.846,9.013,9.013,0,0,0-2.535-6.743A9.712,9.712,0,0,0,773-111.753Z" transform="translate(9.591 64.4)" fill="#fff"/>
    <path id="Path_1402" data-name="Path 1402" d="M790.668-111.753q-4.667,0-7.2,2.433a8.971,8.971,0,0,0-2.535,6.794,9.143,9.143,0,0,0,2.535,6.846Q786-93.2,790.668-93.2a9.721,9.721,0,0,0,7.1-2.484,9.154,9.154,0,0,0,2.535-6.846,9.019,9.019,0,0,0-2.535-6.743A9.715,9.715,0,0,0,790.668-111.753Z" transform="translate(18.389 64.4)" fill="#fff"/>
    <path id="Path_1403" data-name="Path 1403" d="M1033.205-121.313q2.737,13.792,2.941,18.05a26.7,26.7,0,0,1-7.2,1.115q-6.694,0-6.692-5.778v-11.458l-14.095.912v8.416q0,7.4-8.416,7.4a15.613,15.613,0,0,1-6.9-1.522,37.442,37.442,0,0,0,.811-6.59l.406-7.707-13.993,1.014-.506,6.693q-.407,4.966-2.281,6.794a7.632,7.632,0,0,1-5.526,1.823H847.444q-.607-14.192-7.2-22.256t-16.224-8.061q-9.127,0-15.313,7.707T802.524-106q0,19.979,19.164,19.976a78.116,78.116,0,0,0,10.04-.508q-2.031,2.843-7.1,5.071a31.556,31.556,0,0,1-12.675,2.231,49.537,49.537,0,0,1-7.4-.508l-1.216,14.805a42.58,42.58,0,0,0,11.255,1.522q24.131,0,30.725-20.686H970.237a22.018,22.018,0,0,0,13.181-3.853,28.329,28.329,0,0,0,15.818,4.361q10.649,0,15.514-4.765Q1019.617-84,1028.642-84a38.932,38.932,0,0,0,18.86-5.171q2.436-7.3,2.434-19.164a75.449,75.449,0,0,0-2.028-16.122ZM827.672-102.149q-11.662,0-11.661-6.59a8.278,8.278,0,0,1,1.825-5.324,6.357,6.357,0,0,1,5.273-2.28,7.144,7.144,0,0,1,5.222,2.484,16.351,16.351,0,0,1,3.549,5.577,24.284,24.284,0,0,1,1.471,6.133Z" transform="translate(29.142 54.084)" fill="#fff"/>
    <path id="Path_1404" data-name="Path 1404" d="M953.852-139.718l-8.72-7.5-7.1,8.416,8.72,7.2Z" transform="translate(96.631 46.735)" fill="#fff"/>
    <path id="Path_1405" data-name="Path 1405" d="M942.929-121.253l6.692-7.5,8.214,6.794,7.909-9.025L956.11-139.3l-6.692,7.808-8.213-7.1-7.909,9.329Z" transform="translate(94.271 50.679)" fill="#fff"/>
    <path id="Path_1406" data-name="Path 1406" d="M1012.333-131.8l-8.416-7.2-8.011,9.532,9.835,8.112,6.389-7.2,8.416,6.9,8.112-9.126-9.938-8.519Z" transform="translate(125.453 50.679)" fill="#fff"/>
    <path id="Path_1407" data-name="Path 1407" d="M1039.418-126.346a110.58,110.58,0,0,1,2.837,20.89q-9.024,2.638-23.624,2.635-9.532,0-14.652-1.317t-6.846-3.8q-1.724-2.483-1.723-7.048a59.839,59.839,0,0,1,1.318-10.747l-13.485-2.637q-3.856,11.559-3.853,19.773a27.125,27.125,0,0,0,1.519,9.531,19.565,19.565,0,0,0,5.275,7.505q3.75,3.447,11.052,5.221a77.787,77.787,0,0,0,18.048,1.775q27.884,0,39.953-7.808,2.836-6.692,2.837-16.934a90.666,90.666,0,0,0-2.333-20.177Z" transform="translate(117.228 55.568)" fill="#fff"/>
    <path id="Path_1408" data-name="Path 1408" d="M1059.265-135.512l-11.458,12.167q12.067,10.952,15.818,23.525-6.082.609-12.675.61t-15.31-.61v17.442a102.807,102.807,0,0,0,13.485.81q18.655,0,27.074-4.663a64.406,64.406,0,0,0,1.014-10.85Q1077.213-119.795,1059.265-135.512Z" transform="translate(145.242 52.567)" fill="#fff"/>
    <path id="Path_1409" data-name="Path 1409" d="M1199.727-127.75a27.526,27.526,0,0,0-12.726-3.4,15.113,15.113,0,0,0-10.6,4.055q-4.409,4.058-7.655,12.777l11.56,4.055q2.636-4.966,6.286-4.967a8.275,8.275,0,0,1,1.522.153c.539.1,1.065.22,1.571.355a16.334,16.334,0,0,1,1.774.607q1.013.409,1.724.761c.472.238,1.116.592,1.926,1.065s1.453.845,1.927,1.116,1.2.71,2.181,1.318,1.706,1.082,2.18,1.419,1.267.879,2.384,1.622,1.941,1.285,2.484,1.622a193.943,193.943,0,0,1-35.49,3.041H1114.4q-.609-14.192-7.2-22.256t-16.224-8.061q-9.125,0-15.312,7.707T1069.482-106q0,19.979,19.164,19.976a78.151,78.151,0,0,0,10.04-.508q-2.032,2.843-7.1,5.071a31.561,31.561,0,0,1-12.675,2.231,49.535,49.535,0,0,1-7.4-.508l-1.218,14.805a42.591,42.591,0,0,0,11.256,1.522q24.131,0,30.723-20.686h55.363A130.61,130.61,0,0,0,1194-86.533a152.246,152.246,0,0,0,20.381-5.525,73.964,73.964,0,0,1,12.167-3.6l1.116-13.283q-3.856-2.33-12.625-8.871A116.065,116.065,0,0,0,1199.727-127.75Zm-105.1,25.6q-11.662,0-11.662-6.59a8.279,8.279,0,0,1,1.826-5.324,6.355,6.355,0,0,1,5.273-2.28,7.15,7.15,0,0,1,5.222,2.484,16.348,16.348,0,0,1,3.549,5.577,24.29,24.29,0,0,1,1.471,6.133Z" transform="translate(162.097 54.084)" fill="#fff"/>
    <path id="Path_1410" data-name="Path 1410" d="M1164.963-137.927l-10.951-9.43-8.924,10.546,10.951,9.023Z" transform="translate(199.751 46.668)" fill="#fff"/>
  </g>
</svg>
