<svg xmlns="http://www.w3.org/2000/svg" xmlns:xlink="http://www.w3.org/1999/xlink" width="588.17" height="291.2" viewBox="0 0 588.17 291.2">
  <defs>
    <filter id="Path_6498" x="91.931" y="0" width="92.857" height="84" filterUnits="userSpaceOnUse">
      <feOffset input="SourceAlpha"/>
      <feGaussianBlur stdDeviation="5" result="blur"/>
      <feFlood flood-color="#ffe800" flood-opacity="0.639"/>
      <feComposite operator="in" in2="blur"/>
      <feComposite in="SourceGraphic"/>
    </filter>
    <filter id="Path_6499" x="160.187" y="14.616" width="59.52" height="68.304" filterUnits="userSpaceOnUse">
      <feOffset input="SourceAlpha"/>
      <feGaussianBlur stdDeviation="5" result="blur-2"/>
      <feFlood flood-color="#ffe800" flood-opacity="0.639"/>
      <feComposite operator="in" in2="blur-2"/>
      <feComposite in="SourceGraphic"/>
    </filter>
    <filter id="Path_6500" x="197.266" y="0" width="41.232" height="82.2" filterUnits="userSpaceOnUse">
      <feOffset input="SourceAlpha"/>
      <feGaussianBlur stdDeviation="5" result="blur-3"/>
      <feFlood flood-color="#ffe800" flood-opacity="0.639"/>
      <feComposite operator="in" in2="blur-3"/>
      <feComposite in="SourceGraphic"/>
    </filter>
    <filter id="Path_6501" x="293.097" y="7.849" width="53.256" height="42.743" filterUnits="userSpaceOnUse">
      <feOffset input="SourceAlpha"/>
      <feGaussianBlur stdDeviation="5" result="blur-4"/>
      <feFlood flood-color="#ffe800" flood-opacity="0.639"/>
      <feComposite operator="in" in2="blur-4"/>
      <feComposite in="SourceGraphic"/>
    </filter>
    <filter id="Path_6502" x="214.257" y="14.256" width="263.711" height="68.593" filterUnits="userSpaceOnUse">
      <feOffset input="SourceAlpha"/>
      <feGaussianBlur stdDeviation="5" result="blur-5"/>
      <feFlood flood-color="#ffe800" flood-opacity="0.639"/>
      <feComposite operator="in" in2="blur-5"/>
      <feComposite in="SourceGraphic"/>
    </filter>
    <filter id="Path_6503" x="455.526" y="0" width="41.232" height="82.2" filterUnits="userSpaceOnUse">
      <feOffset input="SourceAlpha"/>
      <feGaussianBlur stdDeviation="5" result="blur-6"/>
      <feFlood flood-color="#ffe800" flood-opacity="0.639"/>
      <feComposite operator="in" in2="blur-6"/>
      <feComposite in="SourceGraphic"/>
    </filter>
  </defs>
  <g id="Group_953" data-name="Group 953" transform="translate(-665.655 -979.532)">
    <g id="Group_951" data-name="Group 951">
      <path id="Path_6504" data-name="Path 6504" d="M759.244,1100.572l-8.64-7.439-7.04,8.319,8.64,7.12Z" fill="#ededed"/>
      <path id="Path_6505" data-name="Path 6505" d="M790.443,1100.572l-8.64-7.439-7.04,8.319,8.64,7.12Z" fill="#ededed"/>
      <path id="Path_6506" data-name="Path 6506" d="M808.443,1112.572a36.914,36.914,0,0,1,11.4,5.96,22.336,22.336,0,0,1,6.76,8.441,97.75,97.75,0,0,1-19.12,1.519h-2a41.884,41.884,0,0,1-9.12-.88,32.192,32.192,0,0,0,.32-4.96v-11.04l-11.84.8v11.681a3.67,3.67,0,0,1-1.76,3.239q-1.76,1.161-7.12,1.16h-1.679a41.893,41.893,0,0,1-9.121-.88,32.2,32.2,0,0,0,.32-4.96v-11.04l-11.84.8v11.681a3.67,3.67,0,0,1-1.76,3.239q-1.759,1.161-7.119,1.16h-1.84q-3.282,0-4.64-1.72a34.12,34.12,0,0,1-3.6-7.24q-1.6-4-2.56-6.16a51.06,51.06,0,0,0-3.36-5.96,41.8,41.8,0,0,0-5.36-6.84l-9.04,8.8a50.6,50.6,0,0,1,9.92,15.761q.4.958,1.04,2.88a48.308,48.308,0,0,1-11.36,1.04q-3.36,0-10.4-.321v14.161a78.523,78.523,0,0,0,10.56.559,33.31,33.31,0,0,0,17.04-4.319q3.84,3.6,10.88,3.6h4.079q8.559,0,13.121-3.36,4.719,3.36,12.8,3.36h5.28q8.559,0,13.12-3.36,4.719,3.36,12.8,3.36h4.56q21.36,0,30.56-5.12a37.244,37.244,0,0,0,.64-7.12q0-18.4-18.24-26.72a85.077,85.077,0,0,1,23.28-8.559v-13.28a98.019,98.019,0,0,0-35.6,14.639Z" fill="#ededed"/>
      <path id="Path_6507" data-name="Path 6507" d="M928.2,1106.173q-6.4,0-10.081,3.2a30.232,30.232,0,0,0-6.719,9.12q-.321.722-1,2.12t-1.04,2.12q-.362.721-.96,1.8a10.3,10.3,0,0,1-1.08,1.641q-.482.56-1.12,1.2a3.43,3.43,0,0,1-1.4.88,5.162,5.162,0,0,1-1.56.24h-2.8a91.111,91.111,0,0,1-21.52-2.72l-2.48,12.4a87.386,87.386,0,0,0,12.241,3.359q-3.762,4.56-14.481,4.561-13.28,0-13.28-9.681,0-4.56,2.88-12.479l-9.76-3.84q-5.6,11.119-5.6,20.159,0,9.279,5.92,14.32t17.2,5.04q11.6,0,18.68-4.639a18.976,18.976,0,0,0,8.68-12.241h3.44a12.822,12.822,0,0,0,8.96-3.44,31.123,31.123,0,0,0,14.96,3.521q9.359,0,14.719-2a38.065,38.065,0,0,0,3.2-15.92,20.171,20.171,0,0,0-4.48-13.321A14.3,14.3,0,0,0,928.2,1106.173Zm4.96,23.439q-2.4.24-4.641.241a35.481,35.481,0,0,1-9.92-1.281q3.04-6,4.8-7.8a5.9,5.9,0,0,1,4.4-1.8,4.6,4.6,0,0,1,4.12,2.16,9.509,9.509,0,0,1,1.4,5.279A27.926,27.926,0,0,1,933.162,1129.612Z" fill="#ededed"/>
      <path id="Path_6508" data-name="Path 6508" d="M1112.439,1093.053l-6.881-5.92-5.6,6.64,6.879,5.68Z" fill="#ededed"/>
      <path id="Path_6509" data-name="Path 6509" d="M1135,1123.612a59.473,59.473,0,0,0-1.6-12.719l-11.6,2.479a126.753,126.753,0,0,1,2.32,14.24,21.057,21.057,0,0,1-5.68.88q-5.281,0-5.281-4.559v-9.04l-11.119.719v6.64q0,5.841-6.641,5.841a12.332,12.332,0,0,1-5.439-1.2,29.637,29.637,0,0,0,.64-5.2l.32-6.08-11.04.8-.4,5.28q-.32,3.922-1.8,5.361a6.016,6.016,0,0,1-4.361,1.439H997q-3.282,0-4.64-1.72a34.123,34.123,0,0,1-3.6-7.24q-1.6-4-2.56-6.16a51.361,51.361,0,0,0-3.36-5.96,41.752,41.752,0,0,0-5.361-6.84l-9.04,8.8a50.585,50.585,0,0,1,9.921,15.761q.4.958,1.039,2.88a48.293,48.293,0,0,1-11.359,1.04q-3.36,0-10.4-.321v14.161a78.523,78.523,0,0,0,10.56.559,33.31,33.31,0,0,0,17.04-4.319q3.84,3.6,10.88,3.6h76a17.372,17.372,0,0,0,10.4-3.04,22.344,22.344,0,0,0,12.48,3.441q8.4,0,12.24-3.761,3.841,3.441,10.961,3.441a30.705,30.705,0,0,0,14.879-4.081Q1135,1132.973,1135,1123.612Z" fill="#ededed"/>
      <path id="Path_6510" data-name="Path 6510" d="M1107.238,1104.813l6.48,5.36,6.24-7.12-7.6-6.561-5.281,6.16-6.479-5.6-6.24,7.359,7.6,6.32Z" fill="#ededed"/>
      <path id="Path_6511" data-name="Path 6511" d="M1143,1115.133q3.519,12.16,3.519,16.96a17.039,17.039,0,0,1-3,10.239q-3,4.158-9.96,4.16a24.455,24.455,0,0,1-4-.319l-.959,11.68a39.3,39.3,0,0,0,8.16.96,21.569,21.569,0,0,0,10.12-2.241,16.873,16.873,0,0,0,6.72-6.24,29.692,29.692,0,0,0,3.559-8.88,47.9,47.9,0,0,0,1.12-10.72,73.984,73.984,0,0,0-2.639-19.2Z" fill="#ededed"/>
      <path id="Path_6512" data-name="Path 6512" d="M1194.2,1142.732h.4a42.742,42.742,0,0,0,9.92-1.2,33.446,33.446,0,0,0,8-2.8q1.919-5.759,1.919-15.12a74.968,74.968,0,0,0-1.6-15.92l-11.6,2.481a90.158,90.158,0,0,1,2.321,17.519,40.046,40.046,0,0,1-8.721.8h-1.52q-6.719,0-6.719-7.519v-36.241l-12.48,1.04v37.92q0,9.2,3.72,14.121t12.519,4.919Z" fill="#ededed"/>
      <path id="Path_6513" data-name="Path 6513" d="M1201.4,1153.692l-6.641-5.68-6.319,7.52,7.76,6.4,5.04-5.681,6.64,5.44,6.4-7.2-7.84-6.72Z" fill="#ededed"/>
    </g>
    <g id="Group_952" data-name="Group 952">
      <path id="Path_6514" data-name="Path 6514" d="M671.927,1235.788a6.3,6.3,0,0,0-4.544,1.536,5.665,5.665,0,0,0-1.6,4.288,5.771,5.771,0,0,0,1.6,4.321,6.22,6.22,0,0,0,4.544,1.567,6.13,6.13,0,0,0,4.48-1.567,5.775,5.775,0,0,0,1.6-4.321,5.69,5.69,0,0,0-1.6-4.256A6.135,6.135,0,0,0,671.927,1235.788Z" fill="#ededed"/>
      <path id="Path_6515" data-name="Path 6515" d="M665.655,1211.276A122.8,122.8,0,0,0,667.7,1232.2h8.32a133.913,133.913,0,0,0,2.112-20.928v-9.343h-12.48Z" fill="#ededed"/>
      <path id="Path_6516" data-name="Path 6516" d="M692.086,1235.788a6.3,6.3,0,0,0-4.544,1.536,5.665,5.665,0,0,0-1.6,4.288,5.771,5.771,0,0,0,1.6,4.321,6.22,6.22,0,0,0,4.544,1.567,6.13,6.13,0,0,0,4.48-1.567,5.775,5.775,0,0,0,1.6-4.321,5.69,5.69,0,0,0-1.6-4.256A6.135,6.135,0,0,0,692.086,1235.788Z" fill="#ededed"/>
      <path id="Path_6517" data-name="Path 6517" d="M685.814,1211.276a122.8,122.8,0,0,0,2.048,20.928h8.321a134.013,134.013,0,0,0,2.111-20.928v-9.343h-12.48Z" fill="#ededed"/>
      <path id="Path_6518" data-name="Path 6518" d="M712.246,1235.788a6.3,6.3,0,0,0-4.544,1.536,5.665,5.665,0,0,0-1.6,4.288,5.771,5.771,0,0,0,1.6,4.321,6.22,6.22,0,0,0,4.544,1.567,6.13,6.13,0,0,0,4.48-1.567,5.775,5.775,0,0,0,1.6-4.321,5.69,5.69,0,0,0-1.6-4.256A6.135,6.135,0,0,0,712.246,1235.788Z" fill="#ededed"/>
      <path id="Path_6519" data-name="Path 6519" d="M705.974,1211.276a122.807,122.807,0,0,0,2.048,20.928h8.32a133.913,133.913,0,0,0,2.112-20.928v-9.343h-12.48Z" fill="#ededed"/>
      <path id="Path_6520" data-name="Path 6520" d="M814.332,1191.232l-10.8-9.3-8.8,10.4,10.8,8.9Z" fill="#ededed"/>
      <path id="Path_6521" data-name="Path 6521" d="M821.732,1222.832a93.644,93.644,0,0,0-2-19.9l-14.5,3.1a112.687,112.687,0,0,1,2.9,21.9,50.171,50.171,0,0,1-10.9,1h-24.6q-4.1,0-5.8-2.151t-4.5-9.05q-2-5-3.2-7.7a63.942,63.942,0,0,0-4.2-7.45,52.157,52.157,0,0,0-6.7-8.55l-11.3,11q8.9,10.1,12.4,19.7.5,1.2,1.3,3.6a60.356,60.356,0,0,1-14.2,1.3q-4.2,0-13-.4v17.7a98.168,98.168,0,0,0,13.2.7,41.634,41.634,0,0,0,21.3-5.4q4.8,4.5,13.6,4.5h25.4a53.408,53.408,0,0,0,12.4-1.5,41.81,41.81,0,0,0,10-3.5Q821.733,1234.533,821.732,1222.832Z" fill="#ededed"/>
      <path id="Path_6522" data-name="Path 6522" d="M899.132,1260.433l-8.3-7.1-7.9,9.4,9.7,8,6.3-7.1,8.3,6.8,8-9-9.8-8.4Z" fill="#ededed"/>
      <path id="Path_6523" data-name="Path 6523" d="M960.632,1201.032q-8,0-12.6,4a37.745,37.745,0,0,0-8.4,11.4q-.4.9-1.25,2.649t-1.3,2.65q-.449.9-1.2,2.25a12.71,12.71,0,0,1-1.35,2.05q-.6.7-1.4,1.5a4.313,4.313,0,0,1-1.75,1.1,6.486,6.486,0,0,1-1.95.3h-2.5a52.409,52.409,0,0,1-11.4-1.1,40.263,40.263,0,0,0,.4-6.2v-13.8l-14.8,1v14.6a4.587,4.587,0,0,1-2.2,4.049q-2.2,1.45-8.9,1.451h-26.9q-7.1,0-9.7-3.7a14.793,14.793,0,0,1-1.3-2.3q-.6-1.3-1-2.351t-.95-2.949q-.551-1.9-.85-2.9t-.95-3.549q-.651-2.551-.85-3.451l-14.5,4.5q4.1,14.1,4.1,21.2a20.087,20.087,0,0,1-4.1,12.75q-4.1,5.25-13.1,5.25a30.447,30.447,0,0,1-5-.4l-1.2,14.6a49.043,49.043,0,0,0,10.2,1.2q11.1,0,17.5-6.4t8.4-17q4.3,3.3,12.1,3.3h29.8q10.7,0,16.4-4.2,5.9,4.2,16,4.2h4.2a16.03,16.03,0,0,0,11.2-4.3,38.915,38.915,0,0,0,18.7,4.4q11.7,0,18.4-2.5a47.58,47.58,0,0,0,4-19.9q0-9.9-5.6-16.651A17.865,17.865,0,0,0,960.632,1201.032Zm6.2,29.3q-3,.3-5.8.3a44.322,44.322,0,0,1-12.4-1.6q3.8-7.5,6-9.75a7.374,7.374,0,0,1,5.5-2.25,5.752,5.752,0,0,1,5.15,2.7,11.894,11.894,0,0,1,1.75,6.6A34.793,34.793,0,0,1,966.832,1230.332Z" fill="#ededed"/>
      <path id="Path_6524" data-name="Path 6524" d="M1158.328,1201.032q-8,0-12.6,4a37.777,37.777,0,0,0-8.4,11.4q-.4.9-1.25,2.649t-1.3,2.65q-.45.9-1.2,2.25a12.645,12.645,0,0,1-1.35,2.05q-.6.7-1.4,1.5a4.307,4.307,0,0,1-1.75,1.1,6.475,6.475,0,0,1-1.949.3h-73.5a113.866,113.866,0,0,1-26.9-3.4l-3.1,15.5a109.073,109.073,0,0,0,15.3,4.2q-4.7,5.7-18.1,5.7-16.6,0-16.6-12.1,0-5.7,3.6-15.6l-12.2-4.8q-7,13.9-7,25.2,0,11.6,7.4,17.9t21.5,6.3q14.5,0,23.351-5.8t10.849-15.3h74.3a16.026,16.026,0,0,0,11.2-4.3,38.921,38.921,0,0,0,18.7,4.4q11.7,0,18.4-2.5a47.579,47.579,0,0,0,4-19.9q0-9.9-5.6-16.651A17.865,17.865,0,0,0,1158.328,1201.032Zm6.2,29.3q-3,.3-5.8.3a44.332,44.332,0,0,1-12.4-1.6q3.8-7.5,6-9.75a7.377,7.377,0,0,1,5.5-2.25,5.751,5.751,0,0,1,5.15,2.7,11.886,11.886,0,0,1,1.75,6.6A34.791,34.791,0,0,1,1164.528,1230.332Z" fill="#ededed"/>
      <path id="Path_6525" data-name="Path 6525" d="M1228.525,1246.732h.5a53.432,53.432,0,0,0,12.4-1.5,41.86,41.86,0,0,0,10-3.5q2.4-7.2,2.4-18.9a93.644,93.644,0,0,0-2-19.9l-14.5,3.1a112.607,112.607,0,0,1,2.9,21.9,50.155,50.155,0,0,1-10.9,1h-1.9q-8.4,0-8.4-9.4v-45.3l-15.6,1.3v47.4q0,11.5,4.65,17.649t15.649,6.15Z" fill="#ededed"/>
      <path id="Path_6526" data-name="Path 6526" d="M1237.525,1260.433l-8.3-7.1-7.9,9.4,9.7,8,6.3-7.1,8.3,6.8,8-9-9.8-8.4Z" fill="#ededed"/>
    </g>
    <g id="Group_954" data-name="Group 954" transform="translate(-0.345 395.532)">
      <g transform="matrix(1, 0, 0, 1, 666, 584)" filter="url(#Path_6498)">
        <path id="Path_6498-2" data-name="Path 6498" d="M820.035,1012.425a46.147,46.147,0,0,0-14.9-4.717q-9.361,10.368-9.361,20.521a14.1,14.1,0,0,0,1.08,5.471q-2.52.218-5.255.216h-1.728q-6.05,0-6.049-6.768V994.532l-11.232.937V1029.6q0,8.28,3.348,12.708t11.269,4.427h5.472a35.1,35.1,0,0,0,14.832-2.807,40.869,40.869,0,0,0,19.008,4.607,7.141,7.141,0,0,0,6.839-4,21.558,21.558,0,0,0,2.089-10.044,20.972,20.972,0,0,0-4.284-12.672A31.787,31.787,0,0,0,820.035,1012.425Zm-7.993,16.055a13.181,13.181,0,0,1-3.887,3.205q-3.6-2.232-3.6-5.617a12.487,12.487,0,0,1,1.872-6.047q6.912,1.3,6.912,5.471A5.173,5.173,0,0,1,812.042,1028.48Zm13.1,9.109a27.813,27.813,0,0,1-7.92-1.8,20.354,20.354,0,0,0,3.889-9.359q4.968,4.68,4.967,10.223A.828.828,0,0,1,825.146,1037.589Z" transform="translate(-665.66 -979.53)" fill="#ededed"/>
      </g>
      <g transform="matrix(1, 0, 0, 1, 666, 584)" filter="url(#Path_6499)">
        <path id="Path_6499-2" data-name="Path 6499" d="M857.619,1009.148l-8.137,8.64q8.568,7.777,11.232,16.7-4.32.432-9,.433t-10.872-.433v12.384a72.831,72.831,0,0,0,9.576.576q13.246,0,19.224-3.311a45.687,45.687,0,0,0,.72-7.7Q870.362,1020.309,857.619,1009.148Z" transform="translate(-665.66 -979.53)" fill="#ededed"/>
      </g>
      <g transform="matrix(1, 0, 0, 1, 666, 584)" filter="url(#Path_6500)">
        <path id="Path_6500-2" data-name="Path 6500" d="M877.921,1046.732h11.232v-52.2l-11.232.937Z" transform="translate(-665.66 -979.53)" fill="#ededed"/>
      </g>
      <g transform="matrix(1, 0, 0, 1, 666, 584)" filter="url(#Path_6501)">
        <path id="Path_6501-2" data-name="Path 6501" d="M985.271,1010.013l5.977,4.9,5.76-6.479-7.056-6.048-4.536,5.327-5.977-5.111-5.687,6.768,6.983,5.76Z" transform="translate(-665.66 -979.53)" fill="#ededed"/>
      </g>
      <g transform="matrix(1, 0, 0, 1, 666, 584)" filter="url(#Path_6502)">
        <path id="Path_6502-2" data-name="Path 6502" d="M1116.742,1020.309a113.506,113.506,0,0,1,2.088,12.815,18.942,18.942,0,0,1-5.111.792q-4.752,0-4.752-4.1v-8.136l-10.008.647v5.977q0,5.256-5.977,5.256a11.1,11.1,0,0,1-4.9-1.08,26.613,26.613,0,0,0,.575-4.68l.288-5.473-9.935.72-.361,4.753q-.288,3.526-1.62,4.823a5.411,5.411,0,0,1-3.924,1.3h-68.543a37.716,37.716,0,0,1-8.208-.792,28.931,28.931,0,0,0,.288-4.464v-9.935l-10.656.719v10.512a3.3,3.3,0,0,1-1.584,2.916q-1.584,1.044-6.407,1.044h-5.256a63.627,63.627,0,0,1-7.7-.432,31.547,31.547,0,0,0,8.641-18.576q-7.418-3.815-19.3-3.815A64.119,64.119,0,0,0,934.8,1013.9a24.777,24.777,0,0,0,2.412,10.909,31.493,31.493,0,0,0,5.8,8.46,75.966,75.966,0,0,1-10.584.647h-2.087q-2.953,0-4.176-1.548a30.753,30.753,0,0,1-3.24-6.515q-1.441-3.6-2.3-5.544a45.9,45.9,0,0,0-3.024-5.365,37.543,37.543,0,0,0-4.825-6.156l-8.135,7.92a45.541,45.541,0,0,1,8.928,14.185q.359.864.935,2.591a43.44,43.44,0,0,1-10.223.937q-3.024,0-9.361-.288v12.743a70.452,70.452,0,0,0,9.505.505,29.981,29.981,0,0,0,15.336-3.889q3.456,3.24,9.792,3.24h3.239q12.1,0,20.808-4.391,8.063,4.392,19.872,4.391h5.76q7.7,0,11.807-3.024,4.248,3.025,11.521,3.024h69.478a15.641,15.641,0,0,0,9.361-2.736,20.1,20.1,0,0,0,11.232,3.1q7.558,0,11.016-3.385,3.456,3.1,9.863,3.1a27.64,27.64,0,0,0,13.392-3.672,44.042,44.042,0,0,0,1.729-13.609,53.625,53.625,0,0,0-1.44-11.448Zm-162.286,10.727a27.4,27.4,0,0,1-7.848-8.855,44.716,44.716,0,0,1,6.912-.577,33.265,33.265,0,0,1,8.5,1.081A28.874,28.874,0,0,1,954.456,1031.036Z" transform="translate(-665.66 -979.53)" fill="#ededed"/>
      </g>
      <g transform="matrix(1, 0, 0, 1, 666, 584)" filter="url(#Path_6503)">
        <path id="Path_6503-2" data-name="Path 6503" d="M1136.182,995.469v51.264h11.232v-52.2Z" transform="translate(-665.66 -979.53)" fill="#ededed"/>
      </g>
    </g>
  </g>
</svg>
