<svg xmlns="http://www.w3.org/2000/svg" width="441.402" height="318.115" viewBox="0 0 441.402 318.115">
  <g id="Group_39" data-name="Group 39" transform="translate(0 0)">
    <path id="Path_1414" data-name="Path 1414" d="M880.489,488.864V376.074H819.864v20.148c0,8.506-1.458,14.958-4.335,19.176l-.066.1c-2.351,3.691-7.883,5.563-16.442,5.563a57.608,57.608,0,0,0-19.2,3.58c-4.992-12.255-9.42-22.465-13.18-30.39-4.195-8.839-7.11-14.777-8.91-18.156l-2.355-4.42L675.118,447.6l2.364,2.759c.662.774,2.661,3.591,8.6,13.767,4.563,7.824,9.987,19.01,16.12,33.247,6.116,14.206,11.655,31.22,16.466,50.566,4.791,19.285,7.219,40.782,7.219,63.9V652.5c0,7.858.055,14.1.168,19.077l.012.6c.092,4.373.153,7.262.153,7.646v9.968l78.62-31.372V550.759c4.329.386,8.744.58,13.179.58a61.86,61.86,0,0,0,62.471-62.474ZM818.018,537.7c-4.446,0-8.865-.207-13.179-.614v-5.9a205.5,205.5,0,0,0-6.445-49.584A436.427,436.427,0,0,0,784.91,437.38a41.761,41.761,0,0,1,14.111-2.683c13.272,0,22.626-3.805,27.805-11.311l.069-.1c4.383-6.816,6.605-15.92,6.605-27.06V389.71h33.354v99.155c0,13.527-4.658,24.864-14.212,34.629C843.079,533.055,831.754,537.7,818.018,537.7ZM751.57,394.22c7.252,15.382,25.9,59.376,33.577,90.724,4.076,16.646,6.057,31.773,6.057,46.247V649.234l-51.362,20.311c-.021-5.776-.072-13.344-.155-22.915-.111-12.2-.166-23.909-.166-34.792a280.852,280.852,0,0,0-6.257-60.816A349.659,349.659,0,0,0,718.6,501.315a318.582,318.582,0,0,0-16.034-35.766c-3.919-7.224-6.963-12.542-9.227-16.114Z" transform="translate(-675.118 -371.675)" fill="#e5e5e5"/>
    <path id="Path_1415" data-name="Path 1415" d="M1160.774,494.6a215.217,215.217,0,0,0-29.345-39.871,402.572,402.572,0,0,0-33.988-32.8c-11.109-9.44-20.471-17.054-27.8-22.611l-4.282-3.3a93.078,93.078,0,0,0-11.771-8.3l-.11-.063c-10.3-5.614-20.331-8.462-29.821-8.462h-.091c-10.434.251-19.013,4.3-25.5,12.028l-.057.069a34.7,34.7,0,0,0-2.956,4.42c-2.724,4.542-6.175,10.706-10.255,18.32-4.208,7.843-8.464,15.681-12.648,23.3-4.356,7.933-8.008,14.675-10.858,20.042-2.813,5.309-4.91,9.12-6.232,11.325l-2.286,3.814,14.978,6.127c-6.811,13.773-22.2,45.444-45.838,94.315-6.247,12.728-9.182,28.911-8.72,48.124a67.932,67.932,0,0,0,14.47,40.556,82.386,82.386,0,0,0,21.6,19.182c8.807,5.937,20.492,8.947,34.735,8.947,7.919,0,14.682-1.436,20.1-4.268a47.517,47.517,0,0,0,12.856-9.445,69.083,69.083,0,0,0,4.569-5.4,79.6,79.6,0,0,0,7.246,5.741,76.589,76.589,0,0,0,18.587,9.314c7.487,2.693,16.444,4.059,26.621,4.059,10.721,0,19.934-1.682,27.376-4.994a52.313,52.313,0,0,0,18.492-13.307,58.045,58.045,0,0,0,13.18-25.67,113.542,113.542,0,0,0,3.09-24.5,91.449,91.449,0,0,0-3.165-23.637c9.115-3.539,16.5-8,22-13.276,7.1-6.859,11.976-14.468,14.494-22.614a78.544,78.544,0,0,0,3.67-23.121C1173.106,523.825,1168.956,509.006,1160.774,494.6ZM1018.5,554.535v26.432c0,4.083-.857,6.831-2.55,8.172a13.98,13.98,0,0,1-6.835,3.045,48.672,48.672,0,0,1-6.122.627h-.666c-5.338,0-9.037-1.012-10.7-2.927a17.288,17.288,0,0,1-3.809-10.92,26.905,26.905,0,0,1,2.518-10.64c1.69-3.885,3.079-6.939,4.135-9.092l.7-.7.287-.618c4.437-9.541,9.367-20.076,14.652-31.311,4.074-8.653,7.473-15.922,9.977-21.332,33.867,18.423,59.429,37.327,76.012,56.22l.028.032A115.91,115.91,0,0,1,1115,589.067c-10.587,2.487-24.022,3.744-40.024,3.744a12.943,12.943,0,0,1-4.989-1.188,11.316,11.316,0,0,1-4.583-3.9l-.228-.284c-2.646-3-4.044-8.806-4.044-16.8V545.606Zm109.545,30.258c-4.879-10.8-12.233-21.674-21.867-32.334-18.648-21.337-47.563-42.461-85.948-62.784l-6.279-3.92-3.091,6.953c-.46.953-2.86,6.169-5.005,10.848-3.2,6.974-6.953,14.976-11.144,23.783-4.074,8.569-8.05,16.858-11.8,24.593l-.271.54a93.2,93.2,0,0,0-5.171,10.86,40.487,40.487,0,0,0-3.292,15.633,37.743,37.743,0,0,0,1.477,10.375,22.827,22.827,0,0,0,5.971,9.989c4.472,4.477,11.4,6.87,20.6,7.116l.55,0a37.835,37.835,0,0,0,9.507-.717,27.333,27.333,0,0,0,13.167-6.347c4.439-3.75,6.69-9.945,6.69-18.414V565.424l15.356-3.116v8.327c0,11.378,2.219,19.555,6.782,24.987a23.23,23.23,0,0,0,10.074,8.537,27.862,27.862,0,0,0,10.622,2.288c17.931,0,32.965-1.509,44.765-4.49a71.159,71.159,0,0,1,2.739,19.336,94.176,94.176,0,0,1-2.731,20.961,47.117,47.117,0,0,1-10.353,20.221,37.887,37.887,0,0,1-13.646,9.817c-5.693,2.544-13.019,3.834-21.772,3.834-8.4,0-15.7-1.1-21.7-3.273a67.825,67.825,0,0,1-15.139-7.39,65.75,65.75,0,0,1-11.445-10.172l-6.677-10.394-2.861,6.521c-1.528,3.484-2.834,6.26-3.882,8.251a37.192,37.192,0,0,1-4.978,6.746,31.155,31.155,0,0,1-9.217,6.8,30.771,30.771,0,0,1-14.085,2.912c-11.621,0-20.887-2.251-27.589-6.722a71.444,71.444,0,0,1-18.054-16.467,54.687,54.687,0,0,1-11.527-32.413c-.43-16.842,2.018-30.819,7.287-41.566,6-12.434,12.887-26.551,20.483-41.961q11.5-23.328,20-40.665c7.51-15.309,8.669-17.872,8.941-18.573l2.9-6.523-14-5.538c3.577-6.55,8.528-15.738,14.767-27.4,7.572-14.161,14.221-26.175,19.763-35.708l.114-.21a18.924,18.924,0,0,1,1.557-2.637,20,20,0,0,1,15.082-6.916c7.065.012,14.834,2.32,23.06,6.839a73,73,0,0,1,10.13,6.97l4.449,3.422c6.959,5.218,15.982,12.516,26.816,21.69a393.927,393.927,0,0,1,32.673,31.352,202.23,202.23,0,0,1,27.639,37.12c7.292,12.678,10.989,25.6,10.989,38.422a66.487,66.487,0,0,1-2.841,18.748c-1.8,6.091-5.483,11.853-10.949,17.125C1141.386,578.44,1135.465,581.89,1128.042,584.794Z" transform="translate(-731.703 -373.462)" fill="#e5e5e5"/>
  </g>
</svg>
