<svg xmlns="http://www.w3.org/2000/svg" width="528.581" height="88.141" viewBox="0 0 528.581 88.141">
  <g id="About-Icon" transform="translate(-125.572 -921)">
    <g id="Group_921" data-name="Group 921" transform="translate(-108.981 571.035)">
      <path id="Path_6400" data-name="Path 6400" d="M381.879,365.44c-.753,1.034-1.433,1.973-2.117,2.909q-4.192,5.741-8.38,11.488a.932.932,0,0,1-.846.416c-3.524.069-7.049.162-10.573.237-8.152.175-15.991,2.019-23.776,4.28a117.071,117.071,0,0,0-17.692,7.11q-16,7.634-31.5,16.218a40.334,40.334,0,0,1-8.9,3.78,15.725,15.725,0,0,1-11.38-.923c-3.255-1.588-4.293-4.02-4.075-7.5.224-3.572,1.426-6.906,2.6-10.25.665-1.9,1.227-3.842,1.749-5.788a5.613,5.613,0,0,0-.024-3.071,2.259,2.259,0,0,0-3.225-1.648,8.964,8.964,0,0,0-2.1,1.181c-3.612,2.731-7.22,5.47-10.785,8.264-5.324,4.171-10.61,8.389-15.912,12.587-.088.069-.182.128-.383.268.1-.3.145-.492.214-.675a15.533,15.533,0,0,1,4.766-6.443c3.786-3.189,7.559-6.393,11.4-9.51,4.023-3.259,8.058-6.508,12.2-9.6a69.448,69.448,0,0,1,15.519-8.916,17.219,17.219,0,0,1,5.283-1.352,4.869,4.869,0,0,1,2.325.352,1.894,1.894,0,0,1,1.145,1.352,7.525,7.525,0,0,1-.261,3.823,53.676,53.676,0,0,1-3.073,7.633,97.087,97.087,0,0,0-4.071,9.792,18.823,18.823,0,0,0-1.1,5.442c-.04,2.427.9,4.691,4.347,4.8a16.7,16.7,0,0,0,6.137-1.256,86.867,86.867,0,0,0,10.738-4.932c5.493-2.847,10.953-5.766,16.488-8.532,10.2-5.1,20.539-9.922,31.13-14.179a99.447,99.447,0,0,1,14.75-5.025c3.221-.738,6.5-1.234,9.772-1.733a55.467,55.467,0,0,1,8.994-.6C381.427,365.442,381.588,365.44,381.879,365.44Z" transform="translate(0 5.364)" fill="#ededed"/>
      <path id="Path_6401" data-name="Path 6401" d="M339.854,369.431c.24-.63.467-1.23.7-1.828q2.618-6.83,5.231-13.663a.718.718,0,0,1,.634-.537q9.373-1.66,18.741-3.356c.189-.034.38-.05.629-.082-.4,1.011-.787,1.978-1.162,2.951-2.687,6.943-5.329,13.9-8.071,20.824-1.755,4.43-3.682,8.789-5.483,13.2a56.662,56.662,0,0,0-3.085,9.274,22.825,22.825,0,0,0-.346,2.975,2.452,2.452,0,0,0,.168.9,1.245,1.245,0,0,0,1.349.948,5.571,5.571,0,0,0,2.56-.819,25.518,25.518,0,0,0,5.1-3.931,96.361,96.361,0,0,0,9.4-10.521c.059-.075.118-.148.265-.331.1.514.217.923.255,1.339a6.092,6.092,0,0,1-.854,3.91,87.632,87.632,0,0,1-9.2,12.6,39.153,39.153,0,0,1-15.31,10.385,14.955,14.955,0,0,1-6.611,1c-3.7-.339-6.331-2.33-6.829-6.367a21.272,21.272,0,0,1,.644-7.4,100.89,100.89,0,0,1,3.988-12.141c.4-1.1.413-1.107,1.576-1.143q2.448-.075,4.9-.125a1.239,1.239,0,0,0,1.064-.545c3.946-5.411,7.888-10.824,11.873-16.207.578-.781.272-1.766-.784-1.763-1.892.007-3.786-.059-5.674.017-1.807.075-3.608.294-5.411.449A2.113,2.113,0,0,1,339.854,369.431Z" transform="translate(32.34 0)" fill="#ededed"/>
      <path id="Path_6402" data-name="Path 6402" d="M281.532,422.558a4.067,4.067,0,0,1,.757-.373c1.811-.467,3.62-.959,5.448-1.352a86.744,86.744,0,0,0,9.115-2.043,44.616,44.616,0,0,0,23.389-17.536,27.719,27.719,0,0,0,3.729-8.894,54.547,54.547,0,0,0,1.574-9.7c.059-.788.113-1.576.172-2.4l19.131-2.288c-.109.791-.2,1.506-.306,2.218a68.985,68.985,0,0,1-1.98,9.574,42.943,42.943,0,0,1-6.716,13.089,53.334,53.334,0,0,1-11.175,10.839,42.635,42.635,0,0,1-17.981,7.792,93.8,93.8,0,0,1-13.651,1.663,68.764,68.764,0,0,1-10.755-.226,5.543,5.543,0,0,1-.726-.178Z" transform="translate(16.29 9.712)" fill="#ededed"/>
      <path id="Path_6403" data-name="Path 6403" d="M328.98,411.562a10.174,10.174,0,0,1-4.6-1.086,4.13,4.13,0,0,1-2.4-2.976,3.18,3.18,0,0,1,.609-2.524,8.305,8.305,0,0,1,1.929-1.942,12.412,12.412,0,0,1,10.986-1.419,6.4,6.4,0,0,1,1.779.96,3.5,3.5,0,0,1,.808,5.122,8.245,8.245,0,0,1-3.523,2.725A13.607,13.607,0,0,1,328.98,411.562Z" transform="translate(30.297 17.674)" fill="#ededed"/>
      <path id="Path_6404" data-name="Path 6404" d="M342.348,408.7a8.337,8.337,0,0,1-4.341-.988A3.557,3.557,0,0,1,336,404.133a5.038,5.038,0,0,1,1.521-2.861,11.692,11.692,0,0,1,6.063-3.143,10.752,10.752,0,0,1,6.021.193,6.671,6.671,0,0,1,1.663.873,3.379,3.379,0,0,1,1.134,4.267,7.909,7.909,0,0,1-3.857,3.739A13.021,13.021,0,0,1,342.348,408.7Z" transform="translate(35.168 16.585)" fill="#ededed"/>
      <path id="Path_6405" data-name="Path 6405" d="M338.653,418.144a9.933,9.933,0,0,1-4.774-1.069,4.731,4.731,0,0,1-1.986-1.8,3.368,3.368,0,0,1,.171-3.712,7.665,7.665,0,0,1,3.595-2.851,12.526,12.526,0,0,1,9.165-.551,7.145,7.145,0,0,1,2.031,1.1,3.46,3.46,0,0,1,.838,4.868,7.655,7.655,0,0,1-3.359,2.773A13.2,13.2,0,0,1,338.653,418.144Z" transform="translate(33.587 19.963)" fill="#ededed"/>
    </g>
    <path id="Path_6460" data-name="Path 6460" d="M279.753,17h-.84q-2.436,0-3.171-1.68a20.01,20.01,0,0,1-2.163.126,6.518,6.518,0,0,1-3.3-.7,2.311,2.311,0,0,1-1.2-2.132,4.929,4.929,0,0,1,2.383-4.231,9.865,9.865,0,0,1,5.7-1.628v6.09a1.892,1.892,0,0,0,.5,1.5,2.84,2.84,0,0,0,1.806.431h.273Zm-5.8-3.507q.672,0,1.428-.063V8.873a6.194,6.194,0,0,0-3.339,1.2,2.734,2.734,0,0,0-1.281,2.037q0,.63.809,1.008A5.843,5.843,0,0,0,273.957,13.493Zm18.48,3.528a3.039,3.039,0,0,1-2.793-1.3q-.966,1.407-3.528,1.407a5.308,5.308,0,0,1-3.318-.966,4.341,4.341,0,0,1-2.793.84h-.252q-.252,0-.409-.326a2.047,2.047,0,0,1,0-1.575q.157-.326.409-.325h.588a2.29,2.29,0,0,0,1.575-.472,2.58,2.58,0,0,0,.609-1.774l.126-1.6,1.785-.168-.105,1.89a6.719,6.719,0,0,1-.273,1.6,4.035,4.035,0,0,0,2.163.546,3.257,3.257,0,0,0,1.848-.5,1.7,1.7,0,0,0,.756-1.512V10.511l1.806-.126v2.5a1.689,1.689,0,0,0,1.932,1.89,4.754,4.754,0,0,0,2.037-.462v-.273a17.606,17.606,0,0,0-.588-4.095l1.869-.441a14.626,14.626,0,0,1,.462,3.549,10.126,10.126,0,0,1-.378,3A7.288,7.288,0,0,1,292.437,17.021Zm10.206-2.394a8.13,8.13,0,0,1-1.428,5.071,4.811,4.811,0,0,1-4.053,1.858,8.715,8.715,0,0,1-1.743-.189l.21-1.869a5.582,5.582,0,0,0,1.134.1,4.042,4.042,0,0,0,1.869-.41,3.166,3.166,0,0,0,1.249-1.113,5.4,5.4,0,0,0,.672-1.523,6.765,6.765,0,0,0,.221-1.764,20.3,20.3,0,0,0-.8-4.7l2.016-.567A21.342,21.342,0,0,1,302.643,14.627Zm7.854.147V17h-.714a3.865,3.865,0,0,1-3.318-1.281,6.367,6.367,0,0,1-.945-3.8V1.964l1.995-.168v9.765a3.724,3.724,0,0,0,.651,2.489,2.666,2.666,0,0,0,2.079.724Zm0,2.226q-.252,0-.409-.326a2.047,2.047,0,0,1,0-1.575q.157-.326.409-.325h.105a8.789,8.789,0,0,0,3.3-.525,4.175,4.175,0,0,0,.021-.483,17.607,17.607,0,0,0-.588-4.515l1.848-.441a17.248,17.248,0,0,1,.5,4.116,10.415,10.415,0,0,1-.357,2.94A9.163,9.163,0,0,1,310.581,17Zm3.276,4.074-1.428-1.239,1.2-1.344,1.407,1.2Zm-2.9.1-1.428-1.239,1.2-1.344,1.407,1.2Zm1.617,2.289-1.365-1.2,1.134-1.281,1.344,1.155Zm12.915-6.237a17.214,17.214,0,0,1-2.772-.189V14.879a29.128,29.128,0,0,0,3.045.168,12.655,12.655,0,0,0,3.7-.483,8.038,8.038,0,0,0-1.207-3.14,16.449,16.449,0,0,0-2.7-3.056L326.9,6.878q4.158,3.675,4.158,7.791a7.1,7.1,0,0,1-.147,1.512A11.553,11.553,0,0,1,325.407,17.231ZM335.928,17h-1.974V1.964l1.974-.168Zm4.137-11.739,1.554,1.365-1.3,1.449-1.533-1.3Zm2.31,9.366a8.13,8.13,0,0,1-1.428,5.071,4.811,4.811,0,0,1-4.053,1.858,8.715,8.715,0,0,1-1.743-.189l.21-1.869a5.582,5.582,0,0,0,1.134.1,4.042,4.042,0,0,0,1.869-.41,3.166,3.166,0,0,0,1.249-1.113,5.4,5.4,0,0,0,.672-1.523,6.765,6.765,0,0,0,.221-1.764,20.3,20.3,0,0,0-.8-4.7l2.016-.567A21.342,21.342,0,0,1,342.375,14.627Zm7.14-13.293L350,2.426a3.422,3.422,0,0,1-2.1.672,6.378,6.378,0,0,1-1.732-.336,6.4,6.4,0,0,0-1.5-.336,1.91,1.91,0,0,0-1.344.651L342.5,2.2a2.672,2.672,0,0,1,2.184-1.26,6.789,6.789,0,0,1,1.638.357,6.738,6.738,0,0,0,1.722.357A3.42,3.42,0,0,0,349.515,1.334ZM347.247,17h-1.974V4.169l1.974-.189Zm13.671,4.746a6.439,6.439,0,0,1-4.368-1.323,4.7,4.7,0,0,1-1.512-3.738,11.393,11.393,0,0,1,1.281-5.04l1.575.651a10.3,10.3,0,0,0-.861,3.822q0,3.486,4.305,3.486a6.792,6.792,0,0,0,3.3-.735,3.358,3.358,0,0,0,1.722-2.1,26.467,26.467,0,0,1-4.011-.987l.441-1.953a22.183,22.183,0,0,0,6.321.945h.252V17h-.231q-.357,0-1.113-.042a5.144,5.144,0,0,1-2.215,3.476A8.29,8.29,0,0,1,360.918,21.746ZM369.36,17q-.252,0-.409-.326a2.047,2.047,0,0,1,0-1.575q.157-.326.409-.325h.168a10.48,10.48,0,0,0,2.667-.315q.147-1.722.147-3.99,0-2.772-.084-8.505l1.995-.168q.063,5.586.063,8.169t-.084,3.822a10.748,10.748,0,0,1-.4,2.31,7.29,7.29,0,0,1-1.921.64,11.489,11.489,0,0,1-2.4.263Zm12.957-2.226V17H381.6a3.865,3.865,0,0,1-3.318-1.281,6.367,6.367,0,0,1-.945-3.8V1.964l1.995-.168v9.765a3.724,3.724,0,0,0,.651,2.489,2.666,2.666,0,0,0,2.079.724Zm0,2.226q-.252,0-.409-.326a2.047,2.047,0,0,1,0-1.575q.157-.326.409-.325h.4q1.554,0,2.667-.105a3.965,3.965,0,0,1-1.638-3.3,4.065,4.065,0,0,1,1.124-3.024,3.929,3.929,0,0,1,2.887-1.113,8.5,8.5,0,0,1,3.591.882l-.567,1.7a7.382,7.382,0,0,0-2.667-.588,2.557,2.557,0,0,0-1.753.62,2.088,2.088,0,0,0-.7,1.648,2.723,2.723,0,0,0,.809,2.005,2.354,2.354,0,0,0,1.648.809,22.143,22.143,0,0,0,4.2-1.029l.462,1.89a33.421,33.421,0,0,1-5.135,1.417,28.65,28.65,0,0,1-5.05.41ZM417.66,3.539l1.365,1.2-1.134,1.281-1.344-1.155Zm1.617,2.289,1.428,1.239-1.2,1.344-1.407-1.2Zm-2.9.1,1.428,1.239-1.2,1.344-1.407-1.2ZM405.5,21.809a5.988,5.988,0,0,1-4.179-1.323,4.726,4.726,0,0,1-1.449-3.675,10.959,10.959,0,0,1,1.281-5l1.6.63a9.179,9.179,0,0,0-.882,3.738q0,3.4,4.011,3.4a5.622,5.622,0,0,0,3.5-.987,3.16,3.16,0,0,0,1.292-2.646,16.957,16.957,0,0,0-.924-5.04L411.7,10.3a23.1,23.1,0,0,1,.861,4.053,4.064,4.064,0,0,0,1.953.441,3.257,3.257,0,0,0,1.848-.5,1.7,1.7,0,0,0,.756-1.512V10.511l1.806-.126v2.5a1.689,1.689,0,0,0,1.932,1.89,4.754,4.754,0,0,0,2.037-.462v-.273a17.606,17.606,0,0,0-.588-4.095L424.17,9.5a14.626,14.626,0,0,1,.462,3.549,10.126,10.126,0,0,1-.378,3,7.288,7.288,0,0,1-3.528.966,3.039,3.039,0,0,1-2.793-1.3q-.966,1.407-3.528,1.407a7.386,7.386,0,0,1-1.911-.252,5.366,5.366,0,0,1-2.163,3.633A8.034,8.034,0,0,1,405.5,21.809ZM428.622,5.261l1.554,1.365-1.3,1.449-1.533-1.3Zm2.31,9.366A8.13,8.13,0,0,1,429.5,19.7a4.811,4.811,0,0,1-4.053,1.858,8.715,8.715,0,0,1-1.743-.189l.21-1.869a5.582,5.582,0,0,0,1.134.1,4.042,4.042,0,0,0,1.869-.41,3.166,3.166,0,0,0,1.249-1.113,5.4,5.4,0,0,0,.672-1.523,6.765,6.765,0,0,0,.221-1.764,20.3,20.3,0,0,0-.8-4.7l2.016-.567A21.342,21.342,0,0,1,430.932,14.627Zm7.224.147h1.89a6.82,6.82,0,0,0-.746-3.224,2.232,2.232,0,0,0-1.984-1.417,1.877,1.877,0,0,0-1.638.808,3.056,3.056,0,0,0-.567,1.8,1.8,1.8,0,0,0,.672,1.523A4.046,4.046,0,0,0,438.156,14.774Zm-2.667,6.846a8.686,8.686,0,0,1-2.268-.294l.21-1.848a9.44,9.44,0,0,0,1.848.168,5.123,5.123,0,0,0,3.223-.882,3.552,3.552,0,0,0,1.376-2.037q-1.26.084-2.247.084a4.426,4.426,0,0,1-3.307-1,3.88,3.88,0,0,1-.935-2.762,5.443,5.443,0,0,1,1.124-3.507A3.531,3.531,0,0,1,437.4,8.138a3.709,3.709,0,0,1,3.192,1.785,8.491,8.491,0,0,1,1.218,4.851h1.407V17h-1.638a5.643,5.643,0,0,1-2.026,3.434A6.489,6.489,0,0,1,435.489,21.62Zm15.939-6.636a9.879,9.879,0,0,0,1.344-.084,8.087,8.087,0,0,0,.126-1.3,4.02,4.02,0,0,0-.567-2.247,1.787,1.787,0,0,0-1.575-.861,2.065,2.065,0,0,0-1.439.567,8.08,8.08,0,0,0-1.439,2.184l-.483.924A8.957,8.957,0,0,0,451.428,14.984Zm-.378,2.037a8.776,8.776,0,0,1-4.809-1.2A3.733,3.733,0,0,1,443.406,17h-.189q-.252,0-.409-.326a2.047,2.047,0,0,1,0-1.575q.157-.326.409-.325h.294a2.129,2.129,0,0,0,1.69-.683,12.067,12.067,0,0,0,1.46-2.425A8.015,8.015,0,0,1,448.4,9.272a3.575,3.575,0,0,1,2.415-.777,3.332,3.332,0,0,1,2.8,1.375,5.532,5.532,0,0,1,1.04,3.434,8.7,8.7,0,0,1-.63,3.339A9.662,9.662,0,0,1,451.05,17.021ZM461.7,1.334l.483,1.092a3.422,3.422,0,0,1-2.1.672,6.378,6.378,0,0,1-1.732-.336,6.4,6.4,0,0,0-1.5-.336,1.91,1.91,0,0,0-1.344.651l-.819-.882a2.672,2.672,0,0,1,2.184-1.26,6.789,6.789,0,0,1,1.638.357,6.738,6.738,0,0,0,1.722.357A3.42,3.42,0,0,0,461.7,1.334ZM459.429,17h-1.974V4.169l1.974-.189Zm18.354,0h-.84q-2.436,0-3.171-1.68a20.01,20.01,0,0,1-2.163.126,6.518,6.518,0,0,1-3.3-.7,2.311,2.311,0,0,1-1.2-2.132A4.929,4.929,0,0,1,469.5,8.38a9.865,9.865,0,0,1,5.7-1.628v6.09a1.892,1.892,0,0,0,.5,1.5,2.84,2.84,0,0,0,1.806.431h.273Zm-5.8-3.507q.672,0,1.428-.063V8.873a6.194,6.194,0,0,0-3.339,1.2,2.734,2.734,0,0,0-1.281,2.037q0,.63.809,1.008A5.843,5.843,0,0,0,471.987,13.493Zm18.5,3.57a3.1,3.1,0,0,1-2.835-1.323,2.9,2.9,0,0,1-1.48,1.05,6.185,6.185,0,0,1-2.026.336,5.308,5.308,0,0,1-3.318-.966,4.341,4.341,0,0,1-2.793.84h-.252q-.252,0-.409-.326a2.047,2.047,0,0,1,0-1.575q.157-.326.409-.325h.588a2.29,2.29,0,0,0,1.575-.472,2.58,2.58,0,0,0,.609-1.774l.126-1.617,1.785-.147-.105,1.89a6.719,6.719,0,0,1-.273,1.6,3.993,3.993,0,0,0,2.142.546,3.308,3.308,0,0,0,1.859-.5,1.689,1.689,0,0,0,.766-1.512v-2.2l1.785-.126v2.436a1.7,1.7,0,0,0,1.953,1.89q2.037,0,2.037-1.848V10.259l1.785-.168v2.73a7.781,7.781,0,0,1-.1,1.281,4.886,4.886,0,0,0,2.94.672h.231V17h-.4a6.112,6.112,0,0,1-3.591-1.071A3.77,3.77,0,0,1,490.488,17.063Zm19.677-.042a3.039,3.039,0,0,1-2.793-1.3q-.966,1.407-3.528,1.407a5.308,5.308,0,0,1-3.318-.966,4.341,4.341,0,0,1-2.793.84h-.252q-.252,0-.409-.326a2.047,2.047,0,0,1,0-1.575q.157-.326.409-.325h.588a2.29,2.29,0,0,0,1.575-.472,2.58,2.58,0,0,0,.609-1.774l.126-1.6,1.785-.168-.105,1.89a6.719,6.719,0,0,1-.273,1.6,4.035,4.035,0,0,0,2.163.546,3.257,3.257,0,0,0,1.848-.5,1.7,1.7,0,0,0,.756-1.512V10.511l1.806-.126v2.5a1.689,1.689,0,0,0,1.932,1.89,4.754,4.754,0,0,0,2.037-.462v-.273a17.6,17.6,0,0,0-.588-4.095l1.869-.441a14.627,14.627,0,0,1,.462,3.549,10.125,10.125,0,0,1-.378,3A7.289,7.289,0,0,1,510.165,17.021ZM522.891,5.765a24.911,24.911,0,0,0-4.473,1.26l-.336-1.008q1.008-.42,1.407-.546a1.907,1.907,0,0,1-.9-1.7,1.836,1.836,0,0,1,.588-1.46,2.152,2.152,0,0,1,1.47-.514,3.538,3.538,0,0,1,1.638.4l-.378.966a3.429,3.429,0,0,0-1.176-.231,1.229,1.229,0,0,0-.787.241.8.8,0,0,0-.3.662,1.06,1.06,0,0,0,.357.8,1.383,1.383,0,0,0,.987.336q.168,0,1.7-.273Zm-1.47,9.009h1.89a6.82,6.82,0,0,0-.745-3.224,2.232,2.232,0,0,0-1.984-1.417,1.877,1.877,0,0,0-1.638.808,3.056,3.056,0,0,0-.567,1.8,1.8,1.8,0,0,0,.672,1.523A4.046,4.046,0,0,0,521.421,14.774Zm-2.667,6.846a8.686,8.686,0,0,1-2.268-.294l.21-1.848a9.439,9.439,0,0,0,1.848.168,5.123,5.123,0,0,0,3.224-.882,3.552,3.552,0,0,0,1.375-2.037q-1.26.084-2.247.084a4.426,4.426,0,0,1-3.308-1,3.881,3.881,0,0,1-.934-2.762,5.443,5.443,0,0,1,1.123-3.507,3.531,3.531,0,0,1,2.888-1.407,3.709,3.709,0,0,1,3.192,1.785,8.492,8.492,0,0,1,1.218,4.851h1.407V17h-1.638a5.643,5.643,0,0,1-2.027,3.434A6.489,6.489,0,0,1,518.754,21.62Zm15.939-6.636a9.88,9.88,0,0,0,1.344-.084,8.084,8.084,0,0,0,.126-1.3,4.02,4.02,0,0,0-.567-2.247,1.787,1.787,0,0,0-1.575-.861,2.065,2.065,0,0,0-1.438.567,8.08,8.08,0,0,0-1.439,2.184l-.483.924A8.957,8.957,0,0,0,534.693,14.984Zm-.378,2.037a8.776,8.776,0,0,1-4.809-1.2A3.733,3.733,0,0,1,526.671,17h-.189q-.252,0-.409-.326a2.047,2.047,0,0,1,0-1.575q.157-.326.409-.325h.294a2.129,2.129,0,0,0,1.69-.683,12.068,12.068,0,0,0,1.459-2.425,8.016,8.016,0,0,1,1.743-2.394,3.575,3.575,0,0,1,2.415-.777,3.332,3.332,0,0,1,2.8,1.375,5.532,5.532,0,0,1,1.039,3.434,8.7,8.7,0,0,1-.63,3.339A9.662,9.662,0,0,1,534.315,17.021Zm-343.9,35.8a1.327,1.327,0,0,1-.48.97,1.5,1.5,0,0,1-1.1.27,1.481,1.481,0,0,1-1.05-.47,1.329,1.329,0,0,1-.27-1.07,1.292,1.292,0,0,1,1.6-1.24,1.444,1.444,0,0,1,1.04.47A1.351,1.351,0,0,1,190.412,52.82Zm12-6.72-1.6-1.34-1.24,1.4-1.68-1.4,1.4-1.62,1.6,1.38,1.24-1.44,1.68,1.44Zm7.66,7.9a5.87,5.87,0,0,1-3.86-1.12q-1.84,1.32-6.84,1.32a15.366,15.366,0,0,1-3.46-.33,4.831,4.831,0,0,1-2.12-.97,3.6,3.6,0,0,1-1.01-1.4,5.045,5.045,0,0,1-.29-1.8,12.124,12.124,0,0,1,.74-3.82l2.18.44a10.561,10.561,0,0,0-.34,2.38,2.6,2.6,0,0,0,.35,1.46,2.512,2.512,0,0,0,1.44.83,11.991,11.991,0,0,0,3.11.31,24.929,24.929,0,0,0,2.81-.13,4.683,4.683,0,0,0,1.62-.41,1.783,1.783,0,0,0,.68-.56,1.328,1.328,0,0,0,.17-.7V46.68l2.42-.18v3.24a4.306,4.306,0,0,1-.08.88,7.023,7.023,0,0,0,2.88.5h.2V54Zm16.06-.96a7.173,7.173,0,0,1-3.56.98,3.4,3.4,0,0,1-2.72-1.04,3.949,3.949,0,0,1-3.18,1.12,5.352,5.352,0,0,1-3.14-.88,4.333,4.333,0,0,1-2.64.78h-.22q-.26,0-.45-.42a2.833,2.833,0,0,1,0-2.04q.19-.42.45-.42h.54a1.8,1.8,0,0,0,1.27-.4,2.327,2.327,0,0,0,.53-1.5l.1-1.42,2.26-.18-.1,1.64a9.14,9.14,0,0,1-.18,1.4,3.4,3.4,0,0,0,1.68.4,2.513,2.513,0,0,0,1.46-.4,1.423,1.423,0,0,0,.58-1.26V47.5l2.28-.16v2.32q0,1.46,1.56,1.46a4.287,4.287,0,0,0,1.68-.32,20.844,20.844,0,0,0-.58-3.86l2.38-.52a14.544,14.544,0,0,1,.42,3.28A10.962,10.962,0,0,1,226.132,53.04Zm5.36.96h-2.54V39.72l2.54-.22Zm15.62-13.92,1.84,1.58-1.52,1.72-1.84-1.52Zm-2.66,11.06a21.426,21.426,0,0,0,5.7-.58,3.32,3.32,0,0,0-.76-2.32,2.576,2.576,0,0,0-1.96-.78,4.588,4.588,0,0,0-2.64.85,11.3,11.3,0,0,0-2.62,2.79Q243.572,51.14,244.452,51.14Zm-.36,2.94a46.255,46.255,0,0,1-6.08-.4l.04-2.82q.64.06,1.66.12a7.7,7.7,0,0,0,.58-3.38V39.74l2.54-.22V44.3a14.9,14.9,0,0,1-.4,3.5,6.516,6.516,0,0,1,5.44-3.06,4.329,4.329,0,0,1,3.31,1.33,4.889,4.889,0,0,1,1.25,3.49,8.853,8.853,0,0,1-.6,3.28Q249.412,54.08,244.092,54.08Zm15.2-2.96h1.44a5.56,5.56,0,0,0-.67-2.44,1.829,1.829,0,0,0-1.63-1.12,1.489,1.489,0,0,0-1.28.6,2.242,2.242,0,0,0-.44,1.36,1.359,1.359,0,0,0,.59,1.19A3.616,3.616,0,0,0,259.292,51.12Zm-2.56,7.12a8.8,8.8,0,0,1-2.2-.3l.24-2.38a8.822,8.822,0,0,0,1.6.14,5.309,5.309,0,0,0,2.8-.64,3.027,3.027,0,0,0,1.34-1.44,18.385,18.385,0,0,1-2.08.1,3.836,3.836,0,0,1-3.03-1.01,4.1,4.1,0,0,1-.87-2.77,5.463,5.463,0,0,1,1.15-3.52,3.552,3.552,0,0,1,2.89-1.44,3.759,3.759,0,0,1,3.13,1.64,7.624,7.624,0,0,1,1.29,4.5h1.16V54h-1.48Q261.512,58.24,256.732,58.24Zm12.62-18.48,1.84,1.58-1.52,1.72-1.84-1.52Zm-1.76,8.3q0,1.4,1.88,2.44,2.02-.92,2.02-2.16a1.7,1.7,0,0,0-.58-1.32,2.133,2.133,0,0,0-1.48-.52,1.928,1.928,0,0,0-1.31.46A1.41,1.41,0,0,0,267.592,48.06ZM264.152,54q-.26,0-.45-.42a2.833,2.833,0,0,1,0-2.04q.19-.42.45-.42h.5a17.048,17.048,0,0,0,2.06-.14,4.158,4.158,0,0,1-1.16-2.94,3.9,3.9,0,0,1,1.18-3.06,4.209,4.209,0,0,1,2.92-1.06,4.065,4.065,0,0,1,2.83,1.04,3.637,3.637,0,0,1,1.15,2.84,4.345,4.345,0,0,1-1.34,3.18,19.1,19.1,0,0,0,2.2.14h.64V54h-1.18a10.805,10.805,0,0,1-4.68-.84,12.6,12.6,0,0,1-4.68.84Zm10.98,0q-.26,0-.45-.42a2.833,2.833,0,0,1,0-2.04q.19-.42.45-.42h.76a42.025,42.025,0,0,0,7.44-.52q-3.02-2.88-4.1-2.88a1.3,1.3,0,0,0-.76.21,2.5,2.5,0,0,0-.64.81l-1.78-.68a5.429,5.429,0,0,1,1.38-2.23,2.841,2.841,0,0,1,1.92-.69q1.52,0,3.96,2.12.42.36,2.14,1.94a10.088,10.088,0,0,0,2.03,1.57,4.307,4.307,0,0,0,1.89.35h.3V54h-.42a5.256,5.256,0,0,1-3.7-1.3,38.488,38.488,0,0,1-10.14,1.3Zm21.76-2.62q.62,0,1.22-.06a6.858,6.858,0,0,0,.08-1,3.058,3.058,0,0,0-.44-1.71,1.4,1.4,0,0,0-1.24-.67,1.733,1.733,0,0,0-1.26.51,8.761,8.761,0,0,0-1.32,2.09q-.14.28-.16.34A8.7,8.7,0,0,0,296.892,51.38Zm-.46,2.64a8.171,8.171,0,0,1-4.14-1,3.336,3.336,0,0,1-2.46.98h-.16q-.26,0-.45-.42a2.833,2.833,0,0,1,0-2.04q.19-.42.45-.42h.34a1.529,1.529,0,0,0,1.23-.56,9.525,9.525,0,0,0,1.09-1.82l.06-.12.05-.1a.919.919,0,0,0,.05-.12,7.767,7.767,0,0,1,1.67-2.28,3.559,3.559,0,0,1,2.43-.78,3.355,3.355,0,0,1,2.76,1.34,5.153,5.153,0,0,1,1.06,3.3,9.028,9.028,0,0,1-.68,3.6A10.228,10.228,0,0,1,296.432,54.02Zm16.62,4.08a6.249,6.249,0,0,1-4.32-1.32,4.809,4.809,0,0,1-1.46-3.76,10.448,10.448,0,0,1,1.22-4.72l1.96.8a9.027,9.027,0,0,0-.7,3.16,2.771,2.771,0,0,0,.91,2.27,4.444,4.444,0,0,0,2.85.75,7.312,7.312,0,0,0,2.72-.47,3.058,3.058,0,0,0,1.64-1.31,10.17,10.17,0,0,0-1.32-.8q-.74-.38-1.83-.87t-1.67-.77q-.04-.76-.04-1.06a7.811,7.811,0,0,1,.45-2.77,4.5,4.5,0,0,1,1.21-1.85,5.053,5.053,0,0,1,1.64-.97,5.618,5.618,0,0,1,1.88-.31,4.57,4.57,0,0,1,1.54.27,4.018,4.018,0,0,1,1.2.63l-1.04,2.52a4.029,4.029,0,0,0-2.2-.62,2.547,2.547,0,0,0-1.56.46,2.932,2.932,0,0,0-.92,1.74q1.42.6,2.07.9a15.654,15.654,0,0,1,1.55.85,8.79,8.79,0,0,1,1.54,1.17,5.421,5.421,0,0,1-2.03,4.53A8.428,8.428,0,0,1,313.052,58.1Zm14.3-6.98h1.44a5.56,5.56,0,0,0-.67-2.44,1.829,1.829,0,0,0-1.63-1.12,1.489,1.489,0,0,0-1.28.6,2.242,2.242,0,0,0-.44,1.36,1.359,1.359,0,0,0,.59,1.19A3.616,3.616,0,0,0,327.352,51.12Zm-2.56,7.12a8.8,8.8,0,0,1-2.2-.3l.24-2.38a8.822,8.822,0,0,0,1.6.14,5.309,5.309,0,0,0,2.8-.64,3.027,3.027,0,0,0,1.34-1.44,18.385,18.385,0,0,1-2.08.1,3.836,3.836,0,0,1-3.03-1.01,4.105,4.105,0,0,1-.87-2.77,5.463,5.463,0,0,1,1.15-3.52,3.552,3.552,0,0,1,2.89-1.44,3.759,3.759,0,0,1,3.13,1.64,7.624,7.624,0,0,1,1.29,4.5h1.16V54h-1.48Q329.572,58.24,324.792,58.24Zm9.24-16.04,1.84,1.58-1.52,1.72-1.84-1.52ZM332.212,54q-.26,0-.45-.42a2.833,2.833,0,0,1,0-2.04q.19-.42.45-.42h.3a3.752,3.752,0,0,0,2.15-.42,1.464,1.464,0,0,0,.53-1.22v-2.8l2.4-.18v2.72a9.275,9.275,0,0,1-.12,1.56,8.722,8.722,0,0,0,2.6.34h.12V54h-.54a5.724,5.724,0,0,1-3.44-.92,5.355,5.355,0,0,1-3.44.92Zm14.32-7.14a14.006,14.006,0,0,0-2.36.22,7.648,7.648,0,0,0,2.62,3.04,7.912,7.912,0,0,0,2.54-2.86A9.737,9.737,0,0,0,346.532,46.86ZM340.192,54q-.26,0-.45-.42a2.833,2.833,0,0,1,0-2.04q.19-.42.45-.42h.44a15.139,15.139,0,0,0,3.6-.38,8.736,8.736,0,0,1-1.86-2.4,6.949,6.949,0,0,1-.84-3.1,17.016,17.016,0,0,1,5.2-.76,11.212,11.212,0,0,1,5.22,1.06,9.038,9.038,0,0,1-2.84,5.28,13.943,13.943,0,0,0,3,.3h1.12V54h-.98a11.17,11.17,0,0,1-5.64-1.32,12.818,12.818,0,0,1-5.92,1.32Zm20.26-2.62q.62,0,1.22-.06a6.858,6.858,0,0,0,.08-1,3.058,3.058,0,0,0-.44-1.71,1.4,1.4,0,0,0-1.24-.67,1.733,1.733,0,0,0-1.26.51,8.761,8.761,0,0,0-1.32,2.09q-.14.28-.16.34A8.7,8.7,0,0,0,360.452,51.38Zm-.46,2.64a8.171,8.171,0,0,1-4.14-1,3.336,3.336,0,0,1-2.46.98h-.16q-.26,0-.45-.42a2.833,2.833,0,0,1,0-2.04q.19-.42.45-.42h.34a1.529,1.529,0,0,0,1.23-.56,9.525,9.525,0,0,0,1.09-1.82l.06-.12.05-.1a.919.919,0,0,0,.05-.12,7.767,7.767,0,0,1,1.67-2.28,3.559,3.559,0,0,1,2.43-.78,3.355,3.355,0,0,1,2.76,1.34,5.153,5.153,0,0,1,1.06,3.3,9.028,9.028,0,0,1-.68,3.6A10.228,10.228,0,0,1,359.992,54.02Zm15.32-2.88a6.408,6.408,0,0,0,1.52-.18,5.286,5.286,0,0,0-.69-2.34,1.808,1.808,0,0,0-1.59-1.06,1.489,1.489,0,0,0-1.28.6,2.242,2.242,0,0,0-.44,1.36,1.41,1.41,0,0,0,.56,1.2A3.3,3.3,0,0,0,375.312,51.14Zm-2.46,7.1a8.8,8.8,0,0,1-2.2-.3l.24-2.38a8.822,8.822,0,0,0,1.6.14,5.15,5.15,0,0,0,2.99-.75,2.662,2.662,0,0,0,1.23-1.65,6.2,6.2,0,0,1-2.34.42q-3.72,0-3.72-3.78a5.443,5.443,0,0,1,1.15-3.54,3.569,3.569,0,0,1,2.89-1.42,3.777,3.777,0,0,1,3.19,1.75,7.838,7.838,0,0,1,1.25,4.65,7.33,7.33,0,0,1-1.61,5.06A5.94,5.94,0,0,1,372.852,58.24Zm19-.14a6.249,6.249,0,0,1-4.32-1.32,4.809,4.809,0,0,1-1.46-3.76,10.448,10.448,0,0,1,1.22-4.72l1.96.8a9.027,9.027,0,0,0-.7,3.16,2.771,2.771,0,0,0,.91,2.27,4.444,4.444,0,0,0,2.85.75,7.312,7.312,0,0,0,2.72-.47,3.058,3.058,0,0,0,1.64-1.31,10.17,10.17,0,0,0-1.32-.8q-.74-.38-1.83-.87t-1.67-.77q-.04-.76-.04-1.06a7.811,7.811,0,0,1,.45-2.77,4.5,4.5,0,0,1,1.21-1.85,5.053,5.053,0,0,1,1.64-.97,5.618,5.618,0,0,1,1.88-.31,4.57,4.57,0,0,1,1.54.27,4.018,4.018,0,0,1,1.2.63l-1.04,2.52a4.029,4.029,0,0,0-2.2-.62,2.547,2.547,0,0,0-1.56.46,2.932,2.932,0,0,0-.92,1.74q1.42.6,2.07.9a15.654,15.654,0,0,1,1.55.85,8.79,8.79,0,0,1,1.54,1.17,5.421,5.421,0,0,1-2.03,4.53A8.428,8.428,0,0,1,391.852,58.1Zm11.8-3.9a20.06,20.06,0,0,1-2.64-.16V51.26q1.6.12,2.96.12a15.615,15.615,0,0,0,3-.26,8.42,8.42,0,0,0-1.18-2.73,13.65,13.65,0,0,0-2.24-2.51l1.82-1.94a9.756,9.756,0,0,1,3.76,7.5,11.388,11.388,0,0,1-.18,1.82A11.472,11.472,0,0,1,403.652,54.2Zm12.76-3.08V54h-.82a3.689,3.689,0,0,1-3.14-1.22,5.885,5.885,0,0,1-.92-3.58V39.72l2.54-.22v9.18a2.732,2.732,0,0,0,.52,1.88,2.084,2.084,0,0,0,1.6.56Zm7.22.26q.62,0,1.22-.06a6.858,6.858,0,0,0,.08-1,3.058,3.058,0,0,0-.44-1.71,1.4,1.4,0,0,0-1.24-.67,1.733,1.733,0,0,0-1.26.51,8.761,8.761,0,0,0-1.32,2.09q-.14.28-.16.34A8.7,8.7,0,0,0,423.632,51.38Zm-.46,2.64a8.171,8.171,0,0,1-4.14-1,3.336,3.336,0,0,1-2.46.98h-.16q-.26,0-.45-.42a2.833,2.833,0,0,1,0-2.04q.19-.42.45-.42h.34a1.529,1.529,0,0,0,1.23-.56,9.525,9.525,0,0,0,1.09-1.82l.06-.12.05-.1a.919.919,0,0,0,.05-.12,7.767,7.767,0,0,1,1.67-2.28,3.559,3.559,0,0,1,2.43-.78,3.355,3.355,0,0,1,2.76,1.34,5.153,5.153,0,0,1,1.06,3.3,9.028,9.028,0,0,1-.68,3.6A10.228,10.228,0,0,1,423.172,54.02ZM444.332,44l-1.6-1.34-1.24,1.4-1.68-1.4,1.4-1.62,1.6,1.38,1.24-1.44,1.68,1.44Zm-.9,7.12a6.494,6.494,0,0,0,1.54-.18,5.18,5.18,0,0,0-.7-2.32,1.816,1.816,0,0,0-1.58-1.06,1.489,1.489,0,0,0-1.28.6,2.242,2.242,0,0,0-.44,1.36,1.384,1.384,0,0,0,.56,1.19A3.316,3.316,0,0,0,443.432,51.12Zm-3.6,7.36a6.191,6.191,0,0,1-4.36-1.36,4.99,4.99,0,0,1-1.46-3.84,12.321,12.321,0,0,1,.84-4.24l2.06.6a10.81,10.81,0,0,0-.44,2.82,3.083,3.083,0,0,0,.88,2.4,4.369,4.369,0,0,0,2.96.8,6.121,6.121,0,0,0,3.14-.7,2.626,2.626,0,0,0,1.38-1.66,6.2,6.2,0,0,1-2.34.42,3.607,3.607,0,0,1-2.84-.98,4.114,4.114,0,0,1-.86-2.8,5.443,5.443,0,0,1,1.15-3.54,3.569,3.569,0,0,1,2.89-1.42A3.755,3.755,0,0,1,446,46.74a7.848,7.848,0,0,1,1.25,4.64,6.964,6.964,0,0,1-1.92,5.23A7.562,7.562,0,0,1,439.832,58.48Zm14.24-7.36h1.44a5.56,5.56,0,0,0-.67-2.44,1.829,1.829,0,0,0-1.63-1.12,1.489,1.489,0,0,0-1.28.6,2.242,2.242,0,0,0-.44,1.36,1.359,1.359,0,0,0,.59,1.19A3.616,3.616,0,0,0,454.072,51.12Zm-2.56,7.12a8.8,8.8,0,0,1-2.2-.3l.24-2.38a8.822,8.822,0,0,0,1.6.14,5.309,5.309,0,0,0,2.8-.64,3.027,3.027,0,0,0,1.34-1.44,18.385,18.385,0,0,1-2.08.1,3.836,3.836,0,0,1-3.03-1.01,4.105,4.105,0,0,1-.87-2.77,5.463,5.463,0,0,1,1.15-3.52,3.552,3.552,0,0,1,2.89-1.44,3.759,3.759,0,0,1,3.13,1.64,7.624,7.624,0,0,1,1.29,4.5h1.16V54h-1.48Q456.292,58.24,451.512,58.24Zm14.42-15.38-1.6-1.34-1.24,1.4-1.68-1.4,1.4-1.62,1.6,1.38,1.24-1.44,1.68,1.44Zm-3.56,5.2q0,1.4,1.88,2.44,2.02-.92,2.02-2.16a1.7,1.7,0,0,0-.58-1.32,2.133,2.133,0,0,0-1.48-.52,1.928,1.928,0,0,0-1.31.46A1.41,1.41,0,0,0,462.372,48.06ZM458.932,54q-.26,0-.45-.42a2.833,2.833,0,0,1,0-2.04q.19-.42.45-.42h.5a17.048,17.048,0,0,0,2.06-.14,4.158,4.158,0,0,1-1.16-2.94,3.9,3.9,0,0,1,1.18-3.06,4.209,4.209,0,0,1,2.92-1.06,4.065,4.065,0,0,1,2.83,1.04,3.637,3.637,0,0,1,1.15,2.84,4.345,4.345,0,0,1-1.34,3.18,19.1,19.1,0,0,0,2.2.14h.64V54h-1.18a10.805,10.805,0,0,1-4.68-.84,12.6,12.6,0,0,1-4.68.84Zm10.98,0q-.26,0-.45-.42a2.833,2.833,0,0,1,0-2.04q.19-.42.45-.42h.74a36.579,36.579,0,0,0,8.16-.98q-.3-.2-.94-.62t-.92-.6q-.28-.18-.77-.46a7.37,7.37,0,0,0-.78-.4,5.681,5.681,0,0,0-.65-.22,2.544,2.544,0,0,0-.68-.1,1.578,1.578,0,0,0-1.36,1.04l-1.86-.66a5.494,5.494,0,0,1,1.37-2.23,2.831,2.831,0,0,1,1.93-.69,5.465,5.465,0,0,1,2.48.65,23.517,23.517,0,0,1,3.01,1.9q1.73,1.25,2.61,1.75l-.22,2.16a19.434,19.434,0,0,0-2.5.76,31.126,31.126,0,0,1-4.15,1.11,26.215,26.215,0,0,1-5.17.47Zm24.42,4.36a6.321,6.321,0,0,1-4.23-1.26,4.434,4.434,0,0,1-1.47-3.56,11.112,11.112,0,0,1,1.32-4.94l2,.8a9.652,9.652,0,0,0-.78,3.38q0,2.84,3.7,2.84,3.3,0,4.16-1.88a21.829,21.829,0,0,1-3.42-.88l.52-2.52a22.123,22.123,0,0,0,5.68.78h.3V54h-.26q-.48,0-.72-.02a4.836,4.836,0,0,1-2.15,3.18A8.142,8.142,0,0,1,494.332,58.36Zm15-6.98q.62,0,1.22-.06a6.858,6.858,0,0,0,.08-1,3.058,3.058,0,0,0-.44-1.71,1.4,1.4,0,0,0-1.24-.67,1.733,1.733,0,0,0-1.26.51,8.761,8.761,0,0,0-1.32,2.09q-.14.28-.16.34A8.7,8.7,0,0,0,509.332,51.38Zm-.46,2.64a8.171,8.171,0,0,1-4.14-1,3.336,3.336,0,0,1-2.46.98h-.16q-.26,0-.45-.42a2.833,2.833,0,0,1,0-2.04q.19-.42.45-.42h.34a1.529,1.529,0,0,0,1.23-.56,9.525,9.525,0,0,0,1.09-1.82l.06-.12.05-.1a.919.919,0,0,0,.05-.12,7.767,7.767,0,0,1,1.67-2.28,3.559,3.559,0,0,1,2.43-.78,3.355,3.355,0,0,1,2.76,1.34,5.153,5.153,0,0,1,1.06,3.3,9.029,9.029,0,0,1-.68,3.6A10.228,10.228,0,0,1,508.872,54.02Zm11.24-2.9V54h-.82a3.689,3.689,0,0,1-3.14-1.22,5.884,5.884,0,0,1-.92-3.58V39.72l2.54-.22v9.18a2.732,2.732,0,0,0,.52,1.88,2.084,2.084,0,0,0,1.6.56Zm6.94.26a5.221,5.221,0,0,0,1.84-.3,10.672,10.672,0,0,0-.81-2.44,1.26,1.26,0,0,0-1.17-.7,1.676,1.676,0,0,0-1.23.51,9.039,9.039,0,0,0-1.31,2.09l-.18.36A8.094,8.094,0,0,0,527.052,51.38Zm5.52,2.62a3.845,3.845,0,0,1-2.58-.76,6.475,6.475,0,0,1-3.24.78,7.812,7.812,0,0,1-4.04-.96,3.431,3.431,0,0,1-2.44.94h-.16q-.26,0-.45-.42a2.833,2.833,0,0,1,0-2.04q.19-.42.45-.42h.34a1.524,1.524,0,0,0,1.36-.7,6.759,6.759,0,0,0,.47-.7q.17-.3.51-1a.983.983,0,0,0,.06-.1l.05-.1a.919.919,0,0,0,.05-.12,7.767,7.767,0,0,1,1.67-2.28,3.528,3.528,0,0,1,2.41-.78q2.76,0,3.7,3.9a3.226,3.226,0,0,0,.63,1.52,1.939,1.939,0,0,0,1.35.36h.44V54Zm4.08-9.12-1.6-1.34-1.24,1.4-1.68-1.4,1.4-1.62,1.6,1.38,1.24-1.44,1.68,1.44Zm-3.5,9.12q-.26,0-.45-.42a2.833,2.833,0,0,1,0-2.04q.19-.42.45-.42h.14a8.881,8.881,0,0,0,2.64-.34,18.433,18.433,0,0,0-.58-4.56l2.36-.52a17.409,17.409,0,0,1,.44,3.94,10.881,10.881,0,0,1-.42,3.32,7.269,7.269,0,0,1-1.97.74,10.554,10.554,0,0,1-2.51.3Z" transform="translate(116 942.032)" fill="#ededed"/>
  </g>
</svg>
