<svg id="Clock" xmlns="http://www.w3.org/2000/svg" width="30.788" height="30.788" viewBox="0 0 30.788 30.788">
  <path id="Path_1639" data-name="Path 1639" d="M242.846,129.749l-4.293-3.219v-6.558a1.192,1.192,0,1,0-2.385,0v7.154a1.19,1.19,0,0,0,.477.954l4.77,3.577a1.192,1.192,0,0,0,1.431-1.908Z" transform="translate(-221.968 -111.637)" fill="#586c7e"/>
  <path id="Path_1640" data-name="Path 1640" d="M15.394,0A15.394,15.394,0,1,0,30.788,15.394,15.411,15.411,0,0,0,15.394,0Zm0,28.4A13.009,13.009,0,1,1,28.4,15.394,13.025,13.025,0,0,1,15.394,28.4Z" fill="#586c7e"/>
</svg>
