<svg xmlns="http://www.w3.org/2000/svg" width="13.64" height="15.836" viewBox="0 0 13.64 15.836">
  <g id="Group_649" data-name="Group 649" transform="translate(-35.5)">
    <path id="Path_6384" data-name="Path 6384" d="M48.057,0H38.595A3.1,3.1,0,0,0,35.5,3.095V13.222a2.617,2.617,0,0,0,2.614,2.614h9.944a1.084,1.084,0,0,0,1.083-1.083V1.083A1.084,1.084,0,0,0,48.057,0Zm.155,12.758H36.493a1.688,1.688,0,0,1,1.62-1.222h10.1ZM38.595.928h9.463a.155.155,0,0,1,.155.155v9.526h-10.1a2.6,2.6,0,0,0-1.686.619V3.095A2.169,2.169,0,0,1,38.595.928Zm9.463,13.98H38.114a1.688,1.688,0,0,1-1.62-1.222H48.212v1.067A.155.155,0,0,1,48.057,14.908Z" fill="#fff"/>
    <path id="Path_6385" data-name="Path 6385" d="M149.885,63.859a.464.464,0,0,0,.6-.268l.16-.419h1.124l.158.418a.464.464,0,1,0,.868-.328l-1.088-2.883,0-.013a.53.53,0,0,0-.981,0l0,.011-1.1,2.883a.464.464,0,0,0,.268.6Zm1.532-1.615H151l.211-.554Z" transform="translate(-110.558 -58.181)" fill="#fff"/>
    <path id="Path_6386" data-name="Path 6386" d="M269.794,192.288h1.95a.464.464,0,0,0,0-.928H270.65l1.438-2.207a.464.464,0,0,0-.389-.717h-1.845a.464.464,0,0,0,0,.928h.989l-1.438,2.207a.464.464,0,0,0,.389.717Z" transform="translate(-226.597 -182.608)" fill="#fff"/>
  </g>
</svg>
