<svg xmlns="http://www.w3.org/2000/svg" width="27.546" height="27.546" viewBox="0 0 27.546 27.546">
  <path id="Path_6418" data-name="Path 6418" d="M306.307,171.19H297.7a.861.861,0,0,0-.7,1.367l1.927,2.65L297,177.857a.861.861,0,0,0,.7,1.368h7.747v5.165H283.638a2.3,2.3,0,1,1,0-4.591h6.887a4.017,4.017,0,0,0,0-8.034h-3.071c1.529-1.67,3.644-4.5,3.644-7.388a5.739,5.739,0,1,0-11.478,0c0,4.421,4.967,8.722,5.18,8.9a.853.853,0,0,0,.559.207.844.844,0,0,0,.154-.027.805.805,0,0,0,.134.027h4.878a2.3,2.3,0,0,1,0,4.591h-6.887a4.017,4.017,0,1,0,0,8.034h22.669a.861.861,0,0,0,.86-.861v-13.2A.861.861,0,0,0,306.307,171.19Zm-24.964-6.815a4.018,4.018,0,1,1,8.034,0c0,2.849-2.8,5.884-4.017,7.075C284.139,170.259,281.343,167.224,281.343,164.376ZM299.389,177.5l1.3-1.79a.859.859,0,0,0,0-1.012l-1.3-1.789h6.057V177.5Z" transform="translate(-279.621 -158.565)" fill="#fff"/>
</svg>
