<svg id="Group_731" data-name="Group 731" xmlns="http://www.w3.org/2000/svg" width="32.766" height="29.439" viewBox="0 0 32.766 29.439">
  <path id="Path_6424" data-name="Path 6424" d="M347.8,308.808a.728.728,0,1,0,.728.728A.729.729,0,0,0,347.8,308.808Z" transform="translate(-331.417 -286.093)" fill="#fff"/>
  <path id="Path_6425" data-name="Path 6425" d="M358.319,285.489h-3.584v-1.6a34.921,34.921,0,0,1-5.44-3.52,2.231,2.231,0,0,0-1.6.673l-.017-.018a6.134,6.134,0,0,1-4.784-.656,2.242,2.242,0,0,0-2.24,2.24v2.88h-7.427a.582.582,0,0,0-.065,0l-.022,0-.047.008-.023.006-.046.014-.021.007a.531.531,0,0,0-.049.022l-.011,0-.01.006h0l-5.108,2.553a.64.64,0,0,0,0,1.145l5.108,2.553,0,0,.01,0,.01,0,.05.021.019.007.047.014.022,0a.472.472,0,0,0,.049.009l.02,0a.655.655,0,0,0,.069,0h4.517a4.471,4.471,0,0,0,1.019,1.577L341,295.7a3.176,3.176,0,0,1,.937,2.262v1.61h-.64a.64.64,0,0,0-.64.64v8.959a.64.64,0,0,0,.64.641h12.8a.64.64,0,0,0,.641-.641v-8.959a.64.64,0,0,0-.641-.64h-.64V297.8a5.46,5.46,0,0,1,.515-2.307,7.148,7.148,0,0,0,.765-3.057v-.546h3.584a1.922,1.922,0,0,0,1.919-1.919v-2.56A1.922,1.922,0,0,0,358.319,285.489Zm-6.784-1.6a.96.96,0,1,1,1.92,0v3.2a.96.96,0,1,1-1.92,0Zm-3.2,2.24v-3.52a.96.96,0,0,1,1.92,0v4.48a.96.96,0,0,1-1.92,0Zm-3.2-3.52a.96.96,0,1,1,1.919,0v2.88h-1.919Zm-3.2,0a.96.96,0,0,1,1.92,0v2.88h-1.92Zm-8.862,7.845-3.53-1.765,3.53-1.765A2.986,2.986,0,0,1,333.073,290.454Zm4.383-.485v.329c0,.1,0,.208.011.311h-2.993a4.282,4.282,0,0,0,0-3.84H338.8a4.59,4.59,0,0,0-.449.512A4.511,4.511,0,0,0,337.456,289.969Zm16,18.559h-11.52v-7.68h11.52Zm0-16.093a5.906,5.906,0,0,1-.643,2.513,6.746,6.746,0,0,0-.637,2.852v1.769h-8.959v-1.61a4.446,4.446,0,0,0-1.312-3.167l-2.231-2.231a3.2,3.2,0,0,1-.937-2.263v-.329a3.224,3.224,0,0,1,.64-1.92,3.189,3.189,0,0,1,2.034-1.236,3.243,3.243,0,0,1,.526-.044h5.039a2.563,2.563,0,0,1-2.479,1.92h-1.919a.64.64,0,0,0-.11,1.271,3.964,3.964,0,0,1,2.59,1.655l0,.006a3.972,3.972,0,0,1,.708,2.249l.006,1.223a.639.639,0,0,0,.64.637h0a.639.639,0,0,0,.637-.643l-.006-1.223a5.255,5.255,0,0,0-.394-1.974h6.8Zm2.944-1.826H345.9a5.225,5.225,0,0,0-.678-.708,3.819,3.819,0,0,0,1.986-1.057,3.861,3.861,0,0,0,.326-.371,7.448,7.448,0,0,1,4.959.856,2.243,2.243,0,0,0,2.24-2.24v-.32H356.4Zm2.56-.64a.641.641,0,0,1-.64.64h-.641v-3.84h.641a.641.641,0,0,1,.64.641Z" transform="translate(-327.472 -280.369)" fill="#fff"/>
  <path id="Path_6426" data-name="Path 6426" d="M351.448,308.808a.728.728,0,0,0,0,1.457h5.827a.728.728,0,0,0,0-1.457Z" transform="translate(-332.152 -286.093)" fill="#fff"/>
</svg>
