<svg id="Group_740" data-name="Group 740" xmlns="http://www.w3.org/2000/svg" width="32.633" height="27.693" viewBox="0 0 32.633 27.693">
  <g id="Group_736" data-name="Group 736" transform="translate(22.563)">
    <g id="Group_735" data-name="Group 735">
      <path id="Path_6439" data-name="Path 6439" d="M260.078,401.85a.5.5,0,0,0-.3-.3l-5.539-2.014a.5.5,0,0,0-.676.474v9.063h-3.021a.5.5,0,0,0-.5.5v4.532a.5.5,0,0,0,.5.5h7.049a.5.5,0,0,0,.5-.5v-4.532a.5.5,0,0,0-.5-.5H254.57v-4.683l5.207-1.893A.5.5,0,0,0,260.078,401.85Zm-2.991,8.229V413.6h-6.042v-3.524h2.517v2.014h1.007v-2.014Zm-2.518-6.761v-2.59l3.562,1.3Z" transform="translate(-250.038 -399.504)" fill="#fff"/>
    </g>
  </g>
  <g id="Group_738" data-name="Group 738" transform="translate(12.997 9.18)">
    <g id="Group_737" data-name="Group 737">
      <path id="Path_6440" data-name="Path 6440" d="M243.89,421.054h-5.539a2.014,2.014,0,0,1,0-4.028H242l-1.953,1.627.645.773,3.021-2.517a.5.5,0,0,0,.064-.709.552.552,0,0,0-.064-.065l-3.021-2.517-.645.773L242,416.019h-3.644a3.021,3.021,0,0,0,0,6.042h5.539a4.532,4.532,0,0,1,0,9.063h-8.559v1.007h8.559a5.539,5.539,0,1,0,0-11.077Z" transform="translate(-235.331 -413.618)" fill="#fff"/>
    </g>
  </g>
  <g id="Group_739" data-name="Group 739" transform="translate(0 13.595)">
    <path id="Path_6441" data-name="Path 6441" d="M227.434,431.619a2.526,2.526,0,0,0-2.019-2.468l-1.782-.358a1.007,1.007,0,0,1-.589-.462,2.529,2.529,0,0,0,.652-.877h.213a1.51,1.51,0,0,0,1.067-2.58,2.506,2.506,0,0,0-3.108-3.931,2.831,2.831,0,0,0-.42-.036H219.66a2.8,2.8,0,0,0-2.2,4.525,1.5,1.5,0,0,0-.095.511,1.512,1.512,0,0,0,1.51,1.511h.214a2.511,2.511,0,0,0,.653.878.971.971,0,0,1-.551.451l-1.821.367a2.526,2.526,0,0,0-2.019,2.468V434.5h12.084Zm-3.525-5.172V425.44a.5.5,0,0,1,0,1.007Zm-5.035,0a.5.5,0,0,1,0-1.007Zm.393-2.014h-.393a1.494,1.494,0,0,0-.74.2,1.781,1.781,0,0,1,1.526-2.719H221.1a2.492,2.492,0,0,0-.213,1.007H221.9a1.51,1.51,0,1,1,1.51,1.51h-.888a4.279,4.279,0,0,1-1.908-.451l-.107-.053h-.118A1.5,1.5,0,0,0,219.267,424.433Zm2.125,3.525a1.512,1.512,0,0,1-1.51-1.511V425.44a.5.5,0,0,1,.407-.494,5.3,5.3,0,0,0,2.229.494h.384v1.007A1.512,1.512,0,0,1,221.392,427.958Zm.99,1.17a1,1,0,0,1-1.98,0,1.98,1.98,0,0,0,.215-.3,2.291,2.291,0,0,0,1.551,0A1.982,1.982,0,0,0,222.382,429.128Zm4.045,4.368h-10.07v-1.877a1.515,1.515,0,0,1,1.211-1.48l1.86-.377c.034-.01.068-.025.1-.036a2.009,2.009,0,0,0,3.724,0c.047.018.092.036.141.051l1.821.367a1.516,1.516,0,0,1,1.212,1.48Z" transform="translate(-215.35 -420.405)" fill="#fff"/>
  </g>
</svg>
