<svg xmlns="http://www.w3.org/2000/svg" width="23.934" height="23.935" viewBox="0 0 23.934 23.935">
  <path id="Path_6442" data-name="Path 6442" d="M240.71,543.125l5.137-5.137a.7.7,0,0,0-.5-1.2h-7.56v-6.058a2.2,2.2,0,0,0-2.2-2.2h-9.214a2.2,2.2,0,1,0-2.753,1.288v18.942a.7.7,0,0,0,1.4,0V541.2h1.6v6.058a2.206,2.206,0,0,0,2.2,2.2h16.524a.7.7,0,0,0,.5-1.2Zm-16.388-14.6a.8.8,0,1,1,.8-.8A.8.8,0,0,1,224.322,528.529Zm.7,11.266v-9.864h10.565a.8.8,0,0,1,.8.8v9.212a2.2,2.2,0,0,0-.8-.15Zm11.366,2.2a.4.4,0,0,1-.252.367l-8.11,3.119V541.2h7.56a.8.8,0,0,1,.8.8Zm-7.56,6.058a.8.8,0,0,1-.8-.8.4.4,0,0,1,.252-.367l8.362-3.216A1.805,1.805,0,0,0,237.791,542v-3.806h5.868l-4.436,4.436a.7.7,0,0,0,0,.992l4.436,4.436Z" transform="translate(-222.118 -525.525)" fill="#fff"/>
</svg>
