<svg id="Group_729" data-name="Group 729" xmlns="http://www.w3.org/2000/svg" width="32.633" height="26.467" viewBox="0 0 32.633 26.467">
  <path id="Path_6419" data-name="Path 6419" d="M247.375,280.039h-1.353v-1.28a.478.478,0,0,0-.478-.478h-2.883a.478.478,0,0,0-.478.478v1.28H226.392v-1.28a.478.478,0,0,0-.478-.478h-2.883a.478.478,0,0,0-.478.478v1.28h-1.116a2.119,2.119,0,0,0-2.117,2.117v11.631a.478.478,0,1,0,.956,0V282.156a1.162,1.162,0,0,1,1.161-1.16h25.938a.926.926,0,0,1,.925.924v15.808a.926.926,0,0,1-.925.924h-1.018v-1.809a.478.478,0,0,0-.478-.478h-5.137a.478.478,0,0,0-.478.478v1.809H232.6l1.809-.494a4.636,4.636,0,0,0,2.374-1.538l3.072-3.743a.482.482,0,0,0,.108-.266l.271-3.568a.852.852,0,0,0-.513-.835.478.478,0,0,0-.235-.894h-2.094a.478.478,0,1,0,0,.956h1.563a.848.848,0,0,0-.147.118l-1.754,1.754a13.7,13.7,0,0,0-.918,1.137.478.478,0,1,0,.745.6l.55-.684,1.411,1.411-2.8,3.408a3.687,3.687,0,0,1-1.887,1.223l-7.549,2.172a.478.478,0,0,0,.292.91l1.66-.532v4.006H227.9a.478.478,0,1,0,0,.956h2.922a.478.478,0,1,0,0-.956h-1.3v-4.183h17.856a1.883,1.883,0,0,0,1.881-1.881V281.92a1.883,1.883,0,0,0-1.881-1.881Zm-4.234-.8h1.926v.8h-1.926Zm-19.631,0h1.927v.8h-1.927Zm15.749,10.054-.168,2.21-1.021-1.021Zm1.962,9.362v-1.331h4.18v1.331Z" transform="translate(-216.623 -278.281)" fill="#fff"/>
  <path id="Path_6420" data-name="Path 6420" d="M224.132,307.878h-6.138v-2.538a10.653,10.653,0,0,1,1.082-4.67,2.342,2.342,0,0,1,2.089-1.3h8.055a7.194,7.194,0,0,0,4.611-1.676.478.478,0,1,0-.613-.733,6.237,6.237,0,0,1-4,1.452h-3.462a3.093,3.093,0,0,0,.867-2.149v-1.755a2.361,2.361,0,0,0-.157-4.716,2.643,2.643,0,0,0-2.111.773,1.448,1.448,0,0,1-1.061.464h-1.314a1.993,1.993,0,0,0-1.99,1.99V296.6a1.873,1.873,0,0,0,.344,1.136,1.636,1.636,0,0,0,.4.382c.166.112.409.152.542.291a3.346,3.346,0,0,0-3.063,1.839,11.612,11.612,0,0,0-1.179,5.09v2.538h-1.422a.478.478,0,1,0,0,.956h8.515a.478.478,0,0,0,0-.956Zm-.747-9.471a2.152,2.152,0,0,1-.765-.193,1.787,1.787,0,0,0,.315-.206,1.732,1.732,0,0,0,.616-1.367v-2.127h2.119v1.749a2.151,2.151,0,0,1-2.149,2.149C223.47,298.41,223.427,298.409,223.385,298.406Zm-2.436-1.8v-3.582a1.035,1.035,0,0,1,1.034-1.035H223.3a2.407,2.407,0,0,0,1.764-.773,1.7,1.7,0,0,1,1.408-.465,1.405,1.405,0,0,1,0,2.81h-3.4a.478.478,0,0,0-.478.478v2.605a.828.828,0,0,1-1.026.806.777.777,0,0,1-.62-.844Z" transform="translate(-215.138 -282.366)" fill="#fff"/>
  <path id="Path_6421" data-name="Path 6421" d="M240.245,288.1h2.6a.478.478,0,0,0,.478-.478v-1.759a.478.478,0,0,0-.478-.478h-2.6a.478.478,0,0,0-.478.478v1.759A.478.478,0,0,0,240.245,288.1Zm.478-1.759h1.647v.8h-1.647Z" transform="translate(-223.881 -280.805)" fill="#fff"/>
  <path id="Path_6422" data-name="Path 6422" d="M239.767,293.159a.478.478,0,0,0,.478.478h2.6a.478.478,0,0,0,.478-.478V291.4a.478.478,0,0,0-.478-.478h-2.6a.478.478,0,0,0-.478.478Zm.956-1.282h1.647v.8h-1.647Z" transform="translate(-223.881 -282.768)" fill="#fff"/>
  <path id="Path_6423" data-name="Path 6423" d="M247.078,287.71h8.485a.478.478,0,0,0,0-.956h-8.485a.478.478,0,1,0,0,.956Z" transform="translate(-226.307 -281.289)" fill="#fff"/>
</svg>
