<svg xmlns="http://www.w3.org/2000/svg" width="29.734" height="29.798" viewBox="0 0 29.734 29.798">
  <path id="Path_6451" data-name="Path 6451" d="M28.734,19.542H28.5l.009-.02a1.518,1.518,0,0,0,.138-.649A1.546,1.546,0,0,0,27.1,17.357H25.679V14.54l.939-.66a1.79,1.79,0,0,0,.76-1.463V10.181a.436.436,0,0,0-.873,0v2.236a.916.916,0,0,1-.389.749l-1.124.79a.436.436,0,0,0-.185.357v3.043H20.148l.791-2.112a1.589,1.589,0,0,0-1.059-2.087,1.012,1.012,0,0,0-1.061.336L14.46,10.8a.142.142,0,0,1-.055-.155.716.716,0,0,1,.94-.477l2.7,1.012a.437.437,0,0,0,.59-.409V3.193a.671.671,0,0,1,.651-.681.656.656,0,0,1,.662.656V6.862a.436.436,0,0,0,.873,0V1.554a.671.671,0,0,1,.65-.681.655.655,0,0,1,.662.656V6.862a.436.436,0,1,0,.873,0V3.168a.656.656,0,1,1,1.312,0V6.862a.436.436,0,0,0,.873,0V4.806a.659.659,0,0,1,.643-.656.643.643,0,0,1,.46.188.7.7,0,0,1,.208.493V8.279a.436.436,0,0,0,.873,0V4.831a1.574,1.574,0,0,0-.47-1.116,1.506,1.506,0,0,0-1.715-.288V3.168A1.533,1.533,0,0,0,24.3,1.777a1.53,1.53,0,0,0-1.293.01V1.529a1.529,1.529,0,1,0-3.058.025v.232l-.02-.009a1.486,1.486,0,0,0-.649-.138,1.546,1.546,0,0,0-1.516,1.554V4.525H15.1l-.66-.939a1.79,1.79,0,0,0-1.463-.76H5.387a1.574,1.574,0,0,0-1.116.47,1.505,1.505,0,0,0-.288,1.715H3.723A1.534,1.534,0,0,0,2.333,5.9,1.53,1.53,0,0,0,2.342,7.2H2.084a1.529,1.529,0,1,0,.025,3.058h.232l-.009.02a1.518,1.518,0,0,0-.138.649,1.546,1.546,0,0,0,1.554,1.516H5.165v2.816l-.939.66a1.79,1.79,0,0,0-.76,1.463v7.587a1.574,1.574,0,0,0,.47,1.116,1.505,1.505,0,0,0,1.715.288v.259a1.533,1.533,0,0,0,.893,1.391,1.53,1.53,0,0,0,1.293-.01v.258A1.534,1.534,0,0,0,8.73,29.66a1.516,1.516,0,0,0,.636.138h.013A1.546,1.546,0,0,0,10.9,28.244v-.232l.02.009a1.53,1.53,0,0,0,.649.138A1.546,1.546,0,0,0,13.08,26.6V25.272h2.667l.66.939a1.79,1.79,0,0,0,1.463.76h1.442a.436.436,0,0,0,0-.873H17.871a.916.916,0,0,1-.749-.389l-.79-1.124a.437.437,0,0,0-.357-.185H13.081V19.658l2.112.791a1.589,1.589,0,0,0,2.087-1.059,1.013,1.013,0,0,0-.4-1.111l2.613-4.226A.143.143,0,0,1,19.645,14a.716.716,0,0,1,.477.941l-1.012,2.7a.436.436,0,0,0,.409.59H27.1a.671.671,0,0,1,.681.651.656.656,0,0,1-.656.662H23.426a.436.436,0,0,0,0,.873h5.308a.671.671,0,0,1,.681.65.651.651,0,0,1-.059.278.659.659,0,0,1-.6.383H23.426a.436.436,0,1,0,0,.873h3.695a.657.657,0,0,1,.656.656.65.65,0,0,1-.059.273.659.659,0,0,1-.6.383H23.426a.436.436,0,1,0,0,.873h2.056a.659.659,0,0,1,.656.643.638.638,0,0,1-.188.46.7.7,0,0,1-.493.208H21.215a.436.436,0,0,0,0,.873h4.242a1.574,1.574,0,0,0,1.116-.47,1.505,1.505,0,0,0,.288-1.715h.259a1.534,1.534,0,0,0,1.391-.893A1.53,1.53,0,0,0,28.5,22.6h.258a1.529,1.529,0,1,0-.025-3.059ZM3.067,10.917a.65.65,0,0,1,.059-.278.656.656,0,0,1,.6-.383H7.418a.436.436,0,0,0,0-.873H2.11a.671.671,0,0,1-.681-.65.651.651,0,0,1,.059-.278.658.658,0,0,1,.6-.383H7.418a.436.436,0,0,0,0-.873H3.723a.657.657,0,0,1-.656-.656.65.65,0,0,1,.059-.273.659.659,0,0,1,.6-.383H7.418a.436.436,0,0,0,0-.873H5.362a.659.659,0,0,1-.656-.643.638.638,0,0,1,.188-.46A.7.7,0,0,1,5.387,3.7h7.587a.916.916,0,0,1,.749.389l.79,1.124a.436.436,0,0,0,.357.185h2.894V10.14l-2.112-.791a1.589,1.589,0,0,0-2.087,1.059,1.013,1.013,0,0,0,.4,1.111l-2.613,4.226a.142.142,0,0,1-.155.055.716.716,0,0,1-.477-.941l1.012-2.7a.436.436,0,0,0-.409-.59H3.749A.671.671,0,0,1,3.067,10.917Zm13.372,8.237a.716.716,0,0,1-.94.477l-2.7-1.012a.437.437,0,0,0-.59.409V26.6a.671.671,0,0,1-.651.681h-.006a.649.649,0,0,1-.273-.059.656.656,0,0,1-.383-.6V22.935a.436.436,0,1,0-.873,0v5.308a.671.671,0,0,1-.65.681H9.366a.649.649,0,0,1-.273-.059.658.658,0,0,1-.383-.6V22.935a.436.436,0,0,0-.873,0V26.63a.656.656,0,1,1-1.312,0V22.935a.436.436,0,1,0-.873,0v2.056a.659.659,0,0,1-.643.656.641.641,0,0,1-.46-.188.7.7,0,0,1-.208-.493V17.38a.916.916,0,0,1,.389-.749l1.124-.79a.437.437,0,0,0,.185-.357V12.441H10.7L9.9,14.552a1.589,1.589,0,0,0,1.059,2.087,1.012,1.012,0,0,0,1.061-.336l1.222.755a.437.437,0,1,0,.459-.743l-1.214-.751,2.218-3.587,3.644,2.253-2.218,3.587-.811-.5a.436.436,0,1,0-.459.743l1.52.94a.143.143,0,0,1,.055.155Z" transform="translate(-0.555 0)" fill="#fff"/>
</svg>
