<svg id="Group_733" data-name="Group 733" xmlns="http://www.w3.org/2000/svg" width="26.928" height="26.702" viewBox="0 0 26.928 26.702">
  <path id="Path_6427" data-name="Path 6427" d="M353.7,423.738h6.359a.443.443,0,0,0,0-.886H353.7a.443.443,0,1,0,0,.886Z" transform="translate(-338.407 -408.079)" fill="#fff"/>
  <path id="Path_6428" data-name="Path 6428" d="M359.667,426.474h-5.355a.809.809,0,0,0-.808.808V431.3a.808.808,0,0,0,.808.808h5.355a.809.809,0,0,0,.808-.808v-4.016A.809.809,0,0,0,359.667,426.474Zm.019,4.824a.019.019,0,0,1-.019.019h-5.355a.019.019,0,0,1-.019-.019v-4.016a.019.019,0,0,1,.019-.019h5.355a.019.019,0,0,1,.019.019Z" transform="translate(-338.521 -409.726)" fill="#fff"/>
  <path id="Path_6429" data-name="Path 6429" d="M363.675,397.727a.4.4,0,0,0,.395-.394v-1.18a.394.394,0,1,0-.789,0v1.18A.394.394,0,0,0,363.675,397.727Z" transform="translate(-342.967 -395.758)" fill="#fff"/>
  <path id="Path_6430" data-name="Path 6430" d="M357.622,399.341a.394.394,0,0,0,.558-.558l-.834-.834a.394.394,0,1,0-.558.558Z" transform="translate(-339.962 -396.702)" fill="#fff"/>
  <path id="Path_6431" data-name="Path 6431" d="M369.033,399.341l.834-.834a.394.394,0,1,0-.558-.558l-.834.834a.394.394,0,0,0,.558.558Z" transform="translate(-345.277 -396.702)" fill="#fff"/>
  <path id="Path_6432" data-name="Path 6432" d="M373.375,403.642H372.2a.394.394,0,0,0,0,.789h1.18a.394.394,0,1,0,0-.789Z" transform="translate(-346.841 -399.343)" fill="#fff"/>
  <path id="Path_6433" data-name="Path 6433" d="M352.992,404.43h1.18a.394.394,0,0,0,0-.789h-1.18a.394.394,0,1,0,0,.789Z" transform="translate(-338.109 -399.343)" fill="#fff"/>
  <path id="Path_6434" data-name="Path 6434" d="M333.644,412.684H340a.443.443,0,0,0,0-.886h-6.359a.443.443,0,1,0,0,.886Z" transform="translate(-329.288 -403.052)" fill="#fff"/>
  <path id="Path_6435" data-name="Path 6435" d="M333.644,416.369H340a.443.443,0,0,0,0-.886h-6.359a.443.443,0,1,0,0,.886Z" transform="translate(-329.288 -404.728)" fill="#fff"/>
  <path id="Path_6436" data-name="Path 6436" d="M340.446,419.61a.443.443,0,0,0-.443-.443h-6.359a.443.443,0,1,0,0,.886H340a.443.443,0,0,0,.443-.443Z" transform="translate(-329.288 -406.403)" fill="#fff"/>
  <path id="Path_6437" data-name="Path 6437" d="M333.644,433.87H340a.443.443,0,0,0,0-.885h-6.359a.443.443,0,1,0,0,.885Z" transform="translate(-329.288 -412.687)" fill="#fff"/>
  <path id="Path_6438" data-name="Path 6438" d="M351,405.857h-.5a3.767,3.767,0,0,0-.5-2.276.395.395,0,1,0-.68.4,2.979,2.979,0,0,1-.2,3.321l-.013.016a5.5,5.5,0,0,0-1.152,1.676h-2.428a4.5,4.5,0,0,0-.931-1.42,3,3,0,0,1,2.263-5.074,2.931,2.931,0,0,1,1.307.362.394.394,0,1,0,.378-.692,3.781,3.781,0,0,0-5.529,2.681h-3.22a1.153,1.153,0,0,1-1.522,0h-9.817a.75.75,0,0,0-.749.75v.257h-.641a1.035,1.035,0,0,0-1.034,1.034V417.35a.394.394,0,0,0,.789,0v-.063c.053,0,.009,0,.886,0v4.388a.75.75,0,0,0,.749.75h9.817c.23,0,.3.172.366.238v1.225a1.709,1.709,0,0,0-.922-.271H327.059a.245.245,0,0,1-.245-.245V419.19a.394.394,0,0,0-.789,0v4.185a1.034,1.034,0,0,0,1.034,1.033h10.652a.927.927,0,0,1,.8.456.6.6,0,0,0,1.041,0,.927.927,0,0,1,.8-.456H351a1.035,1.035,0,0,0,1.034-1.033V406.891A1.035,1.035,0,0,0,351,405.857Zm-5.355,4.75v-.824h2.187v.824a1.094,1.094,0,0,1-2.187,0Zm-5.852-4.967h3.167a3.808,3.808,0,0,0,.411,1.57h-2.053a.443.443,0,0,0,0,.886H344a3.679,3.679,0,0,1,.759,1.123h-3.442a.443.443,0,0,0,0,.886h3.537v.5a1.869,1.869,0,0,0,.106.621h-3.643a.443.443,0,0,0,0,.886l4.274-.015a1.881,1.881,0,0,0,3.028-1.492v-1.149a3.943,3.943,0,0,1,.95-1.466v13.647h-9.777a1.181,1.181,0,0,0-.36.057l-.007,0V406.006a.367.367,0,0,1,.367-.366Zm-12.974,1.251a.245.245,0,0,1,.245-.245h.641v6.9h-.808a.734.734,0,0,0-.078,0Zm.078,9.61a.078.078,0,0,1-.078-.078v-2.008a.078.078,0,0,1,.078-.078h1.489V416.5Zm7.435.789a.4.4,0,0,0,.225-.07l0,0,1.754-1.235a.69.69,0,0,0,0-1.128l-1.754-1.235h0a.4.4,0,0,0-.207-.07h-5.857v-7.908h9.778a.367.367,0,0,1,.366.366V421.7a1.184,1.184,0,0,0-.366-.059h-9.778V417.29Zm-.395-.789h-4.763v-2.164h4.763Zm1.806-1.082-1.017.716V414.7Zm15.5,7.956a.245.245,0,0,1-.245.245H340.343a1.711,1.711,0,0,0-.922.271v-1.225c.075-.071.135-.238.367-.238h9.817a.751.751,0,0,0,.75-.75V406.646H351a.245.245,0,0,1,.245.245Z" transform="translate(-326.025 -398.463)" fill="#fff"/>
</svg>
