<svg id="Group_685" data-name="Group 685" xmlns="http://www.w3.org/2000/svg" width="102.242" height="102.242" viewBox="0 0 102.242 102.242">
  <rect id="Rectangle_313" data-name="Rectangle 313" width="27" height="3" transform="translate(49.242 15)" fill="#ededed"/>
  <rect id="Rectangle_314" data-name="Rectangle 314" width="27" height="4" transform="translate(49.242 21)" fill="#ededed"/>
  <rect id="Rectangle_315" data-name="Rectangle 315" width="29" height="3" transform="translate(20.242 68)" fill="#ededed"/>
  <rect id="Rectangle_316" data-name="Rectangle 316" width="29" height="3" transform="translate(20.242 81)" fill="#ededed"/>
  <rect id="Rectangle_317" data-name="Rectangle 317" width="13" height="4" transform="translate(20.242 74)" fill="#ededed"/>
  <rect id="Rectangle_318" data-name="Rectangle 318" width="13" height="4" transform="translate(36.242 74)" fill="#ededed"/>
  <rect id="Rectangle_319" data-name="Rectangle 319" width="13" height="4" transform="translate(20.242 87)" fill="#ededed"/>
  <rect id="Rectangle_320" data-name="Rectangle 320" width="13" height="4" transform="translate(36.242 87)" fill="#ededed"/>
  <path id="Path_6395" data-name="Path 6395" d="M98.944,62.968V41.227a3.829,3.829,0,0,0-2.8-3.679l-13.694-3.8V6.6H36.875c-.094-.1-.176-.216-.277-.317a8.163,8.163,0,0,0-8.011-2.094,8.2,8.2,0,0,0-14.3,0A8.2,8.2,0,0,0,4.185,14.291a8.195,8.195,0,0,0,0,14.294A8.208,8.208,0,0,0,9.894,38.707V61.24l3.3-2.749v43.751H61.7L82.453,81.487v-23l9.894-2.827v-9.7l3.3-.917V62.97a4.94,4.94,0,0,0-3.3,4.644V79.157h9.894V67.613A4.941,4.941,0,0,0,98.944,62.968ZM39.578,21.438a4.913,4.913,0,0,1-3.491,4.7l-.656.2a14.562,14.562,0,0,0,0-9.8l.656.2A4.91,4.91,0,0,1,39.578,21.438ZM34.264,34.264a4.911,4.911,0,0,1-5.788.853l-.612-.322A14.908,14.908,0,0,0,34.8,27.864l.322.612A4.909,4.909,0,0,1,34.264,34.264ZM28.476,7.759A4.9,4.9,0,0,1,35.117,14.4l-.322.612A14.915,14.915,0,0,0,27.864,8.08Zm-11.733-.97a4.9,4.9,0,0,1,9.391,0l.2.656a14.561,14.561,0,0,0-9.8,0Zm4.695,3.105A11.543,11.543,0,1,1,9.894,21.438,11.556,11.556,0,0,1,21.438,9.894Zm4.9,25.536-.2.656a4.9,4.9,0,0,1-9.391,0l-.2-.656a14.562,14.562,0,0,0,9.8,0ZM8.611,8.611A4.909,4.909,0,0,1,14.4,7.759l.612.322A14.915,14.915,0,0,0,8.08,15.011L7.759,14.4A4.909,4.909,0,0,1,8.611,8.611ZM3.3,21.438a4.913,4.913,0,0,1,3.491-4.7l.656-.2a14.561,14.561,0,0,0,0,9.8l-.656-.2A4.91,4.91,0,0,1,3.3,21.438ZM8.611,34.264a4.911,4.911,0,0,1-.853-5.788l.322-.612A14.908,14.908,0,0,0,15.011,34.8l-.612.322A4.913,4.913,0,0,1,8.611,34.264Zm4.581,4.657a8.229,8.229,0,0,0,1.1-.229,8.2,8.2,0,0,0,14.294,0,8.175,8.175,0,0,0,1.1.229V54.2l-8.245-6.872L13.193,54.2ZM79.155,79.155H59.366V95.646h3.3V82.453H76.823L60.333,98.944H16.491v-43.2l4.947-4.123,11.543,9.619V38.707a8.2,8.2,0,0,0,5.709-10.12,8.2,8.2,0,0,0,0-14.3,8.173,8.173,0,0,0,.007-4.4H79.155V32.826L67.612,29.619,39.076,37.546a3.819,3.819,0,0,0,0,7.36l3.8,1.055v9.7l24.736,7.068,11.543-3.3ZM89.05,53.176,67.612,59.3,46.174,53.176v-6.3l21.438,5.955L89.05,46.878Zm6.215-11.448L67.612,49.409,39.959,41.728a.52.52,0,0,1,0-1l27.653-7.681,27.653,7.681a.52.52,0,0,1,0,1Zm3.679,34.129h-3.3V67.612a1.649,1.649,0,0,1,3.3,0Z" fill="#ededed"/>
</svg>
