<svg xmlns="http://www.w3.org/2000/svg" width="565.554" height="689.04" viewBox="0 0 565.554 689.04">
  <g id="Group_34" data-name="Group 34" transform="translate(-655.039 -118.021)">
    <g id="cliff" transform="translate(702.605 476.259)">
      <path id="Path_1412" data-name="Path 1412" d="M1213.3,426.741v325.38l-45.533-30.592-15.745-38.387-45.273-20.67-34.454-48.226-45.273-4.925L971.9,572.907l-69.888-31.5-78.735-14.764L815.4,494.161,768.151,479.4l-45.273-9.839L695.31,445.935V429.2s7.878-1.973,21.662-1.973H879.379l60.51-4.973,6.886-.567,4.453-.366.661.071h.012l28.855,2.882h51.179l52.171,2.953,54.132,4.925,52.171-5.41Z" transform="translate(-695.31 -421.32)"/>
    </g>
    <path id="man" d="M922.388,135.6l8.731-3.344c2.417-1.486,0-1.766,0-1.766l-6.5,1.208c-4.643,1.306-1.208-1.022-1.208-1.022l6.223-5.48c1.672-3.065-1.578-1.578-1.578-1.578l-5.015,2.971c-6.782,3.816-2.737-1.528-2.737-1.528l3.852-4.694c1.3-3.243-2.139-1.015-2.139-1.015a114.86,114.86,0,0,1-8.83,7.516c-2.7,1.021-2.594-1.95-2.594-1.95l2.229-4.459c1.3-2.88-1.3-2.414-1.3-2.414a12.412,12.412,0,0,1-3.25,4.18c-2.041,2.043-7.153,11.331-7.153,11.331a26.021,26.021,0,0,1-10.216,6.13c-7.679,1.476-22.041,6.942-27.611,9.122a5.1,5.1,0,0,0-.763-1.069c-2.688-2.689-2.453,0-4.481,0-3.226,0-1.435,2.51-2.51,2.51s-2.329,1.642-4.48,1.642-4.571.24-5.736,1.4.358.18-4.123,1.434-5.76-1-8.424,1.661-3.765,3.178-5.915,3.178-3.764,1.613-5.556,1.613-4.3,2.262-6.274,2.262a11.188,11.188,0,0,0-6.272,2.406c-1.162,1.162-2.332.889-5.557,1.964s-6.308.395-8.424,2.51-3.585,1.612-5.378,1.612-.243-1.01-2.989.3h0l-.631-.63-2.988.576a73.246,73.246,0,0,1-1.1-8.742c16.16-7.429,8.359-22.848,8.359-22.848A21.765,21.765,0,0,0,774.7,129.457h0c-2.887-1.005-5.724-5.055-5.724-5.055-.463,1.758,2.113,4.512,2.113,4.512-2.268-.671-4.455-4.512-4.455-4.512-.219,1.2.674,3.013,1.3,4.1a11.152,11.152,0,0,1-2.783-3.324c-1.859,1.857,0,4.272,0,4.272-1.673,0-2.786-3.343-2.786-3.343a2.469,2.469,0,0,0,0,3.715h-1.3a6.581,6.581,0,0,0,1.759,4.414l-.086.044-5.2,5.016-.37,2.786c-7.987,4.458-7.948,5.015-7.948,5.015l2.56,2.043c0,2.6-2.414,8.359-2.414,8.359-1.3,3.344,6.5,6.688,6.5,6.688l5.08,12.217-1.179.228-3.907,6.717c-.387.081-.9.209-1.6.418-3.585,1.076-8.2,3.047-8.2,3.047a13.288,13.288,0,0,0-4.886,2.509c-1.615,1.613-4.662,1.858-5.737,1.858a4.625,4.625,0,0,0-3.943,1.369c-1.524,1.524-2.506.058-4.24,1.792s-3.736.627-5.8,2.689a32.133,32.133,0,0,1-5.736,4.122,3.107,3.107,0,0,0-3.047.9c-1.434,1.433-3.405,1.254-4.48,2.33a9.936,9.936,0,0,1-3.047,1.792l-1.972.537-1.075-.9a35.54,35.54,0,0,0-3.292,2.453,2.4,2.4,0,0,0-.2,1.173,119.294,119.294,0,0,1-18.07,2.418l-4.6-5.7s-3.578-1.133-4.973-3.555c0,0-3.515-.181.361,6.14,0,0,.012.193.08,1.343a109.187,109.187,0,0,1-12.245-1.491s-5.971.84,2.047,2.861c0,0,4.328,1.093,2.418,2.746l-8.4,2.036s-1.847,2.614,5.828,1.006c0,0,5.085-.775.1,1.723l-3.2.971s-4.323,3.239,4.442.989c0,0,4.3-1.5,2.143,1.271l-4.448,2.138s-2.108,2.532,6.621-.39c0,0,1.084-.736,4.236-.443a46.085,46.085,0,0,0,12.63-2.574s8.067-1.149,14.285.025c0,0,.765.08,2.2.074a3.073,3.073,0,0,0,.49,1.1h2.99s1.434.9,2.33,0a23.956,23.956,0,0,1,2.044-1.776l.017-.007c1.1-.171,2.283.521,3.541.26a3.143,3.143,0,0,0,1.175-.852c2.069,0,3.258.585,5.229.585s2.512-.171,5.739-.171,3.764-1.085,5.2-1.085,4.565-.051,4.565,1.971c0,2.536,1.137,3.763,1.137,6.812s-.7,5.915-.7,9.141-1.768,3.764-1.05,7.349.113,9.984.526,10.4c.142.142-1.276,2.049.835,5.3.139,12.877-.857,28.093-3.289,32.862l2.526-.262c-.116,4.755-.476,15.217-1.46,20.7,0,0-1.67,23.779,8.546,62.416,0,0,1.113,6.288,2.268,14.385-1.109-.51-2.015,1.008-2.015,1.008v19.088l2.382,6.678,2.306,2.529,1.747,36.011v10.457s.273.113.751.3a33.257,33.257,0,0,1-7.024,5.831c-.042.019-3.458,1.68-11.748,0,0,0-10.142,1.6-4.852,8.452,0,0,1.008,2.68,11.579,2.68h0c6.939.769,17.142,1.486,26.258.523l1.469-1.37,1.234,1.245,7.077-1.416s1.325-9.743-.411-14.013c0,0-2.809-68.871-4.284-78.823,0,0,.279-19.622.8-38.239,4.048,7.062,7.584,13.185,9.982,17.247,0,0,13.19,19.691,18.206,38.453,0,0,10.445,40.835,11.372,60.712a6.1,6.1,0,0,0,1.215.952,47.068,47.068,0,0,1-2.844,3.8c-.006,0-4.632,2.274-11.653.716,0,0-7.42,2.34-2.13,9.188a16.876,16.876,0,0,0,3.884,1.922c1.745,2.067,6.421,4.182,18.093,4.513,0,0,5.824,1.106,11.6-4.918l3.509-1.322,5.123-.191s.6-8.514-1.622-15.518c.063-.026.122-.047.185-.076a355.384,355.384,0,0,0-3.74-47.114c2.532-1.636,2.547-5.426,2.547-5.426l-6.252-23.329s.735-5.587,0-7.242c-2.609-5.87-5.6-6.859-7.764-6.571q-.71-1.525-1.465-2.981s-10.217-28.989-13.189-42.921L795.3,286.228l1.811-.188s-.484-3.547-1.024-9.037c13.676.363,11.237-.926,21.275,1.045s12.548,0,22.4,3.585,8.067,1.434,16.849-2.688c0,0-12.547,3.405-17.566-11.829s-17.654-12.457-21.868-16.669-9.141-16.132-9.141-19.359-1.612-7.17,0-13.263,2.509-7.169,4.3-12.368,2.518-6.534,2.868-9.858c.332-3.137,3.369-5.907,4.9-7.231l.271-.233c1.4-1.194.582.517,5.227-2.368,4.661-2.895,7.348-3.072,9.32-5.045s1.971-.9,5.556-2.511,5.467-2.061,6.991-3.585.715,0,4.12-1.434,3.946-.717,5.021-1.792,1.969-1.971,2.865-1.075,1.254,1.792,2.151.9a4.93,4.93,0,0,1,3.227-1.264c.9,0,2.867-1.785,2.867-1.785l1.077-1.433s-.091-.411-.253-1.11a131.222,131.222,0,0,0,22.725-12.01c4.273-3.437,14.024-9.381,14.024-9.381,7.057-.65,14.769-3.995,14.769-3.995l10.124-.836c2.23-.836.185-1.765.185-1.765l-7.524-.464C920.623,136.717,922.388,135.6,922.388,135.6Z"/>
  </g>
</svg>
