<svg xmlns="http://www.w3.org/2000/svg" width="83.547" height="117.865" viewBox="0 0 83.547 117.865">
  <path id="Path_6396" data-name="Path 6396" d="M150.146,77.85V65.58L144.968,67.6l-.015-.034-.123-.224a13.328,13.328,0,0,0-8.807-5.894l-12.46-2.267v-.984A19.022,19.022,0,0,0,132.7,45.413a7.608,7.608,0,0,0,6.055-7.438V19.221A11.908,11.908,0,0,0,130.247,7.8l-.949-.949A23.381,23.381,0,0,0,89.385,23.38v14.6a7.608,7.608,0,0,0,6.055,7.438,19.023,19.023,0,0,0,9.135,12.779v.984L92.117,61.441a13.333,13.333,0,0,0-8.8,5.888l-.114.277L77.992,65.58V77.85a5.7,5.7,0,0,0-5.7,5.7v7.6a5.7,5.7,0,0,0,5.7,5.7v7l36.077,14.032,36.077-14.032v-7a5.7,5.7,0,0,0,5.7-5.7v-7.6A5.7,5.7,0,0,0,150.146,77.85ZM127.122,63.684l8.222,1.494a9.513,9.513,0,0,1,5.994,3.828l-18.371,7.143Zm-18.587-3.75a18.917,18.917,0,0,0,11.07,0l-5.535,4.151Zm2.645,6.729L107.3,70.536,104.79,63l1.21-.218Zm10.96-3.883,1.21.218-2.514,7.54-3.875-3.874Zm10.918-21.534V34.706a3.765,3.765,0,0,1,0,6.539Zm-37.976,0a3.765,3.765,0,0,1,0-6.539Zm0-12.764V30.65a7.531,7.531,0,0,0-1.9.786V23.38a19.583,19.583,0,0,1,33.43-13.846l1.675,1.677.511.125a8.115,8.115,0,0,1,6.158,7.886V31.436a7.462,7.462,0,0,0-1.9-.786V28.482h-6.021a16.516,16.516,0,0,1-13.149-6.572l-1.51-2.017L108.6,23.668A16.337,16.337,0,0,1,96.98,28.482Zm3.8,13.292V32.192a20.1,20.1,0,0,0,12.41-5.839l.739-.739a20.34,20.34,0,0,0,15.008,6.665h2.223v9.494a15.19,15.19,0,1,1-30.381,0ZM92.8,65.178l8.222-1.494,4.155,12.466L86.8,69A9.511,9.511,0,0,1,92.8,65.178Zm-16.7,25.964v-7.6a1.9,1.9,0,0,1,1.9-1.9,5.7,5.7,0,1,1,0,11.393A1.9,1.9,0,0,1,76.094,91.142Zm36.077,21.908L81.79,101.238v-5.2a9.475,9.475,0,0,0,0-17.378V71.132l30.381,11.814Zm-5.638-36.369,7.536-7.538,7.536,7.536-7.536,2.932Zm39.816,24.555-30.381,11.812v-30.1l30.381-11.814v7.523a9.475,9.475,0,0,0,0,17.378Zm5.7-10.094a1.9,1.9,0,0,1-1.9,1.9,5.7,5.7,0,1,1,0-11.393,1.9,1.9,0,0,1,1.9,1.9Z" transform="translate(-72.296)" fill="#ededed"/>
</svg>
