<svg xmlns="http://www.w3.org/2000/svg" width="381.856" height="184.465" viewBox="0 0 381.856 184.465">
  <g id="Group_700" data-name="Group 700" transform="translate(-1463.186 -40.23)">
    <path id="Path_6404" data-name="Path 6404" d="M-497.43,440.152A30.722,30.722,0,0,1-484.8,419.938c21.708-15.923,43.288-31.923,65.43-47.246A95.642,95.642,0,0,1-386.3,358.058a31.527,31.527,0,0,1,7.981-.664c5.593.192,8.721,3.537,7.662,9.028a76.619,76.619,0,0,1-4.916,14.455c-4.354,10.33-9.628,20.3-13.344,30.838-4.061,11.492.907,17.073,12.565,13.842a190.094,190.094,0,0,0,32.421-12.31c37.031-18,74.624-34.937,113.289-49.264,23.138-8.568,46.965-13.778,71.712-14.263h7.393c-3.192,4.137-5.848,7.662-8.581,11.058-5.8,7.279-11.492,14.608-17.558,21.708-1,1.175-3.205,1.711-4.891,1.826-15.655,1.073-31.451.97-46.94,3.18-26.266,3.729-51.307,12.156-75.339,23.547s-48.128,22.9-72.223,34.3c-12.093,5.721-24.594,9.59-38.1,6.027a31.452,31.452,0,0,1-10.65-4.929c-7.291-5.414-6.972-13.216-4.814-20.878s5.261-15.464,7.815-23.2a26.049,26.049,0,0,0,1.417-6.717c.191-4.763-2.707-6.589-6.934-4.393a64.05,64.05,0,0,0-8.083,5.108q-28.884,20.8-57.679,41.717C-494.9,438.633-495.783,439.118-497.43,440.152Z" transform="translate(1960.616 -268.003)" fill="#fff"/>
    <path id="Path_6405" data-name="Path 6405" d="M-206.168,354.721H-239.7l7.738-18.835a19.956,19.956,0,0,0,1.634-3.831c1.213-6.461,5.427-8.287,11.492-9.015,12-1.43,23.891-3.716,36.814-5.81-2.235,5.338-4.112,9.96-6.091,14.544-9.845,22.691-19.831,45.331-29.523,68.1a105.5,105.5,0,0,0-5.108,16.753c-.472,1.954,0,5.389,1.277,6.168a7.279,7.279,0,0,0,6.64-.332c7.521-5.389,14.915-11.02,21.887-17.1,4.674-4.061,8.594-8.939,13.037-13.74a9.756,9.756,0,0,1-.958,9.717c-12.259,18.3-25.96,35.141-46.634,44.693-8.939,4.086-17.877,7.521-28.016,5.7-7.662-1.366-12.156-6.385-12.693-14.046-.69-9.858,2.809-18.822,5.989-27.85.255-.715.6-1.4.907-2.107,1.366-3.128,1.966-7.368,4.354-9.041s6.385-.856,9.7-.485c5.108.575,8.326-1.354,11.492-5.491,8.836-11.709,18.222-22.985,27.377-34.477C-207.9,357.389-207.368,356.521-206.168,354.721Z" transform="translate(2024.072 -277)" fill="#fff"/>
    <path id="Path_6406" data-name="Path 6406" d="M-379.59,471.249c5.963-1.162,11.9-2.464,17.877-3.435,27.671-4.482,50.95-16.664,68.52-38.857,7.291-9.207,10.011-20.214,11.773-31.515,1.634-10.509,1.545-10.739,12.156-12.527s21.12-3.014,32.179-4.546a48.911,48.911,0,0,1,0,5.108c-2.554,21.708-12.169,39.751-28.092,54.6a113.11,113.11,0,0,1-64.14,30.48,263.053,263.053,0,0,1-45.025,2.554c-1.737-.077-3.461-.345-5.184-.523Z" transform="translate(1993.25 -259.515)" fill="#fff"/>
    <path id="Path_6407" data-name="Path 6407" d="M-242.635,466.632c-4.188-1.277-8.619-2.056-12.527-3.907-4.98-2.375-5.887-7.662-1.788-11.3a33.2,33.2,0,0,1,10.8-6.04,26.815,26.815,0,0,1,19.154.472c7.215,2.8,8.326,8.568,2.771,13.893C-227.976,463.338-234.692,465.56-242.635,466.632Z" transform="translate(2026.497 -241.937)" fill="#fff"/>
    <path id="Path_6408" data-name="Path 6408" d="M-222.282,422.3a49.181,49.181,0,0,1,8.76,3.243c3.984,2.235,4.38,6.806,1.52,10.471-5.925,7.662-22.155,11.582-30.825,7.521-6.525-3.065-7.47-8.773-2.145-13.638C-239.137,424.573-232,422.67-222.282,422.3Z" transform="translate(2029.575 -247.903)" fill="#fff"/>
    <path id="Path_6409" data-name="Path 6409" d="M-266.429,452.228c-3.933-1.277-8.109-2.056-11.761-3.831-5.35-2.669-6.091-8.555-1.213-12.054a39.942,39.942,0,0,1,13.7-6.129,22.985,22.985,0,0,1,17.085,2.043c5.631,3.256,6.385,8.364,1.558,12.769C-252.446,449.865-259.061,451.436-266.429,452.228Z" transform="translate(2020.091 -245.933)" fill="#fff"/>
  </g>
</svg>
