<svg xmlns="http://www.w3.org/2000/svg" xmlns:xlink="http://www.w3.org/1999/xlink" width="541.87" height="200.919" viewBox="0 0 541.87 200.919">
  <defs>
    <filter id="Path_1696" x="0" y="0" width="541.87" height="200.919" filterUnits="userSpaceOnUse">
      <feOffset dy="10" input="SourceAlpha"/>
      <feGaussianBlur stdDeviation="5" result="blur"/>
      <feFlood flood-opacity="0.149"/>
      <feComposite operator="in" in2="blur"/>
      <feComposite in="SourceGraphic"/>
    </filter>
  </defs>
  <g id="Group_903" data-name="Group 903" transform="translate(-73.12 5)">
    <g transform="matrix(1, 0, 0, 1, 73.12, -5)" filter="url(#Path_1696)">
    <a xlink:href="https://parseh.ac.ir/">
      <path id="Path_1696-2" data-name="Path 1696" d="M6693.666-541.482c66.582,15.732,105.9,4.374,176.869,23.545s66.019,43.953,162.09,66.333c37.756,8.8,76.85,3.532,109.2-5.3,0-91.087-.023-111.93-.023-161.045L6629.974-618S6627.085-557.214,6693.666-541.482Z" transform="translate(-6614.96 623)" fill="#ff3629"/>
      </a>
    </g>
    <g id="Group_902" data-name="Group 902">
    <a xlink:href="https://parseh.ac.ir/">
      <path id="Path_6462" data-name="Path 6462" d="M44.607,10.143a10.656,10.656,0,0,1-1.716-.117V8.687a18.032,18.032,0,0,0,1.885.1,7.834,7.834,0,0,0,2.288-.3,4.976,4.976,0,0,0-.748-1.944,10.182,10.182,0,0,0-1.671-1.892l.884-.923A6.483,6.483,0,0,1,48.1,8.557a4.4,4.4,0,0,1-.091.936A7.152,7.152,0,0,1,44.607,10.143ZM51.12,10H49.9V.692l1.222-.1Zm2.561-7.267.962.845-.806.9-.949-.806Zm1.43,5.8a5.033,5.033,0,0,1-.884,3.139,2.978,2.978,0,0,1-2.509,1.151,5.4,5.4,0,0,1-1.079-.117l.13-1.157a3.456,3.456,0,0,0,.7.065,2.5,2.5,0,0,0,1.157-.253,1.96,1.96,0,0,0,.774-.689,3.343,3.343,0,0,0,.416-.943,4.188,4.188,0,0,0,.136-1.092,12.569,12.569,0,0,0-.494-2.912l1.248-.351A13.212,13.212,0,0,1,55.111,8.531ZM59.531.3l.3.676a2.118,2.118,0,0,1-1.3.416,3.948,3.948,0,0,1-1.073-.208,3.964,3.964,0,0,0-.93-.208,1.182,1.182,0,0,0-.832.4L55.189.835a1.654,1.654,0,0,1,1.352-.78,4.2,4.2,0,0,1,1.014.221A4.171,4.171,0,0,0,58.621.5,2.117,2.117,0,0,0,59.531.3Zm-1.4,9.7H56.9V2.057l1.222-.117Zm8.463,2.938a3.986,3.986,0,0,1-2.7-.819,2.911,2.911,0,0,1-.936-2.314,7.053,7.053,0,0,1,.793-3.12l.975.4a6.376,6.376,0,0,0-.533,2.366q0,2.158,2.665,2.158a4.2,4.2,0,0,0,2.041-.455,2.079,2.079,0,0,0,1.066-1.3,16.384,16.384,0,0,1-2.483-.611l.273-1.209a13.732,13.732,0,0,0,3.913.585h.156V10h-.143q-.221,0-.689-.026a3.184,3.184,0,0,1-1.371,2.151A5.132,5.132,0,0,1,66.59,12.938ZM71.816,10q-.156,0-.254-.2a1.268,1.268,0,0,1,0-.975q.1-.2.254-.2h3.237V10Zm3.237,0q-.156,0-.254-.2a1.268,1.268,0,0,1,0-.975q.1-.2.254-.2h.1a6.488,6.488,0,0,0,1.651-.195q.091-1.066.091-2.47,0-1.716-.052-5.265l1.235-.1q.039,3.458.039,5.057t-.052,2.366a6.654,6.654,0,0,1-.247,1.43,4.513,4.513,0,0,1-1.189.4A7.112,7.112,0,0,1,75.144,10Zm8.021-1.378V10h-.442a2.392,2.392,0,0,1-2.054-.793,3.941,3.941,0,0,1-.585-2.353V.692l1.235-.1V6.633a2.305,2.305,0,0,0,.4,1.541,1.651,1.651,0,0,0,1.287.448Zm0,1.378q-.156,0-.254-.2a1.268,1.268,0,0,1,0-.975q.1-.2.254-.2h.247q.962,0,1.651-.065a2.455,2.455,0,0,1-1.014-2.041,2.516,2.516,0,0,1,.7-1.872,2.432,2.432,0,0,1,1.787-.689,5.264,5.264,0,0,1,2.223.546l-.351,1.053a4.57,4.57,0,0,0-1.651-.364,1.583,1.583,0,0,0-1.085.384,1.293,1.293,0,0,0-.436,1.02,1.686,1.686,0,0,0,.5,1.241,1.457,1.457,0,0,0,1.021.5,13.708,13.708,0,0,0,2.6-.637l.286,1.17a20.689,20.689,0,0,1-3.178.877A17.736,17.736,0,0,1,83.243,10Zm21.879-8.333.845.741-.7.793-.832-.715Zm1,1.417.884.767-.741.832-.871-.741Zm-1.794.065.884.767-.741.832-.871-.741Zm-6.734,9.828a3.707,3.707,0,0,1-2.587-.819,2.926,2.926,0,0,1-.9-2.275,6.784,6.784,0,0,1,.793-3.094l.988.39a5.682,5.682,0,0,0-.546,2.314q0,2.106,2.483,2.106a3.48,3.48,0,0,0,2.164-.611,1.956,1.956,0,0,0,.8-1.638,10.5,10.5,0,0,0-.572-3.12l1.209-.377a14.3,14.3,0,0,1,.533,2.509A2.516,2.516,0,0,0,103,8.635a2.016,2.016,0,0,0,1.144-.312,1.05,1.05,0,0,0,.468-.936v-1.4l1.118-.078V7.452a1.046,1.046,0,0,0,1.2,1.17,2.943,2.943,0,0,0,1.261-.286V8.167a10.9,10.9,0,0,0-.364-2.535l1.157-.273a9.054,9.054,0,0,1,.286,2.2,6.268,6.268,0,0,1-.234,1.859,4.512,4.512,0,0,1-2.184.6,1.881,1.881,0,0,1-1.729-.806,2.466,2.466,0,0,1-2.184.871,4.573,4.573,0,0,1-1.183-.156,3.322,3.322,0,0,1-1.339,2.249A4.973,4.973,0,0,1,97.426,12.977ZM111.739,2.733l.962.845-.806.9-.949-.806Zm1.43,5.8a5.033,5.033,0,0,1-.884,3.139,2.978,2.978,0,0,1-2.509,1.151A5.4,5.4,0,0,1,108.7,12.7l.13-1.157a3.456,3.456,0,0,0,.7.065,2.5,2.5,0,0,0,1.157-.253,1.96,1.96,0,0,0,.773-.689,3.343,3.343,0,0,0,.416-.943,4.188,4.188,0,0,0,.137-1.092,12.569,12.569,0,0,0-.494-2.912l1.248-.351A13.212,13.212,0,0,1,113.169,8.531Zm4.472.091h1.17a4.222,4.222,0,0,0-.462-2,1.382,1.382,0,0,0-1.229-.878,1.162,1.162,0,0,0-1.014.5,1.892,1.892,0,0,0-.351,1.112,1.113,1.113,0,0,0,.416.943A2.5,2.5,0,0,0,117.641,8.622ZM115.99,12.86a5.377,5.377,0,0,1-1.4-.182l.13-1.144a5.844,5.844,0,0,0,1.144.1,3.171,3.171,0,0,0,2-.546,2.2,2.2,0,0,0,.852-1.261q-.78.052-1.391.052a2.74,2.74,0,0,1-2.047-.618,2.4,2.4,0,0,1-.579-1.71,3.369,3.369,0,0,1,.7-2.171,2.186,2.186,0,0,1,1.787-.871,2.3,2.3,0,0,1,1.976,1.105,5.256,5.256,0,0,1,.754,3h.871V10H119.76a3.493,3.493,0,0,1-1.254,2.125A4.017,4.017,0,0,1,115.99,12.86ZM120.774,10q-.156,0-.254-.2a1.268,1.268,0,0,1,0-.975q.1-.2.254-.2h3.237V10Zm8.32-1.248a6.116,6.116,0,0,0,.832-.052A5.007,5.007,0,0,0,130,7.894a2.489,2.489,0,0,0-.351-1.391,1.106,1.106,0,0,0-.975-.533,1.278,1.278,0,0,0-.891.351,5,5,0,0,0-.89,1.352l-.3.572A5.545,5.545,0,0,0,129.094,8.752Zm-.234,1.261a5.433,5.433,0,0,1-2.977-.741,2.311,2.311,0,0,1-1.755.728h-.117q-.156,0-.254-.2a1.268,1.268,0,0,1,0-.975q.1-.2.254-.2h.182a1.318,1.318,0,0,0,1.047-.422,7.471,7.471,0,0,0,.9-1.5,4.962,4.962,0,0,1,1.079-1.482,2.213,2.213,0,0,1,1.5-.481,2.062,2.062,0,0,1,1.736.851,3.425,3.425,0,0,1,.643,2.126,5.386,5.386,0,0,1-.39,2.067A5.981,5.981,0,0,1,128.86,10.013ZM135.451.3l.3.676a2.118,2.118,0,0,1-1.3.416,3.948,3.948,0,0,1-1.073-.208,3.964,3.964,0,0,0-.929-.208,1.182,1.182,0,0,0-.832.4l-.507-.546a1.654,1.654,0,0,1,1.352-.78,4.2,4.2,0,0,1,1.014.221A4.171,4.171,0,0,0,134.541.5,2.117,2.117,0,0,0,135.451.3Zm-1.4,9.7h-1.222V2.057l1.222-.117Zm11.362,0h-.52a1.91,1.91,0,0,1-1.963-1.04,12.387,12.387,0,0,1-1.339.078,4.035,4.035,0,0,1-2.041-.436,1.431,1.431,0,0,1-.741-1.319,3.051,3.051,0,0,1,1.475-2.619,6.107,6.107,0,0,1,3.53-1.008v3.77a1.171,1.171,0,0,0,.312.93,1.758,1.758,0,0,0,1.118.266h.169Zm-3.588-2.171q.416,0,.884-.039V4.969a3.834,3.834,0,0,0-2.067.741,1.693,1.693,0,0,0-.793,1.261q0,.39.5.624A3.617,3.617,0,0,0,141.821,7.829Zm11.453,2.21a1.917,1.917,0,0,1-1.755-.819,1.8,1.8,0,0,1-.917.65,3.829,3.829,0,0,1-1.255.208,3.286,3.286,0,0,1-2.054-.6,2.687,2.687,0,0,1-1.729.52h-.156q-.156,0-.253-.2a1.267,1.267,0,0,1,0-.975q.1-.2.253-.2h.364a1.417,1.417,0,0,0,.975-.292,1.6,1.6,0,0,0,.377-1.1l.078-1,1.1-.091-.065,1.17a4.16,4.16,0,0,1-.169.988,2.472,2.472,0,0,0,1.326.338,2.048,2.048,0,0,0,1.15-.312,1.046,1.046,0,0,0,.475-.936V6.022l1.1-.078V7.452a1.052,1.052,0,0,0,1.209,1.17q1.261,0,1.261-1.144V5.827l1.105-.1v1.69a4.815,4.815,0,0,1-.065.793,3.025,3.025,0,0,0,1.82.416h.143V10h-.247a3.783,3.783,0,0,1-2.223-.663A2.334,2.334,0,0,1,153.274,10.039ZM157.6,10q-.156,0-.253-.2a1.267,1.267,0,0,1,0-.975q.1-.2.253-.2h3.237V10Zm11.089.013a1.881,1.881,0,0,1-1.729-.806,2.466,2.466,0,0,1-2.184.871,3.286,3.286,0,0,1-2.054-.6A2.687,2.687,0,0,1,161,10h-.156q-.156,0-.253-.2a1.267,1.267,0,0,1,0-.975q.1-.2.253-.2h.364a1.417,1.417,0,0,0,.975-.292,1.6,1.6,0,0,0,.377-1.1l.078-.988,1.1-.1-.065,1.17a4.16,4.16,0,0,1-.169.988,2.5,2.5,0,0,0,1.339.338,2.016,2.016,0,0,0,1.144-.312,1.05,1.05,0,0,0,.468-.936v-1.4l1.118-.078V7.452a1.046,1.046,0,0,0,1.2,1.17,2.943,2.943,0,0,0,1.261-.286V8.167a10.9,10.9,0,0,0-.364-2.535l1.157-.273a9.054,9.054,0,0,1,.286,2.2,6.268,6.268,0,0,1-.234,1.859A4.512,4.512,0,0,1,168.692,10.013Zm6.968-1.391h1.17a4.222,4.222,0,0,0-.462-2,1.382,1.382,0,0,0-1.229-.878,1.162,1.162,0,0,0-1.014.5,1.892,1.892,0,0,0-.351,1.112,1.113,1.113,0,0,0,.416.943A2.5,2.5,0,0,0,175.66,8.622Zm-1.651,4.238a5.377,5.377,0,0,1-1.4-.182l.13-1.144a5.844,5.844,0,0,0,1.144.1,3.171,3.171,0,0,0,2-.546,2.2,2.2,0,0,0,.852-1.261q-.78.052-1.391.052a2.74,2.74,0,0,1-2.048-.618,2.4,2.4,0,0,1-.579-1.71,3.369,3.369,0,0,1,.7-2.171,2.186,2.186,0,0,1,1.788-.871,2.3,2.3,0,0,1,1.976,1.105,5.256,5.256,0,0,1,.754,3h.871V10h-1.014a3.493,3.493,0,0,1-1.255,2.125A4.017,4.017,0,0,1,174.009,12.86Zm9.867-4.108a6.116,6.116,0,0,0,.832-.052,5.007,5.007,0,0,0,.078-.806,2.489,2.489,0,0,0-.351-1.391,1.106,1.106,0,0,0-.975-.533,1.278,1.278,0,0,0-.89.351,5,5,0,0,0-.891,1.352l-.3.572A5.545,5.545,0,0,0,183.876,8.752Zm-.234,1.261a5.433,5.433,0,0,1-2.977-.741A2.311,2.311,0,0,1,178.91,10h-.117q-.156,0-.253-.2a1.267,1.267,0,0,1,0-.975q.1-.2.253-.2h.182a1.318,1.318,0,0,0,1.046-.422,7.471,7.471,0,0,0,.9-1.5A4.962,4.962,0,0,1,182,5.216a2.213,2.213,0,0,1,1.495-.481,2.062,2.062,0,0,1,1.736.851,3.425,3.425,0,0,1,.644,2.126,5.386,5.386,0,0,1-.39,2.067A5.981,5.981,0,0,1,183.642,10.013Z" transform="translate(390.467 114.337)" fill="#fff"/>
      <g id="Group_700" data-name="Group 700" transform="translate(-1030.575 -8.852)">
        <path id="Path_6404" data-name="Path 6404" d="M-497.43,387.079a12.9,12.9,0,0,1,4.762-8.351c8.185-6.578,16.321-13.188,24.67-19.518a34.583,34.583,0,0,1,12.469-6.046,10.88,10.88,0,0,1,3.009-.274c2.109.079,3.288,1.461,2.889,3.73a33.775,33.775,0,0,1-1.854,5.972c-1.642,4.268-3.63,8.386-5.031,12.74-1.531,4.748.342,7.053,4.737,5.718a67.928,67.928,0,0,0,12.224-5.086,456.768,456.768,0,0,1,42.714-20.352A75.892,75.892,0,0,1-369.8,349.72h2.787c-1.2,1.709-2.2,3.165-3.235,4.568-2.187,3.007-4.333,6.035-6.62,8.968a2.722,2.722,0,0,1-1.844.754c-5.9.443-11.858.4-17.7,1.314a92.578,92.578,0,0,0-28.406,9.728c-9.061,4.706-18.146,9.461-27.231,14.17-4.56,2.363-9.273,3.962-14.365,2.49a11.413,11.413,0,0,1-4.015-2.036c-2.749-2.237-2.629-5.46-1.815-8.625s1.984-6.389,2.947-9.584a11.656,11.656,0,0,0,.534-2.775c.072-1.968-1.021-2.722-2.614-1.815a23.96,23.96,0,0,0-3.048,2.11q-10.89,8.593-21.747,17.234C-496.476,386.452-496.809,386.652-497.43,387.079Z" transform="translate(1960.616 -292.351)" fill="#fff"/>
        <path id="Path_6405" data-name="Path 6405" d="M-244.869,332.718h-12.643l2.918-7.781a8.684,8.684,0,0,0,.616-1.583c.457-2.669,2.046-3.424,4.333-3.724,4.524-.591,9.008-1.535,13.88-2.4-.843,2.205-1.55,4.115-2.3,6.008-3.712,9.374-7.477,18.727-11.131,28.134a46.73,46.73,0,0,0-1.926,6.921c-.178.807,0,2.226.481,2.548a2.534,2.534,0,0,0,2.5-.137c2.836-2.226,5.624-4.553,8.252-7.064a70.7,70.7,0,0,0,4.915-5.676,4.357,4.357,0,0,1-.361,4.014c-4.622,7.56-9.788,14.517-17.583,18.464-3.37,1.688-6.74,3.107-10.563,2.355-2.889-.564-4.583-2.638-4.786-5.8-.26-4.073,1.059-7.776,2.258-11.505.1-.3.226-.578.342-.87.515-1.292.741-3.044,1.642-3.735s2.407-.354,3.657-.2c1.926.238,3.139-.559,4.333-2.268,3.332-4.837,6.87-9.5,10.322-14.243C-245.522,333.82-245.321,333.462-244.869,332.718Z" transform="translate(1841.797 -277)" fill="#fff"/>
        <path id="Path_6406" data-name="Path 6406" d="M-379.59,417.914c2.248-.48,4.487-1.018,6.74-1.419a39.027,39.027,0,0,0,25.835-16.053c2.749-3.8,3.775-8.351,4.439-13.02.616-4.341.583-4.437,4.583-5.175s7.963-1.245,12.133-1.878q.05,1.054,0,2.11a36.968,36.968,0,0,1-10.592,22.557,41.214,41.214,0,0,1-24.183,12.592,90.642,90.642,0,0,1-16.976,1.055c-.655-.032-1.3-.143-1.955-.216Z" transform="translate(1899.51 -306.831)" fill="#fff"/>
        <path id="Path_6407" data-name="Path 6407" d="M-253.163,453.258a32.179,32.179,0,0,1-4.723-1.614,2.791,2.791,0,0,1-.674-4.668,12.262,12.262,0,0,1,4.072-2.5,9.29,9.29,0,0,1,7.222.195c2.72,1.157,3.139,3.54,1.045,5.74C-247.636,451.9-250.168,452.815-253.163,453.258Z" transform="translate(1837.256 -336.822)" fill="#fff"/>
        <path id="Path_6408" data-name="Path 6408" d="M-238.564,422.3a17.544,17.544,0,0,1,3.3,1.34c1.5.923,1.651,2.812.573,4.326-2.234,3.165-8.353,4.785-11.622,3.107-2.46-1.266-2.816-3.624-.809-5.634C-244.919,423.239-242.228,422.453-238.564,422.3Z" transform="translate(1831.492 -326.643)" fill="#fff"/>
        <path id="Path_6409" data-name="Path 6409" d="M-276.545,438.839a32.263,32.263,0,0,1-4.434-1.583,2.879,2.879,0,0,1-.457-4.98,14.455,14.455,0,0,1,5.165-2.532,8,8,0,0,1,6.442.844c2.123,1.345,2.407,3.455.587,5.275C-271.272,437.863-273.767,438.512-276.545,438.839Z" transform="translate(1849.251 -330.004)" fill="#fff"/>
      </g>
      </a>
    </g>
  </g>
</svg>
