<svg xmlns="http://www.w3.org/2000/svg" xmlns:xlink="http://www.w3.org/1999/xlink" width="976.454" height="301.445" viewBox="0 0 976.454 301.445">
  <defs>
    <filter id="Path_1696" x="0" y="0" width="976.454" height="301.445" filterUnits="userSpaceOnUse">
      <feOffset dy="10" input="SourceAlpha"/>
      <feGaussianBlur stdDeviation="5" result="blur"/>
      <feFlood flood-opacity="0.149"/>
      <feComposite operator="in" in2="blur"/>
      <feComposite in="SourceGraphic"/>
    </filter>
  </defs>
  <g id="MobileParseHeader" transform="translate(253.031 27)">
  <a xlink:href="https://parseh.ac.ir/">
    <g  id="surface" transform="matrix(1, 0, 0, 1, -253.03, -27)" filter="url(#Path_1696)">
      <path id="Path_1696-2" data-name="Path 1696" d="M6731.014-496.626c105.611,24.954,167.975,6.938,280.551,37.348s104.722,69.719,257.111,105.219,307.733-66.467,307.733-66.467V-618H6629.985S6625.4-521.58,6731.014-496.626Z" transform="translate(-6614.96 623)" fill="#ff3629"/>
    </g>
    <a xlink:href="https://parseh.ac.ir/">
    <path id="Path_6400" data-name="Path 6400" d="M44.607,10.143a10.656,10.656,0,0,1-1.716-.117V8.687a18.032,18.032,0,0,0,1.885.1,7.834,7.834,0,0,0,2.288-.3,4.976,4.976,0,0,0-.748-1.944,10.182,10.182,0,0,0-1.671-1.892l.884-.923A6.483,6.483,0,0,1,48.1,8.557a4.4,4.4,0,0,1-.091.936A7.152,7.152,0,0,1,44.607,10.143ZM51.12,10H49.9V.692l1.222-.1Zm2.561-7.267.962.845-.806.9-.949-.806Zm1.43,5.8a5.033,5.033,0,0,1-.884,3.139,2.978,2.978,0,0,1-2.509,1.151,5.4,5.4,0,0,1-1.079-.117l.13-1.157a3.456,3.456,0,0,0,.7.065,2.5,2.5,0,0,0,1.157-.253,1.96,1.96,0,0,0,.774-.689,3.343,3.343,0,0,0,.416-.943,4.188,4.188,0,0,0,.136-1.092,12.569,12.569,0,0,0-.494-2.912l1.248-.351A13.212,13.212,0,0,1,55.111,8.531ZM59.531.3l.3.676a2.118,2.118,0,0,1-1.3.416,3.948,3.948,0,0,1-1.073-.208,3.964,3.964,0,0,0-.93-.208,1.182,1.182,0,0,0-.832.4L55.189.835a1.654,1.654,0,0,1,1.352-.78,4.2,4.2,0,0,1,1.014.221A4.171,4.171,0,0,0,58.621.5,2.117,2.117,0,0,0,59.531.3Zm-1.4,9.7H56.9V2.057l1.222-.117Zm8.463,2.938a3.986,3.986,0,0,1-2.7-.819,2.911,2.911,0,0,1-.936-2.314,7.053,7.053,0,0,1,.793-3.12l.975.4a6.376,6.376,0,0,0-.533,2.366q0,2.158,2.665,2.158a4.2,4.2,0,0,0,2.041-.455,2.079,2.079,0,0,0,1.066-1.3,16.384,16.384,0,0,1-2.483-.611l.273-1.209a13.732,13.732,0,0,0,3.913.585h.156V10h-.143q-.221,0-.689-.026a3.184,3.184,0,0,1-1.371,2.151A5.132,5.132,0,0,1,66.59,12.938ZM71.816,10q-.156,0-.254-.2a1.268,1.268,0,0,1,0-.975q.1-.2.254-.2h3.237V10Zm3.237,0q-.156,0-.254-.2a1.268,1.268,0,0,1,0-.975q.1-.2.254-.2h.1a6.488,6.488,0,0,0,1.651-.195q.091-1.066.091-2.47,0-1.716-.052-5.265l1.235-.1q.039,3.458.039,5.057t-.052,2.366a6.654,6.654,0,0,1-.247,1.43,4.513,4.513,0,0,1-1.189.4A7.112,7.112,0,0,1,75.144,10Zm8.021-1.378V10h-.442a2.392,2.392,0,0,1-2.054-.793,3.941,3.941,0,0,1-.585-2.353V.692l1.235-.1V6.633a2.305,2.305,0,0,0,.4,1.541,1.651,1.651,0,0,0,1.287.448Zm0,1.378q-.156,0-.254-.2a1.268,1.268,0,0,1,0-.975q.1-.2.254-.2h.247q.962,0,1.651-.065a2.455,2.455,0,0,1-1.014-2.041,2.516,2.516,0,0,1,.7-1.872,2.432,2.432,0,0,1,1.787-.689,5.264,5.264,0,0,1,2.223.546l-.351,1.053a4.57,4.57,0,0,0-1.651-.364,1.583,1.583,0,0,0-1.085.384,1.293,1.293,0,0,0-.436,1.02,1.686,1.686,0,0,0,.5,1.241,1.457,1.457,0,0,0,1.021.5,13.708,13.708,0,0,0,2.6-.637l.286,1.17a20.689,20.689,0,0,1-3.178.877A17.736,17.736,0,0,1,83.243,10Zm21.879-8.333.845.741-.7.793-.832-.715Zm1,1.417.884.767-.741.832-.871-.741Zm-1.794.065.884.767-.741.832-.871-.741Zm-6.734,9.828a3.707,3.707,0,0,1-2.587-.819,2.926,2.926,0,0,1-.9-2.275,6.784,6.784,0,0,1,.793-3.094l.988.39a5.682,5.682,0,0,0-.546,2.314q0,2.106,2.483,2.106a3.48,3.48,0,0,0,2.164-.611,1.956,1.956,0,0,0,.8-1.638,10.5,10.5,0,0,0-.572-3.12l1.209-.377a14.3,14.3,0,0,1,.533,2.509A2.516,2.516,0,0,0,103,8.635a2.016,2.016,0,0,0,1.144-.312,1.05,1.05,0,0,0,.468-.936v-1.4l1.118-.078V7.452a1.046,1.046,0,0,0,1.2,1.17,2.943,2.943,0,0,0,1.261-.286V8.167a10.9,10.9,0,0,0-.364-2.535l1.157-.273a9.054,9.054,0,0,1,.286,2.2,6.268,6.268,0,0,1-.234,1.859,4.512,4.512,0,0,1-2.184.6,1.881,1.881,0,0,1-1.729-.806,2.466,2.466,0,0,1-2.184.871,4.573,4.573,0,0,1-1.183-.156,3.322,3.322,0,0,1-1.339,2.249A4.973,4.973,0,0,1,97.426,12.977ZM111.739,2.733l.962.845-.806.9-.949-.806Zm1.43,5.8a5.033,5.033,0,0,1-.884,3.139,2.978,2.978,0,0,1-2.509,1.151A5.4,5.4,0,0,1,108.7,12.7l.13-1.157a3.456,3.456,0,0,0,.7.065,2.5,2.5,0,0,0,1.157-.253,1.96,1.96,0,0,0,.773-.689,3.343,3.343,0,0,0,.416-.943,4.188,4.188,0,0,0,.137-1.092,12.569,12.569,0,0,0-.494-2.912l1.248-.351A13.212,13.212,0,0,1,113.169,8.531Zm4.472.091h1.17a4.222,4.222,0,0,0-.462-2,1.382,1.382,0,0,0-1.229-.878,1.162,1.162,0,0,0-1.014.5,1.892,1.892,0,0,0-.351,1.112,1.113,1.113,0,0,0,.416.943A2.5,2.5,0,0,0,117.641,8.622ZM115.99,12.86a5.377,5.377,0,0,1-1.4-.182l.13-1.144a5.844,5.844,0,0,0,1.144.1,3.171,3.171,0,0,0,2-.546,2.2,2.2,0,0,0,.852-1.261q-.78.052-1.391.052a2.74,2.74,0,0,1-2.047-.618,2.4,2.4,0,0,1-.579-1.71,3.369,3.369,0,0,1,.7-2.171,2.186,2.186,0,0,1,1.787-.871,2.3,2.3,0,0,1,1.976,1.105,5.256,5.256,0,0,1,.754,3h.871V10H119.76a3.493,3.493,0,0,1-1.254,2.125A4.017,4.017,0,0,1,115.99,12.86ZM120.774,10q-.156,0-.254-.2a1.268,1.268,0,0,1,0-.975q.1-.2.254-.2h3.237V10Zm8.32-1.248a6.116,6.116,0,0,0,.832-.052A5.007,5.007,0,0,0,130,7.894a2.489,2.489,0,0,0-.351-1.391,1.106,1.106,0,0,0-.975-.533,1.278,1.278,0,0,0-.891.351,5,5,0,0,0-.89,1.352l-.3.572A5.545,5.545,0,0,0,129.094,8.752Zm-.234,1.261a5.433,5.433,0,0,1-2.977-.741,2.311,2.311,0,0,1-1.755.728h-.117q-.156,0-.254-.2a1.268,1.268,0,0,1,0-.975q.1-.2.254-.2h.182a1.318,1.318,0,0,0,1.047-.422,7.471,7.471,0,0,0,.9-1.5,4.962,4.962,0,0,1,1.079-1.482,2.213,2.213,0,0,1,1.5-.481,2.062,2.062,0,0,1,1.736.851,3.425,3.425,0,0,1,.643,2.126,5.386,5.386,0,0,1-.39,2.067A5.981,5.981,0,0,1,128.86,10.013ZM135.451.3l.3.676a2.118,2.118,0,0,1-1.3.416,3.948,3.948,0,0,1-1.073-.208,3.964,3.964,0,0,0-.929-.208,1.182,1.182,0,0,0-.832.4l-.507-.546a1.654,1.654,0,0,1,1.352-.78,4.2,4.2,0,0,1,1.014.221A4.171,4.171,0,0,0,134.541.5,2.117,2.117,0,0,0,135.451.3Zm-1.4,9.7h-1.222V2.057l1.222-.117Zm11.362,0h-.52a1.91,1.91,0,0,1-1.963-1.04,12.387,12.387,0,0,1-1.339.078,4.035,4.035,0,0,1-2.041-.436,1.431,1.431,0,0,1-.741-1.319,3.051,3.051,0,0,1,1.475-2.619,6.107,6.107,0,0,1,3.53-1.008v3.77a1.171,1.171,0,0,0,.312.93,1.758,1.758,0,0,0,1.118.266h.169Zm-3.588-2.171q.416,0,.884-.039V4.969a3.834,3.834,0,0,0-2.067.741,1.693,1.693,0,0,0-.793,1.261q0,.39.5.624A3.617,3.617,0,0,0,141.821,7.829Zm11.453,2.21a1.917,1.917,0,0,1-1.755-.819,1.8,1.8,0,0,1-.917.65,3.829,3.829,0,0,1-1.255.208,3.286,3.286,0,0,1-2.054-.6,2.687,2.687,0,0,1-1.729.52h-.156q-.156,0-.253-.2a1.267,1.267,0,0,1,0-.975q.1-.2.253-.2h.364a1.417,1.417,0,0,0,.975-.292,1.6,1.6,0,0,0,.377-1.1l.078-1,1.1-.091-.065,1.17a4.16,4.16,0,0,1-.169.988,2.472,2.472,0,0,0,1.326.338,2.048,2.048,0,0,0,1.15-.312,1.046,1.046,0,0,0,.475-.936V6.022l1.1-.078V7.452a1.052,1.052,0,0,0,1.209,1.17q1.261,0,1.261-1.144V5.827l1.105-.1v1.69a4.815,4.815,0,0,1-.065.793,3.025,3.025,0,0,0,1.82.416h.143V10h-.247a3.783,3.783,0,0,1-2.223-.663A2.334,2.334,0,0,1,153.274,10.039ZM157.6,10q-.156,0-.253-.2a1.267,1.267,0,0,1,0-.975q.1-.2.253-.2h3.237V10Zm11.089.013a1.881,1.881,0,0,1-1.729-.806,2.466,2.466,0,0,1-2.184.871,3.286,3.286,0,0,1-2.054-.6A2.687,2.687,0,0,1,161,10h-.156q-.156,0-.253-.2a1.267,1.267,0,0,1,0-.975q.1-.2.253-.2h.364a1.417,1.417,0,0,0,.975-.292,1.6,1.6,0,0,0,.377-1.1l.078-.988,1.1-.1-.065,1.17a4.16,4.16,0,0,1-.169.988,2.5,2.5,0,0,0,1.339.338,2.016,2.016,0,0,0,1.144-.312,1.05,1.05,0,0,0,.468-.936v-1.4l1.118-.078V7.452a1.046,1.046,0,0,0,1.2,1.17,2.943,2.943,0,0,0,1.261-.286V8.167a10.9,10.9,0,0,0-.364-2.535l1.157-.273a9.054,9.054,0,0,1,.286,2.2,6.268,6.268,0,0,1-.234,1.859A4.512,4.512,0,0,1,168.692,10.013Zm6.968-1.391h1.17a4.222,4.222,0,0,0-.462-2,1.382,1.382,0,0,0-1.229-.878,1.162,1.162,0,0,0-1.014.5,1.892,1.892,0,0,0-.351,1.112,1.113,1.113,0,0,0,.416.943A2.5,2.5,0,0,0,175.66,8.622Zm-1.651,4.238a5.377,5.377,0,0,1-1.4-.182l.13-1.144a5.844,5.844,0,0,0,1.144.1,3.171,3.171,0,0,0,2-.546,2.2,2.2,0,0,0,.852-1.261q-.78.052-1.391.052a2.74,2.74,0,0,1-2.048-.618,2.4,2.4,0,0,1-.579-1.71,3.369,3.369,0,0,1,.7-2.171,2.186,2.186,0,0,1,1.788-.871,2.3,2.3,0,0,1,1.976,1.105,5.256,5.256,0,0,1,.754,3h.871V10h-1.014a3.493,3.493,0,0,1-1.255,2.125A4.017,4.017,0,0,1,174.009,12.86Zm9.867-4.108a6.116,6.116,0,0,0,.832-.052,5.007,5.007,0,0,0,.078-.806,2.489,2.489,0,0,0-.351-1.391,1.106,1.106,0,0,0-.975-.533,1.278,1.278,0,0,0-.89.351,5,5,0,0,0-.891,1.352l-.3.572A5.545,5.545,0,0,0,183.876,8.752Zm-.234,1.261a5.433,5.433,0,0,1-2.977-.741A2.311,2.311,0,0,1,178.91,10h-.117q-.156,0-.253-.2a1.267,1.267,0,0,1,0-.975q.1-.2.253-.2h.182a1.318,1.318,0,0,0,1.046-.422,7.471,7.471,0,0,0,.9-1.5A4.962,4.962,0,0,1,182,5.216a2.213,2.213,0,0,1,1.495-.481,2.062,2.062,0,0,1,1.736.851,3.425,3.425,0,0,1,.644,2.126,5.386,5.386,0,0,1-.39,2.067A5.981,5.981,0,0,1,183.642,10.013Z" transform="translate(150.467 127.337)" fill="#fff"/>
    <g id="Group_700" data-name="Group 700" transform="translate(-1270.186 3.77)">
      <path id="Path_6404" data-name="Path 6404" d="M-497.43,387.468a13.084,13.084,0,0,1,4.725-8.438c8.121-6.647,16.194-13.325,24.478-19.722a34.06,34.06,0,0,1,12.372-6.109,10.608,10.608,0,0,1,2.986-.277c2.092.08,3.263,1.476,2.866,3.768a34.588,34.588,0,0,1-1.839,6.034c-1.629,4.312-3.6,8.474-4.992,12.872-1.519,4.8.339,7.127,4.7,5.778a66.734,66.734,0,0,0,12.129-5.139,449.653,449.653,0,0,1,42.382-20.564,74.154,74.154,0,0,1,26.828-5.954h2.766c-1.194,1.727-2.188,3.2-3.21,4.616-2.17,3.038-4.3,6.1-6.569,9.061a2.676,2.676,0,0,1-1.83.762c-5.857.448-11.766.4-17.561,1.327a90.745,90.745,0,0,0-28.185,9.829c-8.991,4.755-18,9.559-27.019,14.318-4.524,2.388-9.2,4-14.253,2.516a11.251,11.251,0,0,1-3.984-2.057c-2.728-2.26-2.608-5.517-1.8-8.715s1.968-6.455,2.924-9.684a11.971,11.971,0,0,0,.53-2.8c.071-1.988-1.013-2.75-2.594-1.834a23.757,23.757,0,0,0-3.024,2.132q-10.806,8.682-21.578,17.414C-496.484,386.834-496.814,387.037-497.43,387.468Z" transform="translate(1960.616 -292.172)" fill="#fff"/>
      <path id="Path_6405" data-name="Path 6405" d="M-245.051,332.88H-257.6l2.895-7.862a8.872,8.872,0,0,0,.611-1.6c.454-2.7,2.03-3.459,4.3-3.763,4.489-.6,8.938-1.551,13.772-2.425-.836,2.228-1.538,4.158-2.279,6.071-3.683,9.472-7.419,18.922-11.045,28.427a47.891,47.891,0,0,0-1.911,6.993c-.177.816,0,2.25.478,2.575a2.476,2.476,0,0,0,2.484-.139c2.814-2.25,5.58-4.6,8.188-7.138a71.073,71.073,0,0,0,4.877-5.735,4.472,4.472,0,0,1-.358,4.056c-4.586,7.639-9.712,14.669-17.446,18.656-3.344,1.706-6.688,3.139-10.481,2.379-2.866-.57-4.548-2.665-4.749-5.863-.258-4.115,1.051-7.857,2.241-11.625.1-.3.224-.584.339-.88.511-1.306.735-3.076,1.629-3.774s2.389-.357,3.629-.2c1.911.24,3.115-.565,4.3-2.292,3.306-4.888,6.817-9.594,10.242-14.392C-245.7,333.993-245.5,333.631-245.051,332.88Z" transform="translate(1840.939 -277)" fill="#fff"/>
      <path id="Path_6406" data-name="Path 6406" d="M-379.59,418.3c2.231-.485,4.452-1.029,6.688-1.434a38.636,38.636,0,0,0,25.634-16.22c2.728-3.843,3.745-8.438,4.4-13.155.611-4.387.578-4.483,4.548-5.229s7.9-1.258,12.038-1.9q.05,1.065,0,2.132a37.643,37.643,0,0,1-10.509,22.791,40.656,40.656,0,0,1-24,12.723,88.34,88.34,0,0,1-16.844,1.066c-.65-.032-1.295-.144-1.939-.218Z" transform="translate(1899.069 -306.485)" fill="#fff"/>
      <path id="Path_6407" data-name="Path 6407" d="M-253.213,453.356a31.52,31.52,0,0,1-4.686-1.631,2.846,2.846,0,0,1-.669-4.717,12.132,12.132,0,0,1,4.04-2.521,9.065,9.065,0,0,1,7.166.2c2.7,1.169,3.115,3.576,1.037,5.8C-247.729,451.981-250.241,452.909-253.213,453.356Z" transform="translate(1836.366 -336.126)" fill="#fff"/>
      <path id="Path_6408" data-name="Path 6408" d="M-238.641,422.3a17.234,17.234,0,0,1,3.277,1.354c1.49.933,1.639,2.841.569,4.371-2.217,3.2-8.288,4.835-11.532,3.139-2.441-1.279-2.795-3.662-.8-5.693C-244.946,423.249-242.276,422.454-238.641,422.3Z" transform="translate(1830.559 -326.066)" fill="#fff"/>
      <path id="Path_6409" data-name="Path 6409" d="M-276.592,438.937a31.631,31.631,0,0,1-4.4-1.6,2.935,2.935,0,0,1-.454-5.032,14.239,14.239,0,0,1,5.125-2.558,7.813,7.813,0,0,1,6.392.853c2.107,1.359,2.389,3.491.583,5.33C-271.361,437.951-273.836,438.606-276.592,438.937Z" transform="translate(1848.447 -329.388)" fill="#fff"/>
    </g>
    </a>
  </g>
</svg>
