<svg xmlns="http://www.w3.org/2000/svg" xmlns:xlink="http://www.w3.org/1999/xlink" width="84" height="48" viewBox="0 0 84 48">
  <defs>
    <filter id="Rectangle_DS" x="0" y="0" width="84" height="48" filterUnits="userSpaceOnUse">
      <feOffset dx="1" dy="1" input="SourceAlpha"/>
      <feGaussianBlur stdDeviation="3" result="blur"/>
      <feFlood flood-color="#24415d" flood-opacity="0.302"/>
      <feComposite operator="in" in2="blur"/>
      <feComposite in="SourceGraphic"/>
    </filter>
    <filter id="Rectangle_DS-2" x="0" y="0" width="84" height="48" filterUnits="userSpaceOnUse">
      <feOffset dx="1" dy="1" input="SourceAlpha"/>
      <feGaussianBlur stdDeviation="3" result="blur-2"/>
      <feFlood flood-color="#24415d" flood-opacity="0.302"/>
      <feComposite operator="in" in2="blur-2"/>
      <feComposite in="SourceGraphic"/>
    </filter>
    <linearGradient id="linear-gradient" x1="0.396" y1="0.693" x2="0.38" gradientUnits="objectBoundingBox">
      <stop offset="0" stop-color="#575f6b"/>
      <stop offset="1" stop-color="#2c3036"/>
    </linearGradient>
  </defs>
  <g id="PardisLeftIcon" transform="translate(-6099 -2843)">
    <g transform="matrix(1, 0, 0, 1, 6099, 2843)" filter="url(#Rectangle_DS)">
      <rect id="Rectangle_DS-3" data-name="Rectangle DS" width="66" height="30" rx="10" transform="translate(8 8)" fill="#edeef2" opacity="0.8"/>
    </g>
    <g transform="matrix(1, 0, 0, 1, 6099, 2843)" filter="url(#Rectangle_DS-2)">
      <rect id="Rectangle_DS-4" data-name="Rectangle DS" width="66" height="30" rx="10" transform="translate(8 8)" fill="#dedfe1" opacity="0.8"/>
    </g>
    <path id="awesome-play" d="M7.662,3.876,1.307.119A.862.862,0,0,0,0,.864V8.377a.866.866,0,0,0,1.307.746L7.662,5.367a.866.866,0,0,0,0-1.491Z" transform="translate(6135 2870.088) rotate(-90)" fill="url(#linear-gradient)"/>
    <circle id="Ellipse_1" data-name="Ellipse 1" cx="10.5" cy="10.5" r="10.5" transform="translate(6129.5 2855.5)" fill="none" stroke="#535b66" stroke-width="2"/>
  </g>
</svg>
