<svg xmlns="http://www.w3.org/2000/svg" xmlns:xlink="http://www.w3.org/1999/xlink" width="53vw" height="21vw" viewBox="0 0 1104.288 433.82">
  <defs>
    <filter id="Intersection_1" x="0" y="0" width="1104.288" height="379.985" filterUnits="userSpaceOnUse">
      <feOffset dy="10" input="SourceAlpha"/>
      <feGaussianBlur stdDeviation="5" result="blur"/>
      <feFlood flood-opacity="0.149"/>
      <feComposite operator="in" in2="blur"/>
      <feComposite in="SourceGraphic"/>
    </filter>
  </defs>
  <g id="ParseHeader" transform="translate(-817 0)">
    <g id="hashoor" transform="translate(-23.555 -35.071)">
      <path id="Path_1362" data-name="Path 1362" d="M1605.856,451.633q.573.24,1.152.475a8.535,8.535,0,0,0,9.263-1.916L1816.176,248.6a8.533,8.533,0,0,0,1.839-9.279c-.16-.385-.323-.766-.486-1.147Z" fill="#262940"/>
      <path id="Path_1363" data-name="Path 1363" d="M1585.54,441.367l.057.034a8.322,8.322,0,0,0,10.172-1.289l210.157-211.931a8.321,8.321,0,0,0,1.2-10.181l-.035-.057Z" fill="#262940"/>
      <path id="Path_1364" data-name="Path 1364" d="M1567.474,428.831c1.675,1.336,3.364,2.656,5.092,3.927l225.809-227.716c-1.284-1.718-2.618-3.4-3.968-5.06Z" fill="#262940"/>
      <path id="Path_1365" data-name="Path 1365" d="M1655,463.577q2.361.192,4.743.318a8.467,8.467,0,0,0,6.43-2.525l161.6-162.962a8.458,8.458,0,0,0,2.47-6.451q-.142-2.379-.358-4.74Z" fill="#262940"/>
      <path id="Path_1366" data-name="Path 1366" d="M1725.749,453.74a159.834,159.834,0,0,0,14.725-6.443,8.77,8.77,0,0,0,2.318-1.682l69.872-70.462a8.793,8.793,0,0,0,1.663-2.333,160.379,160.379,0,0,0,6.318-14.776Z" fill="#262940"/>
      <path id="Path_1367" data-name="Path 1367" d="M1628.776,459.273q1.347.337,2.7.655a8.553,8.553,0,0,0,7.966-2.357l184.3-185.859a8.553,8.553,0,0,0,2.288-7.986q-.325-1.353-.678-2.7Z" fill="#262940"/>
      <path id="Path_1368" data-name="Path 1368" d="M1685.824,463.249c2.6-.277,5.172-.636,7.729-1.045a8.545,8.545,0,0,0,4.709-2.437l128.18-129.26a8.563,8.563,0,0,0,2.4-4.73c.388-2.56.725-5.136.98-7.738Z" fill="#262940"/>
      <path id="Path_1369" data-name="Path 1369" d="M1537.5,397.555q1.9,2.6,3.906,5.121l226.629-228.542q-2.541-1.98-5.155-3.863Z" fill="#262940"/>
      <path id="Path_1370" data-name="Path 1370" d="M1510.991,270.517a8.546,8.546,0,0,0-2.381,4.6q-.66,3.966-1.129,8l140.713-141.9q-4.027.5-7.991,1.2a8.555,8.555,0,0,0-4.58,2.421Z" fill="#262940"/>
      <path id="Path_1371" data-name="Path 1371" d="M1526.924,223.7a8.932,8.932,0,0,0-1.536,2.073,162.249,162.249,0,0,0-7.449,16.05l89.044-89.8A162.732,162.732,0,0,0,1591,159.6a8.922,8.922,0,0,0-2.059,1.554Z" fill="#262940"/>
      <path id="Path_1372" data-name="Path 1372" d="M1509.04,303.239a8.461,8.461,0,0,0-2.476,6.325q.111,2.477.3,4.93l172.7-174.158q-2.457-.165-4.931-.259a8.467,8.467,0,0,0-6.307,2.531Z" fill="#262940"/>
      <path id="Path_1373" data-name="Path 1373" d="M1520.048,353.644a8.5,8.5,0,0,0-1.908,9.143q.264.652.536,1.3l210.581-212.36c-.436-.176-.871-.353-1.309-.525a8.5,8.5,0,0,0-9.124,1.985Z" fill="#262940"/>
      <path id="Path_1374" data-name="Path 1374" d="M1530.088,374.273a8.342,8.342,0,0,0-1.255,10.123l.075.128,220.869-222.733h0a8.534,8.534,0,0,0-10.345,1.371Z" fill="#262940"/>
      <path id="Path_1375" data-name="Path 1375" d="M1779.656,184.106,1551.473,414.214q2.21,2.3,4.5,4.523l228.243-230.168Q1781.981,186.289,1779.656,184.106Z" fill="#262940"/>
      <path id="Path_1376" data-name="Path 1376" d="M1512.73,330.271a8.556,8.556,0,0,0-2.312,7.884c.216.947.441,1.888.673,2.829l195-196.644q-1.413-.334-2.835-.647a8.552,8.552,0,0,0-7.865,2.377Z" fill="#262940"/>
    </g>
    <g transform="matrix(1, 0, 0, 1, 830.29, -4.98)" filter="url(#Intersection_1)">
      <a xlink:href="https://parseh.ac.ir/">
        <path id="Intersection_1-2" data-name="Intersection 1" d="M-3098.862,355.864C-3304.324,308-3293.734,255-3445.518,214s-235.866-16.71-378.259-50.355C-3935.325,137.288-3955.7,51.8-3959.288,16H-2885V350.466c-38.354,9.311-80.012,15.517-122.907,15.516a400.407,400.407,0,0,1-90.955-10.118Z" transform="translate(3974.29 -11)" fill="#ff3629"/>
      </a>
    </g>
    <a xlink:href="https://parseh.ac.ir/">
    <path id="Path_6410" data-name="Path 6410" d="M9.455,21.972a6.746,6.746,0,0,1-4.576-1.386A4.926,4.926,0,0,1,3.295,16.67a11.936,11.936,0,0,1,1.342-5.28l1.65.682a10.79,10.79,0,0,0-.9,4q0,3.652,4.51,3.652a7.116,7.116,0,0,0,3.454-.77,3.518,3.518,0,0,0,1.8-2.2,27.727,27.727,0,0,1-4.2-1.034l.462-2.046a23.239,23.239,0,0,0,6.622.99H18.3V17h-.242q-.374,0-1.166-.044A5.389,5.389,0,0,1,14.57,20.6,8.685,8.685,0,0,1,9.455,21.972ZM18.3,17q-.264,0-.429-.341a2.145,2.145,0,0,1,0-1.65q.165-.341.429-.341h5.478V17Zm5.478,0q-.264,0-.429-.341a2.145,2.145,0,0,1,0-1.65q.165-.341.429-.341h5.478V17Zm5.478,0q-.264,0-.429-.341a2.145,2.145,0,0,1,0-1.65q.165-.341.429-.341h5.478V17Zm5.478,0q-.264,0-.429-.341a2.145,2.145,0,0,1,0-1.65q.165-.341.429-.341h5.478V17Zm5.478,0q-.264,0-.429-.341a2.145,2.145,0,0,1,0-1.65q.165-.341.429-.341h5.478V17Zm5.478,0q-.264,0-.429-.341a2.145,2.145,0,0,1,0-1.65q.165-.341.429-.341h5.478V17Zm5.478,0q-.264,0-.429-.341a2.145,2.145,0,0,1,0-1.65q.165-.341.429-.341h.176a10.979,10.979,0,0,0,2.794-.33q.154-1.8.154-4.18,0-2.9-.088-8.91l2.09-.176q.066,5.852.066,8.558t-.088,4a11.26,11.26,0,0,1-.418,2.42,7.638,7.638,0,0,1-2.013.671A12.036,12.036,0,0,1,51.321,17Zm13.574-2.332V17h-.748a4.049,4.049,0,0,1-3.476-1.342,6.67,6.67,0,0,1-.99-3.982V1.248l2.09-.176V11.3a3.9,3.9,0,0,0,.682,2.607,2.793,2.793,0,0,0,2.178.759Zm0,2.332q-.264,0-.429-.341a2.145,2.145,0,0,1,0-1.65q.165-.341.429-.341h.418q1.628,0,2.794-.11A4.154,4.154,0,0,1,66.237,11.1a4.258,4.258,0,0,1,1.177-3.168A4.116,4.116,0,0,1,70.439,6.77a8.908,8.908,0,0,1,3.762.924l-.594,1.782a7.734,7.734,0,0,0-2.794-.616,2.679,2.679,0,0,0-1.837.649,2.187,2.187,0,0,0-.737,1.727,2.853,2.853,0,0,0,.847,2.1,2.466,2.466,0,0,0,1.727.847,23.2,23.2,0,0,0,4.4-1.078l.484,1.98a35.012,35.012,0,0,1-5.379,1.485A30.014,30.014,0,0,1,65.027,17ZM101.767,2.9l1.43,1.254-1.188,1.342L100.6,4.284Zm1.694,2.4,1.5,1.3L103.7,8l-1.474-1.254Zm-3.036.11,1.5,1.3-1.254,1.408L99.193,6.858Zm-11.4,16.632a6.273,6.273,0,0,1-4.378-1.386,4.951,4.951,0,0,1-1.518-3.85,11.48,11.48,0,0,1,1.342-5.236l1.672.66a9.616,9.616,0,0,0-.924,3.916q0,3.564,4.2,3.564a5.889,5.889,0,0,0,3.663-1.034A3.311,3.311,0,0,0,94.441,15.9a17.765,17.765,0,0,0-.968-5.28l2.046-.638a24.2,24.2,0,0,1,.9,4.246,4.258,4.258,0,0,0,2.046.462,3.412,3.412,0,0,0,1.936-.528,1.777,1.777,0,0,0,.792-1.584V10.2l1.892-.132v2.618a1.77,1.77,0,0,0,2.024,1.98,4.98,4.98,0,0,0,2.134-.484V13.9a18.444,18.444,0,0,0-.616-4.29l1.958-.462a15.323,15.323,0,0,1,.484,3.718,10.608,10.608,0,0,1-.4,3.146,7.635,7.635,0,0,1-3.7,1.012,3.184,3.184,0,0,1-2.926-1.364q-1.012,1.474-3.7,1.474a7.738,7.738,0,0,1-2-.264,5.622,5.622,0,0,1-2.266,3.806A8.417,8.417,0,0,1,89.029,22.038ZM113.251,4.7l1.628,1.43L113.515,7.65l-1.606-1.364Zm2.42,9.812a8.517,8.517,0,0,1-1.5,5.313,5.04,5.04,0,0,1-4.246,1.947,9.13,9.13,0,0,1-1.826-.2l.22-1.958a5.848,5.848,0,0,0,1.188.11,4.234,4.234,0,0,0,1.958-.429,3.317,3.317,0,0,0,1.309-1.166,5.657,5.657,0,0,0,.7-1.595,7.087,7.087,0,0,0,.231-1.848,21.27,21.27,0,0,0-.836-4.928l2.112-.594A22.358,22.358,0,0,1,115.671,14.514Zm7.568.154h1.98a7.145,7.145,0,0,0-.781-3.377,2.338,2.338,0,0,0-2.079-1.485,1.967,1.967,0,0,0-1.716.847,3.2,3.2,0,0,0-.594,1.881,1.884,1.884,0,0,0,.7,1.595A4.239,4.239,0,0,0,123.239,14.668Zm-2.794,7.172a9.1,9.1,0,0,1-2.376-.308l.22-1.936a9.889,9.889,0,0,0,1.936.176,5.367,5.367,0,0,0,3.377-.924,3.721,3.721,0,0,0,1.441-2.134q-1.32.088-2.354.088a4.637,4.637,0,0,1-3.465-1.045,4.065,4.065,0,0,1-.979-2.893,5.7,5.7,0,0,1,1.177-3.674,3.7,3.7,0,0,1,3.025-1.474,3.886,3.886,0,0,1,3.344,1.87,8.9,8.9,0,0,1,1.276,5.082h1.474V17h-1.716a5.911,5.911,0,0,1-2.123,3.6A6.8,6.8,0,0,1,120.445,21.84Zm8.1-4.84q-.264,0-.429-.341a2.145,2.145,0,0,1,0-1.65q.165-.341.429-.341h5.478V17Zm5.478,0q-.264,0-.429-.341a2.145,2.145,0,0,1,0-1.65q.165-.341.429-.341H139.5V17Zm5.478,0q-.264,0-.429-.341a2.145,2.145,0,0,1,0-1.65q.165-.341.429-.341h5.478V17Zm5.478,0q-.264,0-.429-.341a2.145,2.145,0,0,1,0-1.65q.165-.341.429-.341h5.478V17Zm14.08-2.112a10.35,10.35,0,0,0,1.408-.088,8.474,8.474,0,0,0,.132-1.364A4.211,4.211,0,0,0,160,11.082a1.872,1.872,0,0,0-1.65-.9,2.163,2.163,0,0,0-1.507.594,8.465,8.465,0,0,0-1.507,2.288l-.506.968A9.383,9.383,0,0,0,159.055,14.888Zm-.4,2.134a9.194,9.194,0,0,1-5.038-1.254A3.911,3.911,0,0,1,150.651,17h-.2q-.264,0-.429-.341a2.145,2.145,0,0,1,0-1.65q.165-.341.429-.341h.308a2.23,2.23,0,0,0,1.771-.715,12.643,12.643,0,0,0,1.529-2.541A8.4,8.4,0,0,1,155.887,8.9a3.746,3.746,0,0,1,2.53-.814,3.49,3.49,0,0,1,2.937,1.441,5.8,5.8,0,0,1,1.089,3.6,9.114,9.114,0,0,1-.66,3.5A10.122,10.122,0,0,1,158.659,17.022ZM169.813.588l.506,1.144a3.585,3.585,0,0,1-2.2.7,6.681,6.681,0,0,1-1.815-.352,6.708,6.708,0,0,0-1.573-.352,2,2,0,0,0-1.408.682l-.858-.924A2.8,2.8,0,0,1,164.753.17a7.112,7.112,0,0,1,1.716.374,7.059,7.059,0,0,0,1.8.374A3.583,3.583,0,0,0,169.813.588ZM167.437,17h-2.068V3.558l2.068-.2Zm19.228,0h-.88q-2.552,0-3.322-1.76a20.963,20.963,0,0,1-2.266.132,6.829,6.829,0,0,1-3.454-.737,2.421,2.421,0,0,1-1.254-2.233,5.164,5.164,0,0,1,2.5-4.433,10.334,10.334,0,0,1,5.973-1.7v6.38a1.982,1.982,0,0,0,.528,1.573,2.975,2.975,0,0,0,1.892.451h.286Zm-6.072-3.674q.7,0,1.5-.066V8.486a6.489,6.489,0,0,0-3.5,1.254,2.864,2.864,0,0,0-1.342,2.134q0,.66.847,1.056A6.121,6.121,0,0,0,180.593,13.326Zm19.382,3.74A3.244,3.244,0,0,1,197,15.68a3.037,3.037,0,0,1-1.551,1.1,6.479,6.479,0,0,1-2.123.352,5.561,5.561,0,0,1-3.476-1.012,4.548,4.548,0,0,1-2.926.88h-.264q-.264,0-.429-.341a2.145,2.145,0,0,1,0-1.65q.165-.341.429-.341h.616a2.4,2.4,0,0,0,1.65-.495,2.7,2.7,0,0,0,.638-1.859l.132-1.694,1.87-.154-.11,1.98a7.041,7.041,0,0,1-.286,1.672,4.183,4.183,0,0,0,2.244.572,3.465,3.465,0,0,0,1.947-.528,1.769,1.769,0,0,0,.8-1.584v-2.31l1.87-.132v2.552a1.78,1.78,0,0,0,2.046,1.98q2.134,0,2.134-1.936V9.938l1.87-.176v2.86a8.149,8.149,0,0,1-.11,1.342,5.118,5.118,0,0,0,3.08.7h.242V17h-.418a6.4,6.4,0,0,1-3.762-1.122A3.949,3.949,0,0,1,199.975,17.066ZM207.3,17q-.264,0-.429-.341a2.145,2.145,0,0,1,0-1.65q.165-.341.429-.341h5.478V17Zm5.478,0q-.264,0-.429-.341a2.145,2.145,0,0,1,0-1.65q.165-.341.429-.341h5.478V17Zm5.478,0q-.264,0-.429-.341a2.145,2.145,0,0,1,0-1.65q.165-.341.429-.341h5.478V17Zm5.478,0q-.264,0-.429-.341a2.145,2.145,0,0,1,0-1.65q.165-.341.429-.341h5.478V17Zm18.766.022a3.184,3.184,0,0,1-2.926-1.364q-1.012,1.474-3.7,1.474A5.561,5.561,0,0,1,232.4,16.12a4.548,4.548,0,0,1-2.926.88h-.264q-.264,0-.429-.341a2.145,2.145,0,0,1,0-1.65q.165-.341.429-.341h.616a2.4,2.4,0,0,0,1.65-.495,2.7,2.7,0,0,0,.638-1.859l.132-1.672,1.87-.176-.11,1.98a7.041,7.041,0,0,1-.286,1.672,4.227,4.227,0,0,0,2.266.572,3.412,3.412,0,0,0,1.936-.528,1.777,1.777,0,0,0,.792-1.584V10.2l1.892-.132v2.618a1.77,1.77,0,0,0,2.024,1.98,4.98,4.98,0,0,0,2.134-.484V13.9a18.445,18.445,0,0,0-.616-4.29l1.958-.462a15.322,15.322,0,0,1,.484,3.718,10.607,10.607,0,0,1-.4,3.146A7.635,7.635,0,0,1,242.5,17.022Zm11.792-2.354h1.98a7.145,7.145,0,0,0-.781-3.377,2.338,2.338,0,0,0-2.079-1.485,1.967,1.967,0,0,0-1.716.847,3.2,3.2,0,0,0-.594,1.881,1.884,1.884,0,0,0,.7,1.595A4.239,4.239,0,0,0,254.293,14.668ZM251.5,21.84a9.1,9.1,0,0,1-2.376-.308l.22-1.936a9.889,9.889,0,0,0,1.936.176,5.367,5.367,0,0,0,3.377-.924,3.722,3.722,0,0,0,1.441-2.134q-1.32.088-2.354.088a4.637,4.637,0,0,1-3.465-1.045,4.065,4.065,0,0,1-.979-2.893,5.7,5.7,0,0,1,1.177-3.674A3.7,3.7,0,0,1,253.5,7.716a3.885,3.885,0,0,1,3.344,1.87,8.9,8.9,0,0,1,1.276,5.082h1.474V17h-1.716a5.911,5.911,0,0,1-2.123,3.6A6.8,6.8,0,0,1,251.5,21.84Zm16.7-6.952A10.35,10.35,0,0,0,269.6,14.8a8.476,8.476,0,0,0,.132-1.364,4.211,4.211,0,0,0-.594-2.354,1.872,1.872,0,0,0-1.65-.9,2.164,2.164,0,0,0-1.507.594,8.465,8.465,0,0,0-1.507,2.288l-.506.968A9.383,9.383,0,0,0,268.2,14.888Zm-.4,2.134a9.194,9.194,0,0,1-5.038-1.254A3.911,3.911,0,0,1,259.793,17h-.2q-.264,0-.429-.341a2.145,2.145,0,0,1,0-1.65q.165-.341.429-.341h.308a2.23,2.23,0,0,0,1.771-.715,12.644,12.644,0,0,0,1.529-2.541A8.4,8.4,0,0,1,265.029,8.9a3.746,3.746,0,0,1,2.53-.814A3.49,3.49,0,0,1,270.5,9.531a5.8,5.8,0,0,1,1.089,3.6,9.114,9.114,0,0,1-.66,3.5A10.122,10.122,0,0,1,267.8,17.022Z" transform="translate(1570 243.744)" fill="#fff"/>
    <g id="Group_700" data-name="Group 700">
      <path id="Path_6404" data-name="Path 6404" d="M-497.43,440.152A30.722,30.722,0,0,1-484.8,419.938c21.708-15.923,43.288-31.923,65.43-47.246A95.642,95.642,0,0,1-386.3,358.058a31.527,31.527,0,0,1,7.981-.664c5.593.192,8.721,3.537,7.662,9.028a76.619,76.619,0,0,1-4.916,14.455c-4.354,10.33-9.628,20.3-13.344,30.838-4.061,11.492.907,17.073,12.565,13.842a190.094,190.094,0,0,0,32.421-12.31c37.031-18,74.624-34.937,113.289-49.264,23.138-8.568,46.965-13.778,71.712-14.263h7.393c-3.192,4.137-5.848,7.662-8.581,11.058-5.8,7.279-11.492,14.608-17.558,21.708-1,1.175-3.205,1.711-4.891,1.826-15.655,1.073-31.451.97-46.94,3.18-26.266,3.729-51.307,12.156-75.339,23.547s-48.128,22.9-72.223,34.3c-12.093,5.721-24.594,9.59-38.1,6.027a31.452,31.452,0,0,1-10.65-4.929c-7.291-5.414-6.972-13.216-4.814-20.878s5.261-15.464,7.815-23.2a26.049,26.049,0,0,0,1.417-6.717c.191-4.763-2.707-6.589-6.934-4.393a64.05,64.05,0,0,0-8.083,5.108q-28.884,20.8-57.679,41.717C-494.9,438.633-495.783,439.118-497.43,440.152Z" transform="translate(1960.616 -268.003)" fill="#fff"/>
      <path id="Path_6405" data-name="Path 6405" d="M-206.168,354.721H-239.7l7.738-18.835a19.956,19.956,0,0,0,1.634-3.831c1.213-6.461,5.427-8.287,11.492-9.015,12-1.43,23.891-3.716,36.814-5.81-2.235,5.338-4.112,9.96-6.091,14.544-9.845,22.691-19.831,45.331-29.523,68.1a105.5,105.5,0,0,0-5.108,16.753c-.472,1.954,0,5.389,1.277,6.168a7.279,7.279,0,0,0,6.64-.332c7.521-5.389,14.915-11.02,21.887-17.1,4.674-4.061,8.594-8.939,13.037-13.74a9.756,9.756,0,0,1-.958,9.717c-12.259,18.3-25.96,35.141-46.634,44.693-8.939,4.086-17.877,7.521-28.016,5.7-7.662-1.366-12.156-6.385-12.693-14.046-.69-9.858,2.809-18.822,5.989-27.85.255-.715.6-1.4.907-2.107,1.366-3.128,1.966-7.368,4.354-9.041s6.385-.856,9.7-.485c5.108.575,8.326-1.354,11.492-5.491,8.836-11.709,18.222-22.985,27.377-34.477C-207.9,357.389-207.368,356.521-206.168,354.721Z" transform="translate(2024.072 -277)" fill="#fff"/>
      <path id="Path_6406" data-name="Path 6406" d="M-379.59,471.249c5.963-1.162,11.9-2.464,17.877-3.435,27.671-4.482,50.95-16.664,68.52-38.857,7.291-9.207,10.011-20.214,11.773-31.515,1.634-10.509,1.545-10.739,12.156-12.527s21.12-3.014,32.179-4.546a48.911,48.911,0,0,1,0,5.108c-2.554,21.708-12.169,39.751-28.092,54.6a113.11,113.11,0,0,1-64.14,30.48,263.053,263.053,0,0,1-45.025,2.554c-1.737-.077-3.461-.345-5.184-.523Z" transform="translate(1993.25 -259.515)" fill="#fff"/>
      <path id="Path_6407" data-name="Path 6407" d="M-242.635,466.632c-4.188-1.277-8.619-2.056-12.527-3.907-4.98-2.375-5.887-7.662-1.788-11.3a33.2,33.2,0,0,1,10.8-6.04,26.815,26.815,0,0,1,19.154.472c7.215,2.8,8.326,8.568,2.771,13.893C-227.976,463.338-234.692,465.56-242.635,466.632Z" transform="translate(2026.497 -241.937)" fill="#fff"/>
      <path id="Path_6408" data-name="Path 6408" d="M-222.282,422.3a49.181,49.181,0,0,1,8.76,3.243c3.984,2.235,4.38,6.806,1.52,10.471-5.925,7.662-22.155,11.582-30.825,7.521-6.525-3.065-7.47-8.773-2.145-13.638C-239.137,424.573-232,422.67-222.282,422.3Z" transform="translate(2029.575 -247.903)" fill="#fff"/>
      <path id="Path_6409" data-name="Path 6409" d="M-266.429,452.228c-3.933-1.277-8.109-2.056-11.761-3.831-5.35-2.669-6.091-8.555-1.213-12.054a39.942,39.942,0,0,1,13.7-6.129,22.985,22.985,0,0,1,17.085,2.043c5.631,3.256,6.385,8.364,1.558,12.769C-252.446,449.865-259.061,451.436-266.429,452.228Z" transform="translate(2020.091 -245.933)" fill="#fff"/>
    </g></a>
  </g>
</svg>
