<svg xmlns="http://www.w3.org/2000/svg" width="798.255" height="836.498" viewBox="0 0 798.255 836.498">
  <path id="Intersection_1" data-name="Intersection 1" d="M84.982-4501.5q.415-3.988.88-7.972c1.5-12.875,4.051-25.646,5.089-38.549.647-8.043-.877-16.239-1-24.375-.141-8.967-1.589-18.434.715-26.808,4.447-16.171,3.425-32.3,3.129-48.552A9.256,9.256,0,0,0,92-4653.209c-5.239-6.2-4.724-12.554-.716-18.876,1.866-2.944,1.886-4.928-.217-7.916-9.512-13.522-18.364-27.445-20.391-44.42a63.9,63.9,0,0,1-.546-10.45c.476-10.421-2.418-19.459-9.372-27.442-6.621-7.6-7.567-17.549-9.74-26.9-4.772-20.542-9.6-41.075-14.066-61.684a138.628,138.628,0,0,1-2.243-18.816c-1.6-21.033-3.056-42.077-4.536-63.118-1.512-21.483,7.129-39.195,20.583-55.08a96.082,96.082,0,0,1,29.135-23.811c10.126-5.275,19.517-12.043,28.9-18.621a52.826,52.826,0,0,0,10.26-10.119c5.839-7.188,12.566-12.81,20.823-14.482,1.219-2.988,1.558-5.21,2.8-6.642,6.527-7.51,11.791-15.675,14.506-25.344.22-.783.566-2.1,1.007-2.168,7.74-1.2,8.2-9.323,11.655-13.9,3.141-4.163,1.314-12.329,1.063-18.7-.166-4.19-1.764-7.98-5.965-10.306-1.524-.843-2.623-2.935-3.338-4.69-6.65-16.322-13.076-32.736-19.765-49.041-4.928-12.01-4.506-24.756-5.728-37.3-1.515-15.54,3.327-29.932,7.571-44.446,1.865-6.379,3.6-12.83,6-19.016,7.094-18.341,14.22-23.226,33.752-23.607a5.492,5.492,0,0,0,.831-1.506c2.53-12.018,11.094-17.116,22.143-19.328,10.238-2.048,20.427-4.516,30.761-5.833,5.1-.647,10.659.23,15.71,1.556,13.966,3.663,28.032,7.224,41.534,12.238,6.932,2.575,12.988,7.848,19,12.475,6.838,5.264,12.884,11.511,22.41,11.908,2.314.1,4.535,2.369,6.536,4.507H338.2c7.152,11.526,15.534,15.247,29.075,13.168l.523,1.241-10,3.785-.118.923,13.722,1.519.327.813c-3.335.941-6.65,1.958-10.008,2.8a77.951,77.951,0,0,0-10.3,2.917c7.479,3.2,15.031,3.189,22.733,1.455-7.822,5.762-16.707,4.055-26.468,2.937,4.544,6.927,10.99,8.935,16.712,12.286-9.428,1.4-17.845-2.977-27.024-5.5,1.241,9.07,2.252,17.585,3.613,26.045,1.184,7.365,2.755,14.669,4.166,22,.651,3.376.724,6.146-2.708,8.677-5.052,3.729-5.733,6.833-2.841,12.566,3.661,7.256,8.007,14.168,12.082,21.213,1.582,2.736,3.342,5.375,4.826,8.161,2.849,5.346,1.343,8.746-4.471,10.4-.635.181-1.307.237-1.96.363-9.074,1.744-11.131,5.343-7.192,13.534,1.267,2.634,1.059,4.218-1.075,5.957-1.534,1.251-2.888,2.721-4.669,4.425,3,3.519,4.154,6.9-.35,10.348-1.086.831-1.146,3.831-.741,5.62,1.019,4.523,2.02,9.2,4.058,13.3,2.311,4.65,1.034,7.869-2.154,11.1-6.066,6.15-13.8,9.321-21.87,11.386a188.594,188.594,0,0,1-24.46,4.613c-4.481.534-7.417,2.286-9.277,5.365,4.464,9.483,10.067,18.253,12.691,27.839,2.574,9.405,7.979,13.979,16.026,18.306A421.466,421.466,0,0,1,349.6-4990.6c18.113,12.42,31.5,29.166,40.5,49.105,7.106,15.741,13.2,31.936,19.852,47.885,1.059,2.539,2.944,4.735,3.964,7.283,2.488,6.216,4.693,12.546,7.393,19.856,7.712,3.222,9.349,5.585,7.865,16.059a15.829,15.829,0,0,0,3.672,13.342c2.753,3.32,5.02,7.042,7.571,10.535,3.048,4.172,5.553,4.192,8.148-.313a122.886,122.886,0,0,0,5.27-11.292c2.378-5.314,4.544-10.727,7.089-15.957,3.892-8,8.827-14.948,16.489-20.188,7.089-4.852,13.207-11.139,19.674-16.884,5.657-5.024,11.549-9.51,19.324-10.739,6.3-.995,10.7-4.1,12.157-10.792.3-1.392,2.417-3.554,3.331-3.385,1.574.291,4.081,2.16,4.058,3.322a126.267,126.267,0,0,1-1.617,15.554c-.252,1.731-1.189,3.362-2.492,6.866,5.6-1,10.424-.812,14.2-2.713,23.319-11.755,46.4-23.989,69.567-36.039,1.765-.917,3.59-2.19,5.457-2.322,2.046-.145,5.526.308,5.976,1.45a11.409,11.409,0,0,1-.172,7.716c-.669,1.714-3.077,2.933-4.936,3.969q-22.656,12.638-45.416,25.088c-5.559,3.035-7.175,7.518-3.459,12.561,3.389,4.6,3.436,9.254,2.743,14.589-1.251,9.668-2.035,19.411-2.614,29.147-.417,7-1.241,13.625-3.928,20.354-3.4,8.514-5,17.746-7.507,27.184,1.511-.362,3.355-.673,5.114-1.248q94.124-30.689,188.192-61.547c4.771-1.574,7.1-.579,9.664,3.44,6.612,10.386,13.723,20.453,20.453,30.767,1.736,2.662,3.394,3.467,6.5,2.361,6.1-2.174,12.328-4.031,18.558-5.822,1.2-.346,3.464-.264,3.867.424,2.264,3.858,5.4,3.8,9.051,2.811,1.051-.287,2.248-.044,4.075-.044-.413,5.646-.733,10.9-1.192,16.136-1.449,16.566-2.953,33.13-4.421,49.7-.118,1.322-.591,2.865-.1,3.948,2.83,6.272-.889,7.853-5.893,9.5q-33.88,11.134-67.569,22.843c-2.374.825-4.575,3.005-6.162,5.087-4.812,6.31-9.218,12.928-13.911,19.332-3.023,4.124-6.271,8.081-9.419,12.112a5.453,5.453,0,0,1-.933,1.166c-6.8,4.846-12.173,10.962-17.776,17.162-5.427,6-14.572,10.553-22.669,11.738-9.529,1.393-18.34,4.39-27.323,7.106a11.48,11.48,0,0,0-6.106,5.653c-1.76,3.672-2.3,7.918-3.464,11.891-2.426,8.271-4.78,16.569-7.567,24.718-.365,1.07-3.37,2.227-4.691,1.824-9.616-2.926-19.032-6.524-28.674-9.352-9.4-2.757-19.07-4.6-28.48-7.333-5.365-1.561-10.441-4.114-15.656-6.2q-19.682-7.864-39.385-15.671a7.126,7.126,0,0,0-3.826-.516c-7.519,1.59-14.094-.528-21.124-3.377-18.615-7.542-37.486-14.549-56.614-20.644-4.343-1.385-10.188,1.619-15.216,3.043-.764.216-1.283,2.854-1.185,4.323,1.618,24.729,3.7,49.434,4.951,74.18,1.038,20.606,1.382,41.258,1.566,61.894q.074,8.224.139,16.45ZM508.39-4700.529c8.8,19.565,17.656,39.106,26.389,58.7,1.261,2.829,2.847,3.089,5.472,2.043,8.494-3.385,17.057-6.6,25.581-9.913,4.052-1.575,8.077-3.225,12.115-4.842-.131-.327-.26-.654-.391-.981L537.4-4640.684c-9.676-20.809-19.112-41.1-28.545-61.39C508.225-4701.371,508.22-4700.911,508.39-4700.529Zm81.568-37.338c.17.491.34.979.509,1.469l149.154-51.7q-.247-.714-.5-1.431ZM211.033-5038.712q28.015,23.126,56.031,46.254l.98-1.185-55.989-46.3Zm-6.582-35.157q30.323,15.7,60.676,31.339l.83-1.638-61.3-30.563A3.644,3.644,0,0,0,204.451-5073.87Z" transform="translate(-29.508 5337.499)" stroke="rgba(0,0,0,0)" stroke-miterlimit="10" stroke-width="1"/>
</svg>
