<svg xmlns="http://www.w3.org/2000/svg" width="109.516" height="109.516" viewBox="0 0 109.516 109.516">
  <g id="Group_684" data-name="Group 684" transform="translate(-72 -20.93)">
    <path id="Path_6390" data-name="Path 6390" d="M256,235.061a14.131,14.131,0,1,0,14.131-14.131A14.148,14.148,0,0,0,256,235.061Zm15.9-10.439a10.611,10.611,0,0,1,8.673,8.673h-1.607v3.533h1.607A10.613,10.613,0,0,1,271.9,245.5v-1.607h-3.533V245.5a10.611,10.611,0,0,1-8.673-8.673H261.3v-3.533h-1.607a10.611,10.611,0,0,1,8.673-8.673v1.607H271.9Z" transform="translate(-143.373 -155.84)" fill="#ededed"/>
    <path id="Path_6391" data-name="Path 6391" d="M180.053,93.053l-12.015-10.3H155.02V79.046a5.394,5.394,0,0,0,1.282.175h.408a5.375,5.375,0,0,0,3.441-9.5l-29.14-24.281a6.348,6.348,0,0,0-2.487-1.242V36.827h21.2V20.93H124.991V44.191a6.355,6.355,0,0,0-2.489,1.242L93.366,69.716a5.374,5.374,0,0,0,3.439,9.5h.408a5.305,5.305,0,0,0,1.282-.175v3.708H85.477l-12.017,10.3a4.186,4.186,0,0,0,2.726,7.364H77.3v30.028h98.917V100.417h1.113a4.185,4.185,0,0,0,2.724-7.364Zm-51.529-68.59h17.664v8.832H128.524ZM98.5,126.913H80.832v-26.5H94.963V96.884H76.186a.654.654,0,0,1-.426-1.15l11.024-9.448H98.5Zm26.5,0h-5.3V114.548h5.3Zm8.832,0h-5.3V114.548h5.3Zm17.664,0H137.356v-15.9h-21.2v15.9H102.028V76.861l24.729-20.094,24.729,20.1Zm-24.729-74.7L98.374,75.278a1.849,1.849,0,0,1-1.161.41h-.408a1.841,1.841,0,0,1-1.178-3.257l29.138-24.284a3.194,3.194,0,0,1,3.983,0L157.89,72.431a1.842,1.842,0,0,1-1.18,3.257H156.3a1.849,1.849,0,0,1-1.162-.412Zm50.571,44.668H158.553v3.533h14.131v26.5H155.02V86.286h11.711l11.022,9.448a.653.653,0,0,1-.424,1.15Z" fill="#ededed"/>
    <rect id="Rectangle_301" data-name="Rectangle 301" width="4" height="3" transform="translate(158.547 103.93)" fill="#ededed"/>
    <rect id="Rectangle_302" data-name="Rectangle 302" width="3" height="3" transform="translate(165.547 103.93)" fill="#ededed"/>
    <rect id="Rectangle_303" data-name="Rectangle 303" width="4" height="4" transform="translate(135.547 99.93)" fill="#ededed"/>
    <rect id="Rectangle_304" data-name="Rectangle 304" width="3" height="4" transform="translate(142.547 99.93)" fill="#ededed"/>
    <rect id="Rectangle_305" data-name="Rectangle 305" width="3" height="4" transform="translate(107.547 99.93)" fill="#ededed"/>
    <rect id="Rectangle_306" data-name="Rectangle 306" width="4" height="4" transform="translate(114.547 99.93)" fill="#ededed"/>
    <rect id="Rectangle_307" data-name="Rectangle 307" width="4" height="4" transform="translate(158.547 110.93)" fill="#ededed"/>
    <rect id="Rectangle_308" data-name="Rectangle 308" width="3" height="4" transform="translate(165.547 110.93)" fill="#ededed"/>
    <rect id="Rectangle_309" data-name="Rectangle 309" width="4" height="3" transform="translate(91.546 103.93)" fill="#ededed"/>
    <rect id="Rectangle_310" data-name="Rectangle 310" width="3" height="3" transform="translate(84.546 103.93)" fill="#ededed"/>
    <rect id="Rectangle_311" data-name="Rectangle 311" width="4" height="4" transform="translate(91.546 110.93)" fill="#ededed"/>
    <rect id="Rectangle_312" data-name="Rectangle 312" width="3" height="4" transform="translate(84.546 110.93)" fill="#ededed"/>
    <path id="Path_6392" data-name="Path 6392" d="M296,375.528h10.6v-10.6H296Zm3.533-7.066h3.533V372h-3.533Z" transform="translate(-174.541 -268.046)" fill="#ededed"/>
    <path id="Path_6393" data-name="Path 6393" d="M312,268h7.066v-3.533h-3.533V260.93H312Z" transform="translate(-187.009 -187.009)" fill="#ededed"/>
  </g>
</svg>
