<svg xmlns="http://www.w3.org/2000/svg" width="806.633" height="642.658" viewBox="0 0 806.633 642.658">
  <g id="Group_29" data-name="Group 29" transform="translate(-36 -99.5)">
    <g id="sun" transform="translate(104.444 100)">
      <path id="Path_1377" data-name="Path 1377" d="M741.658,420.829a320.133,320.133,0,0,1-20.03,111.82c-.449,1.219-.909,2.438-1.39,3.647-.289.791-.6,1.572-.909,2.353a318.3,318.3,0,0,1-17.346,36.842c-.214.4-.428.781-.652,1.166v.011c-1.326,2.4-2.684,4.759-4.075,7.112-.438.749-.877,1.487-1.326,2.214q-2.23,3.722-4.556,7.358c-.053.075-.107.16-.16.235q-4.379,6.85-9.09,13.443-7.026,9.833-14.758,19.111c-.428.524-.866,1.048-1.3,1.561-2.2,2.609-4.438,5.176-6.737,7.711-.973,1.091-1.957,2.182-2.962,3.251-.171.192-.342.385-.513.567h-.011a2.268,2.268,0,0,0-.15.182h-.011c-1.027,1.1-2.064,2.2-3.1,3.283-.107.107-.2.214-.3.31s-.2.214-.3.31c-.9.941-1.8,1.861-2.716,2.781q-.144.16-.321.321c-.16.171-.321.342-.492.5-.171.182-.353.364-.535.535a320.851,320.851,0,0,1-507.626-70.86,2.3,2.3,0,0,1-.15-.278,1.174,1.174,0,0,1-.064-.118c-.128-.214-.246-.439-.364-.663a318.073,318.073,0,0,1-17.4-36.927c-.3-.759-.6-1.519-.888-2.289q-.706-1.8-1.38-3.625A320.087,320.087,0,0,1,100,420.829C100,243.635,243.635,100,420.829,100S741.658,243.635,741.658,420.829Z" transform="translate(-100 -100)" fill="#fff" stroke="#586c7e" stroke-width="1"/>
    </g>
    <g id="mountain" transform="translate(255.297 454.58)">
      <path id="Path_1379" data-name="Path 1379" d="M672.329,584.007q-7.026,9.833-14.758,19.111c-.428.524-.866,1.048-1.3,1.561-2.2,2.609-4.438,5.176-6.737,7.711-.973,1.091-1.957,2.182-2.962,3.251-.171.192-.342.385-.513.567h-.011a2.268,2.268,0,0,0-.15.182h-.011c-1.027,1.1-2.064,2.2-3.1,3.283-.107.107-.2.214-.3.31s-.2.214-.3.31c-.9.941-1.8,1.861-2.716,2.781q-.144.16-.321.321c-.16.171-.321.342-.492.5-.171.182-.353.364-.535.535A320.387,320.387,0,0,1,241.06,669.957L279.5,577.473l29.944-11.764,23.527-50.263,19.25-19.25,5.347-25.666,19.453-20.319,10.491-18.651H438.84l17.111,16.512,22.458-4.278,22.458,19.25L513.7,488.71l23.527,8.555,19.25,16.041,6.417,22.458,27.805,6.417,18.18,18.18,33.152,2.139,18.694,8.973Z" transform="translate(-241.06 -431.56)" fill="#586c7e"/>
    </g>
    <g id="cloud" transform="translate(36 194.032)">
      <path id="Path_1380" data-name="Path 1380" d="M771.372,317.589c-8.156,0-22.842-3.38-22.842-3.38A81.073,81.073,0,0,0,740,311.55a7.548,7.548,0,0,0,.612-3.006c0-3.523-2.3-6.389-5.132-6.389a4.989,4.989,0,0,0-4.33,2.964,9.955,9.955,0,0,0-2.046-3.659,6.773,6.773,0,0,0-5.041-2.4,6.436,6.436,0,0,0-3.939,1.392,6.853,6.853,0,0,0-5.886-3.9c-2.852,0-5.317,2.117-6.443,5.136a5.85,5.85,0,0,0-4.19-1.865,5.959,5.959,0,0,0-4.467,2.158,4.5,4.5,0,0,0-.449-.031,4.025,4.025,0,0,0-1.293.225c-1.628-3.438-4.634-5.763-8.085-5.763-3.884,0-7.224,2.938-8.643,7.142-.36-.54-.749-1.072-1.181-1.6a9.151,9.151,0,0,0,1.054-4.34c0-4.3-2.794-7.782-6.25-7.782a5.112,5.112,0,0,0-2.141.474c-.82-3.741-3.563-6.5-6.835-6.5-2.646,0-4.954,1.812-6.165,4.5a7.2,7.2,0,0,0-5.456-2.7c-4.4,0-7.959,4.428-7.959,9.9a12.087,12.087,0,0,0,.387,3.05,27.508,27.508,0,0,0-1.963,2.253,5.655,5.655,0,0,0-2.573-.64,6.536,6.536,0,0,0-5.6,3.73,5.748,5.748,0,0,0-4.94-3.257,5.379,5.379,0,0,0-4.177,2.131,5.845,5.845,0,0,0-9.729,0h-.055a6.8,6.8,0,0,0-1.433.167,7.472,7.472,0,0,0-6.362-4.092,7,7,0,0,0-5.372,2.685,5.789,5.789,0,0,0-3.672-1.365c-3.4,0-6.2,3.131-6.655,7.2h-.068a3.493,3.493,0,0,0-1.879.544,4.334,4.334,0,0,0-3.022-1.3,4.965,4.965,0,0,0-4.439,3.537,4.58,4.58,0,0,0-3.435-1.658,4.971,4.971,0,0,0-4.262,2.785,4.012,4.012,0,0,0-3.632-3.312,3.394,3.394,0,0,0-2.393,1.059,2.364,2.364,0,0,0-.63-.086,2.506,2.506,0,0,0-1.361.419,2.919,2.919,0,0,0-2.018-.865c-1.88,0-3.385,1.893-3.385,4.218v.072c-7.6,1.085-10.883,5.481-10.883,5.481-10.883,0-30.452,6.1-30.452,6.1H808.908C807,321.987,771.372,317.589,771.372,317.589Z" transform="translate(-2.275 -110.27)" fill="#586c7e"/>
      <path id="Path_1382" data-name="Path 1382" d="M216.763,314.048c-1.106-.327-2.24-.629-3.4-.931H316.952c-1.539-1.51-29.924-4.338-29.924-4.338-6.505,0-18.2-2.167-18.2-2.167-2.2-.657-4.514-1.212-6.807-1.69a4.152,4.152,0,0,0,.477-1.917,4.08,4.08,0,0,0-7.537-2.192,6.031,6.031,0,0,0-8.774-3,5.654,5.654,0,0,0-9.832.8A5.2,5.2,0,0,0,233,297.409a5.315,5.315,0,0,0-3.558,1.388h-.352a4.568,4.568,0,0,0-1.033.126,7.465,7.465,0,0,0-13.312.881,11.156,11.156,0,0,0-.959-1.007,5.1,5.1,0,0,0,.858-2.8,5,5,0,0,0-4.992-4.991,4.856,4.856,0,0,0-1.713.326,5.651,5.651,0,0,0-5.446-4.184,5.592,5.592,0,0,0-4.917,2.9,6.247,6.247,0,0,0-4.334-1.742,6.354,6.354,0,0,0-6.355,6.327,6.457,6.457,0,0,0,.3,1.967,17.172,17.172,0,0,0-1.564,1.439,5.384,5.384,0,0,0-6.5,1.965,4.789,4.789,0,0,0-3.931-2.066,4.653,4.653,0,0,0-3.329,1.36,5.364,5.364,0,0,0-7.763,0h-.025a8.347,8.347,0,0,0-1.162.1,6.2,6.2,0,0,0-5.066-2.621,5.922,5.922,0,0,0-2.571.576,5.616,5.616,0,0,0-9.757.127,6.238,6.238,0,0,0-4.335-1.74,6.354,6.354,0,0,0-6.354,6.33,5.638,5.638,0,0,0,.074.907,4.04,4.04,0,0,0-3.2,1.767,3.036,3.036,0,0,0-4.816-1.437,1.584,1.584,0,0,0-.506-.052,2.5,2.5,0,0,0-1.057.253,2.773,2.773,0,0,0-1.616-.555,2.682,2.682,0,0,0-2.695,2.7v.052c-.734.074-1.387.2-2.019.327a5.4,5.4,0,0,0-3.074-.959,5.317,5.317,0,0,0-3.884,1.665h-.025a8.344,8.344,0,0,0-1.159.1,6.211,6.211,0,0,0-9.354-.909,5.444,5.444,0,0,0-2.923-.858,5.35,5.35,0,0,0-5.294,4.616.088.088,0,0,1-.052-.028,3.671,3.671,0,0,0-1.51.354,3.923,3.923,0,0,0-2.4-.807,3.859,3.859,0,0,0-3.527,2.245,4.117,4.117,0,0,0-6.154.727,3.041,3.041,0,0,0-4.816-1.433,1.49,1.49,0,0,0-.478-.052,2.5,2.5,0,0,0-1.082.256,2.767,2.767,0,0,0-1.616-.558,2.705,2.705,0,0,0-2.7,2.7v.05c-6.05.7-8.673,3.5-8.673,3.5-8.672,0-24.278,3.91-24.278,3.91H264.891c-1.513-1.511-29.926-4.334-29.926-4.334C228.46,316.219,216.763,314.048,216.763,314.048Z" transform="translate(-36 -181.038)" fill="#586c7e"/>
      <path id="Path_1383" data-name="Path 1383" d="M612.643,202.161c-.587-.176-1.188-.336-1.8-.5h54.808c-.816-.8-15.833-2.293-15.833-2.293a71.645,71.645,0,0,1-9.63-1.149c-1.161-.346-2.388-.64-3.6-.894a2.162,2.162,0,0,0-3.736-2.173,3.186,3.186,0,0,0-2.988-2.055,3.153,3.153,0,0,0-1.654.471,2.99,2.99,0,0,0-5.2.423,2.769,2.769,0,0,0-1.775-.64,2.818,2.818,0,0,0-1.882.735h-.186a2.432,2.432,0,0,0-.544.065,3.952,3.952,0,0,0-7.048.469,5.5,5.5,0,0,0-.5-.535,2.7,2.7,0,0,0,.453-1.481,2.645,2.645,0,0,0-2.639-2.639,2.507,2.507,0,0,0-.908.173,2.991,2.991,0,0,0-2.883-2.216,2.957,2.957,0,0,0-2.6,1.534,3.313,3.313,0,0,0-2.294-.92,3.359,3.359,0,0,0-3.36,3.347,3.479,3.479,0,0,0,.156,1.041,9.521,9.521,0,0,0-.825.76,2.889,2.889,0,0,0-1.08-.213,2.822,2.822,0,0,0-2.362,1.253,2.531,2.531,0,0,0-2.081-1.093,2.455,2.455,0,0,0-1.758.721,2.834,2.834,0,0,0-2.055-.881,2.8,2.8,0,0,0-2.055.881h-.013a4.556,4.556,0,0,0-.614.052,3.291,3.291,0,0,0-2.681-1.387,3.154,3.154,0,0,0-1.361.307,2.969,2.969,0,0,0-5.161.065,3.286,3.286,0,0,0-2.293-.92,3.361,3.361,0,0,0-3.363,3.347,3.061,3.061,0,0,0,.039.482,2.134,2.134,0,0,0-1.693.934,1.606,1.606,0,0,0-2.548-.76.758.758,0,0,0-.264-.03,1.291,1.291,0,0,0-.56.138,1.444,1.444,0,0,0-.854-.294,1.418,1.418,0,0,0-1.426,1.426v.027c-.386.039-.738.107-1.07.172a2.86,2.86,0,0,0-1.624-.506,2.808,2.808,0,0,0-2.055.881h-.013a4.509,4.509,0,0,0-.614.052,3.287,3.287,0,0,0-4.949-.48,2.886,2.886,0,0,0-1.546-.453,2.834,2.834,0,0,0-2.8,2.44.045.045,0,0,1-.026-.013,1.981,1.981,0,0,0-.8.186,2.093,2.093,0,0,0-1.269-.428,2.047,2.047,0,0,0-1.866,1.187,2.182,2.182,0,0,0-3.255.389,1.606,1.606,0,0,0-2.548-.76.841.841,0,0,0-.25-.026,1.316,1.316,0,0,0-.574.133,1.484,1.484,0,0,0-.856-.293,1.43,1.43,0,0,0-1.429,1.426v.03a7.682,7.682,0,0,0-4.587,1.852C525.26,203.534,517,205.6,517,205.6H638.107c-.8-.8-15.836-2.293-15.836-2.293A71.763,71.763,0,0,1,612.643,202.161Z" transform="translate(-2.604 -187.927)" fill="#586c7e"/>
    </g>
    <g id="tree" transform="translate(124.304 517.794)">
      <path id="Path_1384" data-name="Path 1384" d="M297.764,676.516c-2.77,1.112-1.626.406-1.626.406,1.957-2.406.684-1.337.684-1.337-2.46,1.818-1.722.984-1.722.984.834-1.037.032-.556.032-.556-3.048,1.893-1.882.834-1.882.834,1.658-1.315.781-.984.781-.984-3.262,1.861-2.6,1.08-2.6,1.08,1.283-.93.631-.781.631-.781-1.861.962-7.026.61-7.026.61a13.893,13.893,0,0,1-7.593-2.043c-3.272-2.278-1.925-1.594-1.925-1.594a42.988,42.988,0,0,0,5.946,1.615c4.716.8,10.737-1.005,10.737-1.005,3.3-1.315,1.893-1.016,1.893-1.016-2.46.353-1.273-.1-1.273-.1,5.9-3.048,4.31-2.62,4.31-2.62-4.128.727-2.674,0-2.674,0,1.893-1.241.8-.909.8-.909-3.668.856-3.112.139-3.112.139,1.593-.973.588-.6.588-.6-4.117,1.037-2.952.406-2.952.406,2.4-1.134,1.048-.781,1.048-.781-4.962.727-3.85.278-3.85.278,2.353-.556,1.123-.61,1.123-.61-5.026,0-11.871-2.417-11.871-2.417-3.486-1.636-2.256-1.636-2.256-1.636a31.22,31.22,0,0,0,7.176,2.043c5.251.727,10.908-3.935,10.908-3.935,3.914-3.326,2.567-2.8,2.567-2.8-3.187.588-2.257-.246-2.257-.246,1.39-1.711.535-1.112.535-1.112-3.9,1.968-2.941,1.166-2.941,1.166.438-.535.064-.353.064-.353-2.577,1.454-1.925.888-1.925.888,1.786-1.529.962-1.166.962-1.166-4.075,1.69-3.112,1.048-3.112,1.048,1.369-.866.834-.823.834-.823-3.069,1.283-2.417.674-2.417.674,1.54-1.1.663-.749.663-.749-4.181.225-3.444-.2-3.444-.2,1.476-.535.984-.652.984-.652a13.26,13.26,0,0,1-4.673-.513,8.73,8.73,0,0,1-1.989-.727c3.743.064.77-.224.77-.224,1.3-.214,2.406-.4,3.337-.556,1.636.1,2.781.053,2.781.053,4.139,0,7.518-3.337,7.518-3.337.289-.289.513-.513.7-.706,2.706-1.134.952-.749.749-.706,2.866-2.46.535-1.208.535-1.208-2.3,1.112-1.347.406-1.347.406,1.636-2.406.567-1.337.567-1.337-2.053,1.818-1.433.984-1.433.984.7-1.037.032-.556.032-.556-2.545,1.893-1.572.834-1.572.834,1.38-1.315.652-.984.652-.984-2.716,1.872-2.171,1.08-2.171,1.08,1.069-.93.524-.781.524-.781-1.155.717-3.861.706-5.144.652-.021-.043-.2-.043-.2-.043-.064.011-.118.011-.182.021-.2-.011-.331-.021-.331-.021a10.229,10.229,0,0,1-1.775-.16c1.166-.235.406-.3.406-.3a26.163,26.163,0,0,1-6.117-2.577c-1.187-1.048-.438-.6-.438-.6a31.425,31.425,0,0,0,4.951,1.615c3.935.813,8.951-1.005,8.951-1.005,2.759-1.315,1.572-1.005,1.572-1.005-2.043.353-1.059-.107-1.059-.107,4.919-3.048,3.593-2.62,3.593-2.62-3.433.727-2.224,0-2.224,0,1.572-1.23.663-.909.663-.909-3.048.856-2.588.139-2.588.139,1.326-.962.492-.588.492-.588a20.613,20.613,0,0,1-2.107.545c-.043-.064-.321.032-.321.032-.021,0-.043.011-.064.011-.225-.021.032-.193.032-.193,2-1.134.866-.781.866-.781-1.219.225-2,.332-2.492.385.332-.3.321-.4.257-.428.545-.257-.032-.278-.032-.278a14.628,14.628,0,0,1-1.893-.139c.492-.471.043-.364.043-.364l-1.369.139c-.46-.1-.92-.192-1.369-.31,1.551-.813.674-.77.674-.77-1.422.118-2.289.16-2.823.16-.225-.075-.428-.139-.631-.2a12.759,12.759,0,0,0,1.358-.578,2,2,0,0,0,.214.043c4.374.727,9.09-3.935,9.09-3.935,3.262-3.326,2.139-2.791,2.139-2.791-2.652.578-1.882-.257-1.882-.257,1.166-1.711.449-1.112.449-1.112-3.251,1.968-2.449,1.166-2.449,1.166.364-.535.053-.353.053-.353-2.15,1.465-1.6.888-1.6.888,1.487-1.529.8-1.166.8-1.166-3.4,1.69-2.6,1.048-2.6,1.048,1.144-.866.706-.823.706-.823-2.567,1.283-2.021.684-2.021.684,1.283-1.112.545-.759.545-.759-3.486.225-2.866-.2-2.866-.2,1.23-.524.823-.652.823-.652a4.67,4.67,0,0,1-1.347.043c-.011-.1-.257-.064-.257-.064l-.128.021a12.037,12.037,0,0,1-2.085-.481c-.021-.107-.246-.075-.246-.075h-.011a17.526,17.526,0,0,1-3.508-1.925c.321-.15.6-.31.834-.449a20.609,20.609,0,0,0,6.93.963c3.454,0,6.267-3.326,6.267-3.326,1.593-1.914.995-1.444.995-1.444-3.69,1.743-2.887,1.027-2.887,1.027,2.107-1.871,1.112-1.326,1.112-1.326-3.968,2.021-2.855,1.134-2.855,1.134,2.021-1.3,1.251-1.005,1.251-1.005-2.962,1.23-2.492.727-2.492.727.984-.909.545-.727.545-.727-2.449,1.005-1.85.684-1.85.684,1.658-1.315.62-.866.62-.866-3.39.31-2.588,0-2.588,0,2.278-.578,1.39-.578,1.39-.578-3.54.5-2.631,0-2.631,0,1.968-.374,1.059-.449,1.059-.449a20.227,20.227,0,0,1-7-4.1c-1.743-2.01-1.144-1.9-1.144-1.9a11.918,11.918,0,0,0,4.6,1.839,10.849,10.849,0,0,0,7.9-2.428c.845-.8.118-.5.118-.5-2.9.631-2.171.182-2.171.182,1.561-1.369.9-1.187.9-1.187a6.105,6.105,0,0,1-1.444.406c-1.7.364-1.241,0-1.241,0,.321.1,1.091-.706,1.091-.706.578-.61.139-.481.139-.481l-1.818.225c-1.561.257-1.144,0-1.144,0l.652-.374c1.337-.834.578-.781.578-.781-3.636.353-2.984,0-2.984,0,2.406-1.059,1.551-1.166,1.551-1.166a6.73,6.73,0,0,1-1.6.128c-.909,0-.492-.15-.492-.15,1.946-.332,1.005-.556,1.005-.556a9.269,9.269,0,0,1-5.978-2.043c-1.722-1.337-.92-.93-.92-.93,6.748.578,7.39-1.561,7.39-1.561-1.69.652-1.123.2-1.123.2,3.711-1.968,2.492-1.8,2.492-1.8a9.046,9.046,0,0,1-1.925.15c-.513,0-.075-.171-.075-.171,1.593-1.112.759-.984.759-.984l-1.529.374c-1.636.5-1.123.15-1.123.15,1.347-1.208.6-1.059.6-1.059l-.941.406c-.663.374-.4,0-.4,0,.567-.556,0-.353,0-.353-1.369.374-1.037,0-1.037,0,1.069-.652.406-.652.406-.652a4.675,4.675,0,0,1-2.171.2c-2.6-.813-2.085-1.059-2.085-1.059,1.861,1.005,4.545-1.337,4.545-1.337,1.144-.962.332-.738.332-.738-1.743.278-1.315,0-1.315,0,.973-1.027.214-.674.214-.674a6.652,6.652,0,0,1-1.6.246c-.888.182-.556,0-.556,0,.332,0,.813-.5.813-.5.92-.834.289-.578.289-.578-2.321.631-1.775.171-1.775.171,2.171-.524.995-.727.995-.727-2.085.652-1.765.075-1.765.075.257.128.823-.1.823-.1.663-.332-.021-.406-.021-.406-2.01-.535-1.433-.631-1.433-.631.588.353.856.257.856.257.791,0-.225-.513-.225-.513-1.7-1.251-1.315-1.134-1.315-1.134,3.829,0,2.256-.631,2.256-.631-2.182.235-1.583-.171-1.583-.171,2.214,0,1.037-.385,1.037-.385-1.69-.449-1.08-.4-1.08-.4,1.3.128.6-.353.6-.353-1.957-.963-1.315-.813-1.315-.813.77.353.449,0,.449,0-.995-.856-.6-.674-.6-.674.46.321.086-.2.086-.2a6.23,6.23,0,0,1-.8-2.171,6.459,6.459,0,0,1-.8,2.171s-.374.524.086.2c0,0,.385-.182-.6.674,0,0-.332.353.438,0,0,0,.652-.15-1.315.813,0,0-.7.481.6.353,0,0,.62-.053-1.069.4,0,0-1.187.385,1.037.385,0,0,.6.406-1.594.171,0,0-1.561.631,2.257.631,0,0,.4-.118-1.315,1.134,0,0-1.005.513-.214.513,0,0,.267.1.845-.257,0,0,.588.1-1.433.631,0,0-.684.075-.011.406,0,0,.556.225.813.1,0,0,.331.578-1.754-.075,0,0-1.176.2.995.727,0,0,.545.46-1.786-.171,0,0-.631-.257.289.578,0,0,.481.5.823.5,0,0,.321.182-.567,0a6.652,6.652,0,0,1-1.6-.246s-.749-.353.225.674c0,0,.428.278-1.315,0,0,0-.823-.225.321.738,0,0,2.684,2.342,4.545,1.337,0,0,.513.246-2.085,1.059a4.629,4.629,0,0,1-2.16-.2s-.674,0,.406.652c0,0,.321.374-1.048,0,0,0-.556-.2,0,.353,0,0,.278.374-.385,0l-.941-.406s-.749-.15.6,1.059c0,0,.513.353-1.134-.15l-1.519-.374s-.834-.128.749.984c0,0,.449.171-.064.171a9.168,9.168,0,0,1-1.936-.15s-1.208-.171,2.5,1.786c0,0,.556.46-1.134-.193,0,0,.652,2.139,7.4,1.561,0,0,.8-.406-.92.93a9.3,9.3,0,0,1-5.978,2.043s-.941.225,1.005.556c0,0,.406.15-.492.15a6.849,6.849,0,0,1-1.615-.128s-.845.107,1.561,1.166c0,0,.642.353-2.994,0,0,0-.749-.054.588.781l.642.374s.428.257-1.144,0l-1.807-.225s-.449-.128.139.481c0,0,.77.8,1.091.706,0,0,.46.364-1.251,0a5.9,5.9,0,0,1-1.433-.406s-.663-.182.888,1.187c0,0,.738.449-2.171-.182,0,0-.717-.3.118.5a10.887,10.887,0,0,0,7.914,2.428,11.918,11.918,0,0,0,4.6-1.839s.6-.107-1.144,1.9a20.226,20.226,0,0,1-7,4.1s-.909.075,1.059.449c0,0,.909.5-2.631,0,0,0-.888,0,1.38.578,0,0,.8.31-2.577,0,0,0-1.037-.449.62.866,0,0,.588.321-1.85-.684,0,0-.449-.182.545.727,0,0,.4.428-1.893-.481a10.729,10.729,0,0,0,4.984-3.187c1.593-1.914.995-1.433.995-1.433-3.69,1.743-2.887,1.027-2.887,1.027,2.1-1.882,1.1-1.326,1.1-1.326-3.957,2.011-2.845,1.134-2.845,1.134,2.011-1.315,1.241-1.016,1.241-1.016-2.952,1.241-2.492.738-2.492.738.995-.909.545-.738.545-.738-2.438,1.016-1.839.684-1.839.684,1.658-1.3.61-.856.61-.856-3.379.3-2.577,0-2.577,0,2.267-.578,1.38-.578,1.38-.578-3.529.5-2.631,0-2.631,0,1.968-.385,1.059-.46,1.059-.46a20.226,20.226,0,0,1-7-4.1c-1.732-2-1.144-1.9-1.144-1.9a11.717,11.717,0,0,0,4.6,1.839,10.827,10.827,0,0,0,7.914-2.417c.834-.8.118-.5.118-.5-2.909.631-2.171.171-2.171.171,1.551-1.358.888-1.176.888-1.176a5.9,5.9,0,0,1-1.433.406c-1.711.364-1.251-.011-1.251-.011.332.107,1.1-.706,1.1-.706.577-.6.128-.481.128-.481l-1.807.235c-1.572.246-1.144,0-1.144,0l.652-.385c1.326-.834.577-.781.577-.781-3.636.353-2.994,0-2.994,0,2.417-1.059,1.561-1.155,1.561-1.155a6.731,6.731,0,0,1-1.6.128c-.909,0-.5-.16-.5-.16,1.946-.321,1.016-.545,1.016-.545a9.38,9.38,0,0,1-5.989-2.043c-1.722-1.337-.92-.941-.92-.941,6.748.588,7.4-1.561,7.4-1.561-1.69.663-1.134.2-1.134.2,3.711-1.968,2.5-1.786,2.5-1.786a10.008,10.008,0,0,1-1.936.15c-.513,0-.064-.182-.064-.182,1.583-1.1.749-.984.749-.984l-1.519.385c-1.636.5-1.134.15-1.134.15,1.358-1.208.6-1.059.6-1.059l-.941.406c-.663.374-.385,0-.385,0,.556-.556,0-.353,0-.353-1.369.374-1.048,0-1.048,0,1.08-.663.417-.663.417-.663a4.5,4.5,0,0,1-2.171.2c-2.6-.8-2.085-1.059-2.085-1.059,1.861,1.005,4.545-1.337,4.545-1.337,1.144-.952.321-.727.321-.727-1.743.278-1.315,0-1.315,0,.973-1.037.225-.684.225-.684a6.252,6.252,0,0,1-1.6.257c-.888.171-.567,0-.567,0,.342,0,.823-.5.823-.5.92-.834.289-.588.289-.588-2.321.631-1.775.182-1.775.182,2.171-.535.984-.727.984-.727-2.075.652-1.754.075-1.754.075.257.118.823-.107.823-.107.663-.321-.021-.4-.021-.4-2.021-.535-1.433-.631-1.433-.631.578.353.856.246.856.246.781,0-.225-.5-.225-.5-1.711-1.262-1.315-1.134-1.315-1.134,3.829,0,2.257-.631,2.257-.631-2.192.225-1.593-.182-1.593-.182,2.224,0,1.048-.374,1.048-.374-1.7-.449-1.08-.406-1.08-.406,1.294.128.6-.353.6-.353-1.968-.952-1.315-.8-1.315-.8.77.353.438,0,.438,0-.984-.856-.6-.684-.6-.684.471.331.086-.2.086-.2a6.342,6.342,0,0,1-.8-2.16,6.119,6.119,0,0,1-.8,2.16s-.374.535.086.2c0,0,.4-.171-.6.684,0,0-.321.353.449,0,0,0,.652-.15-1.315.8,0,0-.706.481.6.353,0,0,.61-.043-1.08.406,0,0-1.176.374,1.048.374,0,0,.6.406-1.593.182,0,0-1.572.631,2.257.631,0,0,.4-.128-1.315,1.134,0,0-1.005.5-.225.5,0,0,.278.107.856-.246,0,0,.577.1-1.433.631,0,0-.684.075-.021.4,0,0,.567.225.823.107,0,0,.321.577-1.765-.075,0,0-1.176.193.995.727,0,0,.545.449-1.775-.182,0,0-.631-.246.289.588,0,0,.481.5.823.5,0,0,.321.171-.567,0a6.252,6.252,0,0,1-1.6-.257s-.759-.353.225.684c0,0,.428.278-1.315,0,0,0-.823-.225.321.727,0,0,2.684,2.342,4.545,1.337,0,0,.513.257-2.085,1.059a4.506,4.506,0,0,1-2.171-.2s-.663,0,.406.663c0,0,.332.374-1.037,0,0,0-.567-.2,0,.353,0,0,.278.374-.4,0l-.941-.406s-.749-.15.6,1.059c0,0,.513.353-1.123-.15l-1.519-.385s-.845-.118.749.984c0,0,.438.182-.064.182a10.008,10.008,0,0,1-1.936-.15s-1.208-.182,2.492,1.786c0,0,.567.46-1.123-.2,0,0,.652,2.15,7.4,1.561,0,0,.8-.4-.93.941a9.587,9.587,0,0,1-5.123,2.032c.15-.31-.139-.182-.139-.182-2.652.577-1.882-.246-1.882-.246,1.166-1.722.449-1.112.449-1.112-3.251,1.968-2.449,1.155-2.449,1.155.364-.524.053-.353.053-.353-2.15,1.465-1.6.9-1.6.9,1.487-1.529.8-1.176.8-1.176-3.4,1.69-2.6,1.059-2.6,1.059,1.144-.866.706-.823.706-.823-2.567,1.283-2.021.674-2.021.674,1.283-1.1.545-.749.545-.749-3.486.225-2.866-.2-2.866-.2,1.23-.535.823-.663.823-.663a4.256,4.256,0,0,1-1.337.053c-.021-.107-.267-.075-.267-.075l-.128.032a13.169,13.169,0,0,1-2.085-.481c-.021-.118-.246-.075-.246-.075h-.011a18.082,18.082,0,0,1-3.508-1.925c.321-.15.6-.31.845-.449a20.535,20.535,0,0,0,6.919.963c3.454,0,6.278-3.337,6.278-3.337,1.583-1.914.984-1.433.984-1.433-3.69,1.743-2.887,1.027-2.887,1.027,2.107-1.882,1.112-1.326,1.112-1.326-3.968,2.011-2.855,1.134-2.855,1.134,2.021-1.315,1.251-1.016,1.251-1.016-2.962,1.241-2.492.738-2.492.738.984-.909.545-.738.545-.738-2.449,1.016-1.85.684-1.85.684,1.658-1.3.62-.856.62-.856-3.39.3-2.588,0-2.588,0,2.278-.578,1.39-.578,1.39-.578-3.54.5-2.631,0-2.631,0,1.968-.385,1.059-.46,1.059-.46a20.227,20.227,0,0,1-7-4.1c-1.743-2-1.144-1.9-1.144-1.9a11.717,11.717,0,0,0,4.6,1.839,10.814,10.814,0,0,0,7.9-2.417c.845-.8.118-.5.118-.5-2.9.631-2.16.171-2.16.171,1.551-1.358.888-1.176.888-1.176a6.1,6.1,0,0,1-1.444.406c-1.7.364-1.241-.011-1.241-.011.321.107,1.091-.706,1.091-.706.577-.6.139-.481.139-.481l-1.818.235c-1.561.246-1.144,0-1.144,0l.652-.385c1.337-.834.577-.781.577-.781-3.636.353-2.984,0-2.984,0,2.406-1.059,1.551-1.155,1.551-1.155a6.731,6.731,0,0,1-1.6.128c-.9,0-.492-.16-.492-.16,1.946-.321,1.005-.545,1.005-.545a9.335,9.335,0,0,1-5.978-2.043c-1.722-1.337-.92-.941-.92-.941,6.748.588,7.39-1.561,7.39-1.561-1.69.663-1.123.2-1.123.2,3.711-1.968,2.492-1.786,2.492-1.786a9.87,9.87,0,0,1-1.925.15c-.513,0-.075-.182-.075-.182,1.593-1.1.759-.984.759-.984l-1.529.385c-1.636.5-1.123.15-1.123.15,1.347-1.208.6-1.059.6-1.059l-.941.406c-.663.374-.4,0-.4,0,.567-.556,0-.353,0-.353-1.369.374-1.037,0-1.037,0,1.069-.663.406-.663.406-.663a4.506,4.506,0,0,1-2.171.2c-2.6-.8-2.085-1.059-2.085-1.059,1.872,1.005,4.545-1.337,4.545-1.337,1.144-.952.332-.727.332-.727-1.743.278-1.315,0-1.315,0,.973-1.037.214-.684.214-.684a6.252,6.252,0,0,1-1.6.257c-.888.171-.556,0-.556,0,.332,0,.813-.5.813-.5.93-.834.289-.588.289-.588-2.321.631-1.775.182-1.775.182,2.171-.535.995-.727.995-.727-2.085.652-1.765.075-1.765.075.257.118.823-.107.823-.107.663-.321-.021-.4-.021-.4-2.011-.535-1.433-.631-1.433-.631.588.353.856.246.856.246.791,0-.225-.5-.225-.5-1.7-1.262-1.315-1.134-1.315-1.134,3.829,0,2.257-.631,2.257-.631-2.182.225-1.583-.182-1.583-.182,2.214,0,1.037-.374,1.037-.374-1.69-.449-1.08-.406-1.08-.406,1.3.128.6-.353.6-.353-1.957-.952-1.315-.8-1.315-.8.77.353.449,0,.449,0-.995-.856-.6-.684-.6-.684.46.331.086-.2.086-.2a6.119,6.119,0,0,1-.8-2.16,6.342,6.342,0,0,1-.8,2.16s-.374.535.086.2c0,0,.385-.171-.6.684,0,0-.321.353.438,0,0,0,.652-.15-1.315.8,0,0-.7.481.6.353,0,0,.62-.043-1.069.406,0,0-1.187.374,1.037.374,0,0,.6.406-1.583.182,0,0-1.572.631,2.246.631,0,0,.4-.128-1.315,1.134,0,0-1.005.5-.214.5,0,0,.267.107.856-.246,0,0,.577.1-1.444.631,0,0-.684.075-.011.4,0,0,.556.225.813.107,0,0,.332.577-1.754-.075,0,0-1.176.193.995.727,0,0,.545.449-1.786-.182,0,0-.631-.246.3.588,0,0,.471.5.813.5,0,0,.332.171-.556,0a6.321,6.321,0,0,1-1.615-.257s-.749-.353.225.684c0,0,.428.278-1.315,0,0,0-.823-.225.321.727,0,0,2.684,2.342,4.545,1.337,0,0,.513.257-2.085,1.059a4.462,4.462,0,0,1-2.16-.2s-.674,0,.406.663c0,0,.321.374-1.037,0,0,0-.567-.2,0,.353,0,0,.267.374-.4,0l-.941-.406s-.749-.15.6,1.059c0,0,.406.289-.749-.043.332-.4-.107-.16-.107-.16-.053.032-.107.053-.16.086-.043-.011-.064-.021-.118-.032l-1.519-.385s-.524-.064.107.492c-.556.235-.995.406-1.326.524h-.021s-.214-.032-.192.075c-1.134.385-.866.1-.866.1.984-.9.545-.727.545-.727-2.449,1.005-1.85.684-1.85.684,1.658-1.315.62-.856.62-.856-3.379.3-2.577,0-2.577,0,2.267-.588,1.38-.588,1.38-.588-3.54.5-2.631,0-2.631,0,1.968-.374,1.059-.449,1.059-.449a20.227,20.227,0,0,1-7-4.1c-.353-.417-.6-.716-.781-.973.2-.16.021-.139-.086-.118a2.138,2.138,0,0,1-.342-.578,1.582,1.582,0,0,0,.225-.139,11.9,11.9,0,0,0,4.438,1.743,10.866,10.866,0,0,0,7.9-2.417c.845-.813.128-.513.128-.513-2.909.631-2.171.182-2.171.182,1.551-1.358.888-1.187.888-1.187a6.114,6.114,0,0,1-1.433.417c-1.711.353-1.251-.011-1.251-.011.321.1,1.091-.706,1.091-.706.588-.609.139-.481.139-.481l-1.807.225c-1.572.257-1.144,0-1.144,0l.642-.374c1.337-.834.588-.781.588-.781-3.647.353-2.994,0-2.994,0,2.406-1.059,1.551-1.166,1.551-1.166a6.21,6.21,0,0,1-1.6.128c-.9,0-.492-.15-.492-.15,1.946-.332,1.005-.556,1.005-.556a9.3,9.3,0,0,1-5.978-2.043c-1.722-1.337-.92-.93-.92-.93,6.748.577,7.4-1.561,7.4-1.561-1.7.652-1.134.2-1.134.2,3.711-1.968,2.492-1.8,2.492-1.8a9.336,9.336,0,0,1-1.925.16c-.513,0-.075-.182-.075-.182,1.593-1.112.759-.984.759-.984l-1.519.374c-1.647.513-1.134.16-1.134.16,1.347-1.219.6-1.059.6-1.059l-.941.4c-.663.385-.4,0-.4,0,.567-.556,0-.353,0-.353-1.358.385-1.037,0-1.037,0,1.08-.652.406-.652.406-.652a4.507,4.507,0,0,1-2.171.2c-.278-.086-.513-.171-.727-.246.278-.545-.118-.214-.118-.214-.064.043-.118.075-.171.107-1.412-.535-1.059-.706-1.059-.706,1.861,1.005,4.534-1.337,4.534-1.337,1.144-.962.332-.738.332-.738-1.743.278-1.315,0-1.315,0,.973-1.027.225-.674.225-.674a6.726,6.726,0,0,1-1.615.246c-.888.182-.556,0-.556,0,.342,0,.813-.5.813-.5.93-.834.3-.578.3-.578-2.331.631-1.786.182-1.786.182,2.171-.535.995-.738.995-.738-2.085.652-1.765.075-1.765.075.257.128.823-.1.823-.1.663-.332-.011-.406-.011-.406-2.021-.524-1.444-.631-1.444-.631.588.353.856.257.856.257.791,0-.225-.5-.225-.5-.15-.118-.267-.2-.385-.3.652-.845.289-.556.289-.556-.225.107-.438.2-.631.289-.823-.642-.577-.577-.577-.577,3.818,0,2.246-.62,2.246-.62-2.182.225-1.583-.182-1.583-.182,2.214,0,1.037-.374,1.037-.374-1.69-.46-1.069-.406-1.069-.406,1.294.128.588-.353.588-.353-1.957-.963-1.3-.813-1.3-.813.759.364.438,0,.438,0-.995-.856-.6-.674-.6-.674.46.321.086-.2.086-.2a6.458,6.458,0,0,1-.8-2.171,6.458,6.458,0,0,1-.8,2.171s-.374.524.086.2c0,0,.4-.182-.6.674,0,0-.321.364.449,0,0,0,.642-.15-1.315.813,0,0-.706.481.588.353,0,0,.62-.053-1.069.406,0,0-1.176.374,1.037.374,0,0,.6.406-1.583.182,0,0-1.572.62,2.257.62,0,0,.385-.118-1.315,1.144,0,0-.15.075-.289.16-.128-.011.1-.193.1-.193,2.021-1.3,1.251-1.005,1.251-1.005-2.962,1.241-2.492.727-2.492.727.984-.9.545-.727.545-.727-2.449,1.005-1.85.685-1.85.685,1.658-1.315.62-.856.62-.856-3.39.3-2.588,0-2.588,0,2.278-.588,1.39-.588,1.39-.588-3.54.5-2.631,0-2.631,0,1.968-.374,1.059-.449,1.059-.449a20.226,20.226,0,0,1-7-4.1c-1.743-2.01-1.144-1.9-1.144-1.9a11.717,11.717,0,0,0,4.6,1.839,10.866,10.866,0,0,0,7.9-2.417c.845-.813.118-.513.118-.513-2.9.631-2.16.182-2.16.182,1.551-1.358.888-1.187.888-1.187a6.183,6.183,0,0,1-1.444.417c-1.7.353-1.241-.011-1.241-.011.321.1,1.091-.706,1.091-.706.577-.61.139-.481.139-.481l-1.818.225c-1.561.257-1.144,0-1.144,0l.652-.374c1.337-.834.577-.781.577-.781-3.636.353-2.984,0-2.984,0,2.406-1.059,1.551-1.166,1.551-1.166a6.73,6.73,0,0,1-1.6.128c-.9,0-.492-.15-.492-.15,1.946-.332,1.005-.556,1.005-.556a9.27,9.27,0,0,1-5.978-2.043c-1.722-1.337-.92-.93-.92-.93,6.748.578,7.39-1.561,7.39-1.561-1.69.652-1.123.2-1.123.2,3.711-1.968,2.492-1.8,2.492-1.8a9.048,9.048,0,0,1-1.925.15c-.513,0-.075-.171-.075-.171,1.593-1.112.759-.984.759-.984l-1.529.374c-1.636.513-1.123.16-1.123.16,1.347-1.219.6-1.059.6-1.059l-.941.4c-.663.385-.4,0-.4,0,.567-.556,0-.353,0-.353-1.369.385-1.037,0-1.037,0,1.069-.652.406-.652.406-.652a4.506,4.506,0,0,1-2.171.2c-2.6-.813-2.085-1.059-2.085-1.059,1.872,1.005,4.545-1.337,4.545-1.337,1.144-.962.332-.738.332-.738-1.743.278-1.315,0-1.315,0,.973-1.027.214-.674.214-.674a6.655,6.655,0,0,1-1.6.246c-.888.182-.556,0-.556,0,.332,0,.813-.5.813-.5.93-.834.289-.578.289-.578-2.321.631-1.775.182-1.775.182,2.171-.535.995-.738.995-.738-2.085.652-1.765.075-1.765.075.257.128.823-.1.823-.1.663-.331-.021-.406-.021-.406-2.011-.524-1.433-.631-1.433-.631.588.353.856.257.856.257.791,0-.225-.5-.225-.5-1.7-1.262-1.315-1.144-1.315-1.144,3.829,0,2.257-.62,2.257-.62-2.182.225-1.583-.182-1.583-.182,2.214,0,1.037-.374,1.037-.374-1.69-.46-1.08-.406-1.08-.406,1.3.128.6-.353.6-.353-1.957-.963-1.315-.813-1.315-.813.77.364.449,0,.449,0-.995-.856-.6-.674-.6-.674.46.321.086-.2.086-.2a6.228,6.228,0,0,1-.8-2.171,6.459,6.459,0,0,1-.8,2.171s-.374.524.086.2c0,0,.385-.182-.6.674,0,0-.321.364.438,0,0,0,.652-.15-1.315.813,0,0-.7.481.6.353,0,0,.62-.053-1.069.406,0,0-1.187.374,1.037.374,0,0,.6.406-1.583.171,0,0-1.572.631,2.246.631,0,0,.4-.118-1.315,1.144,0,0-1.005.5-.214.5,0,0,.267.1.856-.257,0,0,.577.107-1.444.631,0,0-.684.075-.011.406,0,0,.556.225.813.1,0,0,.332.578-1.754-.075,0,0-1.176.2.995.727,0,0,.428.364-1.144-.011.3-.364-.118-.128-.118-.128-.053.021-.1.043-.15.064-.107-.032-.235-.064-.374-.1,0,0-.449-.182,0,.289-.428.214-.791.4-1.08.535-.086-.043-.31-.107-.225.1-1.732.8-1.027.246-1.027.246,2.011-1.315,1.251-1.016,1.251-1.016-2.962,1.24-2.5.738-2.5.738.995-.909.545-.738.545-.738-2.438,1.016-1.839.684-1.839.684,1.658-1.315.61-.856.61-.856-3.379.3-2.577,0-2.577,0,2.278-.578,1.39-.578,1.39-.578-3.54.5-2.631,0-2.631,0,1.957-.385,1.059-.46,1.059-.46a20.1,20.1,0,0,1-7-4.1c-1.743-2-1.144-1.9-1.144-1.9a11.642,11.642,0,0,0,4.588,1.839,10.827,10.827,0,0,0,7.914-2.417c.834-.813.118-.5.118-.5-2.9.631-2.171.171-2.171.171,1.561-1.358.888-1.187.888-1.187a5.52,5.52,0,0,1-1.433.417c-1.711.364-1.241-.011-1.241-.011.321.107,1.091-.706,1.091-.706.577-.6.139-.481.139-.481l-1.818.235c-1.572.246-1.144,0-1.144,0l.652-.385c1.326-.834.577-.781.577-.781-3.636.353-2.984,0-2.984,0,2.406-1.059,1.551-1.155,1.551-1.155a6.621,6.621,0,0,1-1.6.118c-.909,0-.492-.15-.492-.15,1.946-.321,1.005-.556,1.005-.556a9.27,9.27,0,0,1-5.978-2.043c-1.732-1.337-.93-.93-.93-.93,6.748.588,7.4-1.561,7.4-1.561-1.69.652-1.123.2-1.123.2,3.7-1.968,2.492-1.786,2.492-1.786a10.008,10.008,0,0,1-1.936.15c-.513,0-.064-.182-.064-.182,1.593-1.1.749-.984.749-.984l-1.519.385c-1.636.5-1.123.15-1.123.15,1.347-1.208.6-1.059.6-1.059l-.941.406c-.674.374-.4,0-.4,0,.567-.556,0-.353,0-.353-1.369.374-1.037,0-1.037,0,1.069-.663.406-.663.406-.663a4.507,4.507,0,0,1-2.171.2c-2.6-.8-2.085-1.059-2.085-1.059,1.861,1.005,4.545-1.337,4.545-1.337,1.144-.952.321-.727.321-.727-1.743.278-1.315,0-1.315,0,.973-1.037.225-.684.225-.684a6.252,6.252,0,0,1-1.6.257c-.888.171-.567,0-.567,0,.342,0,.823-.5.823-.5.92-.834.289-.588.289-.588-2.321.631-1.775.182-1.775.182,2.171-.535.995-.738.995-.738-2.085.663-1.765.086-1.765.086.257.118.823-.107.823-.107.663-.332-.021-.406-.021-.406-2.011-.524-1.433-.631-1.433-.631.577.353.856.257.856.257.781,0-.225-.5-.225-.5-1.711-1.262-1.315-1.134-1.315-1.134,3.829,0,2.257-.631,2.257-.631-2.192.225-1.593-.182-1.593-.182,2.224,0,1.048-.374,1.048-.374-1.69-.449-1.08-.406-1.08-.406,1.3.128.6-.353.6-.353-1.968-.952-1.315-.8-1.315-.8.77.353.449,0,.449,0-.995-.856-.6-.684-.6-.684.46.332.086-.2.086-.2a6.119,6.119,0,0,1-.8-2.16,6.342,6.342,0,0,1-.8,2.16s-.385.535.075.2c0,0,.4-.171-.588.684,0,0-.332.353.438,0,0,0,.652-.15-1.315.8,0,0-.7.481.6.353,0,0,.62-.043-1.08.406,0,0-1.176.374,1.048.374,0,0,.6.406-1.593.182,0,0-1.572.631,2.257.631,0,0,.4-.128-1.315,1.134,0,0-1.005.5-.225.5,0,0,.278.1.856-.257,0,0,.588.107-1.433.631,0,0-.684.075-.021.406,0,0,.567.225.823.107,0,0,.332.578-1.754-.086,0,0-1.187.2.984.738,0,0,.545.449-1.775-.182,0,0-.631-.246.289.588,0,0,.481.5.823.5,0,0,.321.171-.567,0a6.252,6.252,0,0,1-1.6-.257s-.749-.353.225.684c0,0,.428.278-1.315,0,0,0-.823-.225.321.727,0,0,2.684,2.342,4.545,1.337,0,0,.513.257-2.085,1.059a4.5,4.5,0,0,1-2.171-.2s-.663,0,.417.663c0,0,.321.374-1.048,0,0,0-.567-.2,0,.353,0,0,.278.374-.385,0l-.941-.406s-.759-.15.588,1.059c0,0,.4.278-.62,0q.674,1.829,1.38,3.625a20.809,20.809,0,0,0,4.117,0s.8-.406-.92.93a9.474,9.474,0,0,1-2.31,1.358,318.071,318.071,0,0,0,17.4,36.927c.513.16.93.278,1.251.364-.235.086-.471.171-.717.257a.609.609,0,0,0-.171.043c-.053.021-.075.053.064.118a6.758,6.758,0,0,0,1.166.289s.417.235-.428.225c-.2-.075-.4-.15-.588-.235A322.133,322.133,0,0,0,280.257,682.8c14.074-1.946,6.513-1.294,5.112-1.166,10.32-1.668,5.283-1.487,5.283-1.487,6.983-1.016,3.583-1.059,3.583-1.059,6.256-2.021,2.855-1.369,2.855-1.369C300.566,675.254,297.764,676.516,297.764,676.516Zm-21.677-37.965c.171.053.321.1.481.139C275.723,638.679,276.044,638.562,276.086,638.551ZM146.664,525.33c.011.011.021.011.032.021a2.227,2.227,0,0,0,.535.417c-.086.032-.16.075-.235.1a.081.081,0,0,1-.043-.011s-.385-.021-.77-.064C146.375,525.608,146.536,525.459,146.664,525.33ZM134,538.078a.4.4,0,0,1,.086-.011c.182.086.353.16.535.235C134.408,538.228,134.194,538.153,134,538.078Zm3.69,1.422c.16.053.321.107.471.15C137.328,539.639,137.638,539.522,137.691,539.5Zm1.422.888a5.961,5.961,0,0,0,.61-.267l.438.257S140.557,540.612,139.114,540.388Zm1.315-7.892c.107-.054.182-.086.267-.128.193.118.417.246.684.4C140.076,532.731,140.429,532.5,140.429,532.5Zm6.6-3.08a4.461,4.461,0,0,1-2.16-.2s-.674,0,.406.652c0,0,.321.385-1.037,0,0,0-.567-.2,0,.353,0,0,.267.385-.4,0l-.941-.4s-.749-.16.6,1.059c0,0,.513.353-1.134-.16l-1.519-.374s-.834-.128.759.984c0,0,.438.171-.075.171a9.047,9.047,0,0,1-1.925-.15s-.545-.075.225.471a.593.593,0,0,0-.182-.011l-.128.032a14.173,14.173,0,0,1-2.085-.481c-.021-.118-.246-.075-.246-.075h-.011a19.1,19.1,0,0,1-3.518-1.925,8.5,8.5,0,0,0,.845-.449,20.429,20.429,0,0,0,6.93.952,7.894,7.894,0,0,0,4.652-1.829,3.328,3.328,0,0,0,3.026.321S149.626,528.6,147.027,529.415Zm11.09,33.976a.214.214,0,0,1,.086-.021c.192.1.353.16.535.246C158.524,563.541,158.321,563.466,158.117,563.391Zm5.4,20a7.8,7.8,0,0,1-1.38-.471c.246-.075.5-.15.749-.225.556-.011.684-.043.61-.075-.032-.011-.128-.032-.235-.053l.1-.032c.043.032.1.053.139.086a6.449,6.449,0,0,0,.674.353C164,583.09,163.764,583.229,163.518,583.39Zm-.15-8.513a27.527,27.527,0,0,1-3.39-1.625,11.59,11.59,0,0,0,1.23.032,31.146,31.146,0,0,0,3.08.92C164.031,574.406,163.711,574.642,163.368,574.877Zm-1.561-10.063c.171.053.321.1.481.15C161.443,564.953,161.764,564.824,161.807,564.814Zm4.652-7.037a4.329,4.329,0,0,1-1.7-.075c.941-.438.61-.556.61-.556a5.007,5.007,0,0,1-1.337.053c-.021-.107-.267-.075-.267-.075l-.128.021a12.017,12.017,0,0,1-2.085-.481c-.021-.107-.246-.075-.246-.075l-.011.011a18.665,18.665,0,0,1-3.508-1.925c.321-.16.6-.31.845-.449a19.323,19.323,0,0,0,5.112.93,2.95,2.95,0,0,0,.257.225s2.674,2.342,4.545,1.337C168.544,556.718,169.047,556.964,166.459,557.777Zm22.415,20.95c.118.086.257.192.428.321-.193.1-.364.182-.513.246-.2,0-.428-.011-.663-.032C188.521,578.994,188.757,578.823,188.874,578.727Zm-1.273.877h.011c.053.032.118.075.182.118C187.185,579.946,187.6,579.6,187.6,579.6Zm-10.063,12.149a.213.213,0,0,1,.086-.021c.193.1.364.16.535.246C177.945,591.9,177.742,591.827,177.538,591.753Zm3.871,10.9c-.107-.053-.225-.107-.332-.16.374-.567-.214-.214-.214-.214a.923.923,0,0,0-.107.064c-.513-.257-.995-.513-1.412-.749-1.176-1.048-.438-.6-.438-.6.717.289,1.39.535,1.989.749a9.366,9.366,0,0,0,1.027.556Zm-.182-9.475c.171.053.332.1.481.15C180.864,593.314,181.185,593.186,181.228,593.175Zm1.315,9.967c-.16-.064-.332-.128-.492-.193.128-.16.246-.31.353-.438a8.817,8.817,0,0,0,.984.31C183.046,602.96,182.768,603.067,182.543,603.142Zm5.5,9.614h-.086c.182-.053.364-.107.567-.171a.453.453,0,0,0,.118.021S189.131,612.756,188.04,612.756Zm3.026-1.144c.321-.139.642-.278.984-.438a.2.2,0,0,1,.15.064A9.387,9.387,0,0,1,191.067,611.612Zm-2.289-7.176s-.321.118-.791.235c-.16,0-.31-.011-.438-.011-.021-.043-.2-.043-.2-.043-.064.011-.118.011-.182.021-.2-.011-.321-.021-.321-.021a10.368,10.368,0,0,1-1.786-.16c1.166-.235.406-.289.406-.289-.706-.2-1.369-.417-2-.652.31-.235.545-.428.717-.567.171.011.342.032.524.032a20.6,20.6,0,0,0,7.048-1.005c.225.128.492.278.8.438A16.345,16.345,0,0,1,188.778,604.436Zm4.994-11.71a19.6,19.6,0,0,1-4.524,3.059,13.933,13.933,0,0,1-1.732-.128c.481-.471.032-.364.032-.364l-1.369.139c-.46-.086-.92-.193-1.369-.31,1.551-.813.674-.759.674-.759-1.412.107-2.289.15-2.823.15-.214-.064-.428-.139-.631-.2.631-.235,1.069-.428,1.358-.567.128.021.225.032.225.032a8.293,8.293,0,0,0,5.058-1.059,10.776,10.776,0,0,0,1.647-.054,11.717,11.717,0,0,0,4.6-1.839S195.515,590.726,193.772,592.726Zm-4.149-5.582a1.281,1.281,0,0,0,.118-.128C189.751,587.026,189.88,587.1,189.623,587.143Zm5.636-3.9a9.368,9.368,0,0,1-5.978,2.043s-.941.225,1.005.545c0,0,.406.16-.492.16a6.849,6.849,0,0,1-1.615-.128s-.684.086.952.877c-.374.182-.663.31-.888.406-.139-.011-.278-.021-.438-.032.866-.7.5-.674.5-.674-.577.289-.984.481-1.283.61l-.278-.032s-.3-.011-.171.192c-.5.16-.289-.086-.289-.086,1.283-1.112.556-.759.556-.759-3.486.225-2.877-.2-2.877-.2,1.23-.524.823-.652.823-.652a5,5,0,0,1-1.337.054c-.021-.107-.267-.075-.267-.075l-.128.021a12.031,12.031,0,0,1-2.085-.481c-.021-.107-.246-.075-.246-.075l-.011.011a10.761,10.761,0,0,1-1.839-.888c.021-.086-.032-.086-.1-.064-.61-.353-1.2-.727-1.572-.973.321-.16.61-.31.845-.449a20.691,20.691,0,0,0,6.919.952,7.974,7.974,0,0,0,4.759-1.914c.952.513,2.8.995,6.449.674C196.179,582.3,196.981,581.9,195.259,583.24Zm27.794,23.891a3.586,3.586,0,0,0,.46.086s.417.16-.492.16h-.171C222.925,607.281,222.989,607.206,223.053,607.131Zm-.813.941c.2.1.438.2.727.332,0,0,.385.214-1.176.139C221.962,608.372,222.112,608.211,222.241,608.072Zm-1.294,1.337.267.16s.278.171-.524.086C220.8,609.548,220.882,609.473,220.947,609.409Zm-1.412,1.176c.011.043,0,.086-.128.1A1.346,1.346,0,0,0,219.535,610.585Zm-9.914,2.021c.171.053.321.107.481.15C209.258,612.745,209.578,612.628,209.621,612.606Zm-3.69-1.422a.4.4,0,0,1,.086-.011c.193.086.353.16.535.235C206.338,611.345,206.135,611.259,205.932,611.184Zm3.518,19.3c.214,0,.417,0,.588.011.064.053.107.107.171.171,0,0,.107.107.289.267C210.167,630.808,209.814,630.658,209.45,630.487Zm6.491-6.4c-.021-.032-.2-.032-.2-.032-.064,0-.118.011-.182.011-.2-.011-.332-.011-.332-.011a11.4,11.4,0,0,1-1.775-.16c1.166-.246.406-.3.406-.3a26.63,26.63,0,0,1-6.117-2.577c-1.176-1.048-.438-.6-.438-.6a32.872,32.872,0,0,0,4.951,1.615c.171.032.342.053.524.086a9.745,9.745,0,0,0,3.465,1.978A2.6,2.6,0,0,1,215.942,624.092Zm4.588.193c.15-.011.3-.032.46-.043C220.487,624.5,220.487,624.37,220.529,624.285Zm2.962,18.17c-.813.118-1.422.193-1.872.235.706-.235,1.5-.513,2.374-.877C223.994,641.813,224.722,641.385,223.492,642.454Zm-1.412-18.319a.187.187,0,0,0,.043-.053c.193-.032.385-.064.577-.107C221.4,624.873,222.08,624.135,222.08,624.135Zm1.54-.278a.777.777,0,0,1,.053-.1c.171-.043.332-.086.5-.139C223.2,624.4,223.62,623.857,223.62,623.857Zm2.021.043c-2.043.963-1.155.31-1.155.31.235-.342.406-.61.535-.823q.321.192.77.417C225.748,623.825,225.695,623.868,225.641,623.9ZM227,614.114a18.492,18.492,0,0,1-3.026,2.246.517.517,0,0,0-.225.032c-3.048.856-2.588.139-2.588.139,1.326-.973.492-.6.492-.6a18.274,18.274,0,0,1-2.107.556c-.043-.064-.321.032-.321.032a.136.136,0,0,0-.064.011c-.225-.021.032-.193.032-.193,2-1.134.866-.781.866-.781-1.219.214-2,.331-2.492.374.332-.3.321-.4.257-.417.545-.257-.032-.289-.032-.289a14.617,14.617,0,0,1-1.893-.139c.492-.46.043-.364.043-.364l-1.369.15c-.46-.1-.92-.2-1.369-.31,1.551-.813.674-.77.674-.77-1.422.118-2.289.15-2.823.16-.214-.075-.428-.139-.631-.214a13.227,13.227,0,0,0,1.358-.567c.128.021.214.043.214.043a8.058,8.058,0,0,0,4.641-.856,10.658,10.658,0,0,0,6.919,1.69,11.642,11.642,0,0,0,4.588-1.839S228.743,612.115,227,614.114Zm12.17,18.458a.4.4,0,0,1,.086-.011c.182.086.353.16.535.235C239.565,632.733,239.362,632.648,239.17,632.573Zm1.754,9.8c-1.1-.984-.385-.556-.385-.556.941.385,1.8.7,2.524.93A7.636,7.636,0,0,1,240.923,642.369Zm3.882-16.063-.128.032a12.93,12.93,0,0,1-2.075-.481c-.021-.118-.257-.075-.257-.075a9.581,9.581,0,0,1-1.807-.866c-.652-.374-1.3-.791-1.711-1.059.321-.15.61-.31.845-.449a18.282,18.282,0,0,0,4.2.866,14.663,14.663,0,0,0,1.016,1.315s.3.342.813.813c-.2,0-.417,0-.631-.021C245.051,626.274,244.806,626.306,244.806,626.306Zm.781.684a4.454,4.454,0,0,0,.5-.246c.2.16.417.342.652.513C245.223,627.247,245.586,626.99,245.586,626.99Zm-1.347-2.684c.7.053,1.273.075,1.69.075.2.192.481.449.866.791C246.795,625.172,247.533,625.835,244.239,624.306Zm3.647,3.679a.856.856,0,0,0,.171.086C247.832,628.124,247.853,628.038,247.885,627.985Zm-1.176-3.625a4.832,4.832,0,0,0,.791-.075c.214.15.545.374,1.037.7C248.538,624.98,249.425,625.686,246.709,624.359ZM256.58,664.7c-.385,0-.021-.193-.021-.193.364-.171.631-.31.834-.417A2.615,2.615,0,0,1,256.58,664.7Zm.952-27.142c.321-.139.642-.278.973-.449,0,0,.118,0,.16.064A11.688,11.688,0,0,1,257.532,637.556Zm-2.289-7.176s-.364.118-.888.257a27.385,27.385,0,0,0,1.978-2.192,15.532,15.532,0,0,0,1.882-.535c.225.128.492.289.8.438A16.813,16.813,0,0,1,255.243,630.38Zm17.154,6.748a.213.213,0,0,1,.086-.021c.193.1.353.16.535.246C272.8,637.278,272.6,637.2,272.4,637.128Z" transform="translate(-118.571 -490.67)" fill="#586c7e"/>
      <path id="Path_1385" data-name="Path 1385" d="M685.017,505.567c1.358-1.208.6-1.059.6-1.059l-.941.406c-.663.374-.385,0-.385,0,.556-.556,0-.353,0-.353-1.369.374-1.048,0-1.048,0,1.08-.663.417-.663.417-.663a4.5,4.5,0,0,1-2.171.2c-2.6-.8-2.085-1.059-2.085-1.059,1.861,1.005,4.545-1.337,4.545-1.337,1.144-.952.321-.727.321-.727-1.743.278-1.315,0-1.315,0,.973-1.037.225-.684.225-.684a6.252,6.252,0,0,1-1.6.257c-.888.171-.567,0-.567,0,.342,0,.823-.5.823-.5.92-.834.289-.588.289-.588-2.321.631-1.775.182-1.775.182,2.171-.535.984-.738.984-.738-2.085.663-1.754.086-1.754.086.257.118.813-.107.813-.107.674-.332-.011-.406-.011-.406-2.021-.524-1.433-.631-1.433-.631.577.353.856.257.856.257.781,0-.225-.5-.225-.5-1.711-1.262-1.315-1.134-1.315-1.134,3.829,0,2.256-.631,2.256-.631-2.192.225-1.593-.182-1.593-.182,2.224,0,1.037-.374,1.037-.374-1.69-.449-1.069-.406-1.069-.406,1.294.128.6-.353.6-.353-1.968-.952-1.315-.8-1.315-.8.77.353.438,0,.438,0-.984-.856-.6-.684-.6-.684.46.332.086-.2.086-.2a6.342,6.342,0,0,1-.8-2.16,6.12,6.12,0,0,1-.8,2.16s-.374.535.086.2c0,0,.4-.171-.6.684,0,0-.321.353.449,0,0,0,.652-.15-1.315.8,0,0-.706.481.6.353,0,0,.61-.043-1.08.406,0,0-1.176.374,1.037.374,0,0,.6.406-1.583.182,0,0-1.572.631,2.256.631,0,0,.4-.128-1.315,1.134,0,0-1.005.5-.225.5,0,0,.278.1.856-.257,0,0,.578.107-1.433.631,0,0-.684.075-.021.406,0,0,.567.225.823.107,0,0,.321.578-1.765-.086,0,0-1.176.2.995.738,0,0,.545.449-1.775-.182,0,0-.631-.246.289.588,0,0,.481.5.823.5,0,0,.321.171-.567,0a6.252,6.252,0,0,1-1.6-.257s-.759-.353.225.684c0,0,.417.278-1.326,0,0,0-.813-.225.332.727,0,0,2.684,2.342,4.545,1.337,0,0,.513.257-2.085,1.059a4.507,4.507,0,0,1-2.171-.2s-.663,0,.406.663c0,0,.332.374-1.037,0,0,0-.567-.2,0,.353,0,0,.267.374-.4,0l-.941-.406s-.749-.15.6,1.059c0,0,.513.353-1.123-.15l-1.519-.385s-.845-.118.749.984c0,0,.439.182-.075.182a9.871,9.871,0,0,1-1.925-.15s-1.208-.182,2.492,1.786c0,0,.567.449-1.123-.2,0,0,.642,2.15,7.4,1.561,0,0,.8-.406-.93.93a9.27,9.27,0,0,1-5.978,2.043s-.941.235,1.005.556c0,0,.417.15-.492.15a6.621,6.621,0,0,1-1.6-.118s-.856.1,1.551,1.155c0,0,.652.353-2.984,0,0,0-.759-.054.578.781l.652.385s.428.246-1.144,0l-1.818-.235s-.438-.118.139.481c0,0,.77.813,1.091.706,0,0,.46.374-1.241.011a5.52,5.52,0,0,1-1.433-.417s-.674-.171.888,1.187c0,0,.727.46-2.171-.171,0,0-.716-.31.118.5a10.827,10.827,0,0,0,7.914,2.417,11.7,11.7,0,0,0,4.588-1.839s.6-.1-1.144,1.9a20.225,20.225,0,0,1-7,4.1s-.9.075,1.059.46c0,0,.909.5-2.631,0,0,0-.888,0,1.39.578,0,0,.8.3-2.588,0,0,0-1.037-.46.62.856,0,0,.6.331-1.85-.684,0,0-.439-.171.556.738,0,0,.46.5-2.5-.738,0,0-.77-.3,1.251,1.016,0,0,1.112.877-2.855-1.134,0,0-.984-.556,1.112,1.326,0,0,.8.716-2.887-1.027,0,0-.6-.481.995,1.433,0,0,2.813,3.326,6.267,3.326a20.307,20.307,0,0,0,7.048-1.005,9.055,9.055,0,0,0,.813.438,17.048,17.048,0,0,1-3.775,2.032,12.6,12.6,0,0,1-2.032.492l-.064-.011s-.193-.021-.246.053a4.967,4.967,0,0,1-1.551-.032s-.417.128.813.663c0,0,.62.428-2.866.2,0,0-.738-.364.545.749,0,0,.545.61-2.021-.674,0,0-.439-.043.706.813,0,0,.8.642-2.6-1.048,0,0-.684-.353.8,1.176,0,0,.545.567-1.6-.9,0,0-.31-.171.053.353,0,0,.8.813-2.449-1.155,0,0-.716-.61.449,1.112,0,0,.77.823-1.882.246,0,0-1.123-.524,2.139,2.8,0,0,4.716,4.663,9.09,3.936,0,0,.139-.021.364-.075a12.006,12.006,0,0,0,1.326.567c-.235.075-.481.16-.738.235-.545-.011-1.369-.053-2.62-.15,0,0-.845-.043.6.727-.47.118-.941.235-1.433.331l-1.241-.128s-.428-.1.011.342a15.442,15.442,0,0,1-2.064.16s-.684.032.15.353c.011.064.086.182.3.374-.46-.032-1.283-.139-2.716-.4,0,0-1.134-.353.866.781,0,0,.16.107.118.16-.1-.032-.289-.075-.278.021a16.69,16.69,0,0,1-2.3-.588s-.834-.374.492.6c0,0,.471.716-2.588-.139,0,0-.909-.331.663.909,0,0,1.208.727-2.224,0,0,0-1.326-.438,3.593,2.62,0,0,.984.449-1.059.1,0,0-.717-.182.289.364l-.93.235c-1.636.5-1.123.15-1.123.15,1.348-1.208.6-1.059.6-1.059l-.941.406c-.663.374-.4,0-.4,0,.567-.556,0-.353,0-.353-1.369.374-1.037,0-1.037,0,1.069-.663.406-.663.406-.663a4.507,4.507,0,0,1-2.171.2c-2.6-.8-2.085-1.059-2.085-1.059,1.861,1.005,4.545-1.337,4.545-1.337,1.144-.952.332-.727.332-.727-1.743.278-1.315,0-1.315,0,.973-1.037.214-.684.214-.684a6.251,6.251,0,0,1-1.6.257c-.888.171-.556,0-.556,0,.331,0,.813-.5.813-.5.92-.834.289-.588.289-.588-2.321.631-1.775.182-1.775.182,2.171-.535.995-.727.995-.727-2.085.652-1.765.075-1.765.075.257.118.823-.107.823-.107.663-.321-.021-.4-.021-.4-2.011-.535-1.433-.631-1.433-.631.578.353.856.246.856.246.791,0-.225-.5-.225-.5-1.711-1.262-1.315-1.134-1.315-1.134,3.829,0,2.257-.631,2.257-.631-2.182.225-1.583-.182-1.583-.182,2.214,0,1.037-.374,1.037-.374-1.69-.449-1.08-.406-1.08-.406,1.3.128.6-.353.6-.353-1.957-.952-1.315-.8-1.315-.8.77.353.449,0,.449,0-.995-.856-.6-.684-.6-.684.46.332.086-.2.086-.2a6.119,6.119,0,0,1-.8-2.16,6.343,6.343,0,0,1-.8,2.16s-.374.535.086.2c0,0,.385-.171-.6.684,0,0-.332.353.438,0,0,0,.652-.15-1.315.8,0,0-.7.481.6.353,0,0,.62-.043-1.069.406,0,0-1.187.374,1.037.374,0,0,.6.406-1.593.182,0,0-1.572.631,2.256.631,0,0,.4-.128-1.315,1.134,0,0-1.005.5-.214.5,0,0,.267.107.845-.246,0,0,.588.1-1.433.631,0,0-.684.075-.011.4,0,0,.556.225.813.107,0,0,.332.577-1.754-.075,0,0-1.176.193.984.727,0,0,.556.449-1.775-.182,0,0-.631-.246.289.588,0,0,.481.5.823.5,0,0,.321.171-.567,0a6.251,6.251,0,0,1-1.6-.257s-.749-.353.225.684c0,0,.428.278-1.315,0,0,0-.823-.225.321.727,0,0,2.684,2.342,4.545,1.337,0,0,.513.257-2.085,1.059a4.462,4.462,0,0,1-2.16-.2s-.674,0,.406.663c0,0,.321.374-1.048,0,0,0-.556-.2,0,.353,0,0,.278.374-.385,0l-.941-.406s-.749-.15.6,1.059c0,0,.513.353-1.134-.15l-1.519-.385s-.834-.118.749.984c0,0,.449.182-.064.182a10.008,10.008,0,0,1-1.936-.15s-1.208-.182,2.5,1.786c0,0,.556.46-1.134-.2,0,0,.652,2.15,7.4,1.561,0,0,.8-.4-.92.941a9.368,9.368,0,0,1-5.978,2.043s-.941.225,1.005.545c0,0,.406.16-.5.16a6.763,6.763,0,0,1-1.6-.128s-.845.1,1.561,1.155c0,0,.642.353-2.994,0,0,0-.749-.053.588.781l.642.385s.428.246-1.144,0l-1.807-.235s-.449-.118.139.481c0,0,.77.813,1.091.706,0,0,.46.374-1.251.011a5.9,5.9,0,0,1-1.433-.406s-.663-.182.888,1.176c0,0,.738.46-2.171-.171,0,0-.716-.3.118.5a10.852,10.852,0,0,0,7.914,2.417,11.716,11.716,0,0,0,4.6-1.839s.6-.1-1.144,1.9a20.225,20.225,0,0,1-7,4.1s-.909.075,1.059.46c0,0,.9.5-2.631,0,0,0-.888,0,1.38.578,0,0,.8.3-2.577,0,0,0-1.037-.449.62.856,0,0,.588.331-1.85-.684,0,0-.449-.171.545.738,0,0,.46.5-2.492-.738,0,0-.77-.3,1.251,1.016,0,0,1.1.877-2.855-1.134,0,0-.995-.556,1.112,1.326,0,0,.8.716-2.888-1.027,0,0-.6-.481.984,1.433,0,0,2.823,3.337,6.278,3.337a20.6,20.6,0,0,0,7.048-1.005c.224.128.492.278.8.438a16.346,16.346,0,0,1-3.775,2.021,12.6,12.6,0,0,1-2.032.492l-.054-.011s-.2-.021-.257.053a4.986,4.986,0,0,1-1.551-.032s-.406.128.823.663c0,0,.61.428-2.877.2,0,0-.727-.353.545.749,0,0,.556.609-2.011-.674,0,0-.449-.043.706.823,0,0,.8.631-2.6-1.059,0,0-.684-.353.8,1.176,0,0,.545.567-1.6-.9,0,0-.31-.171.043.353,0,0,.8.813-2.438-1.155,0,0-.716-.61.439,1.112,0,0,.77.823-1.872.246,0,0-1.134-.524,2.128,2.8,0,0,4.716,4.663,9.09,3.935,0,0,.139-.021.374-.075a11.636,11.636,0,0,0,1.315.567c-.235.075-.481.16-.727.235-.545-.011-1.369-.053-2.631-.15,0,0-.845-.043.61.727-.471.128-.952.235-1.433.331l-1.24-.128s-.439-.1.011.342a15.567,15.567,0,0,1-2.064.16s-.684.043.139.353c.011.064.1.182.31.374-.471-.032-1.283-.139-2.727-.4,0,0-1.123-.353.877.781,0,0,.16.107.118.16-.107-.032-.289-.075-.289.021a16.723,16.723,0,0,1-2.289-.588s-.845-.374.492.6c0,0,.46.717-2.6-.139,0,0-.909-.331.674.909,0,0,1.208.727-2.224,0,0,0-1.337-.428,3.583,2.62,0,0,.995.449-1.059.1,0,0-1.176-.3,1.572,1.016,0,0,5.026,1.807,8.962,1.005a32.876,32.876,0,0,0,4.951-1.615s.877-.535-.823.92a25.969,25.969,0,0,1-5.529,2.256s-.727.054.31.278a11.485,11.485,0,0,1-1.893.182s-.064,0-.182.011a.442.442,0,0,0-.118-.011.74.74,0,0,0-.193.021c-1.176.064-4.128.128-5.368-.631,0,0-.545-.15.535.781,0,0,.545.781-2.171-1.08,0,0-.738-.332.652.984,0,0,.973,1.059-1.572-.834,0,0-.674-.481.032.556,0,0,.609.823-1.433-.984,0,0-1.069-1.08.556,1.337,0,0,.962.706-1.347-.406,0,0-2.342-1.262.567,1.208,0,0-2.278-.524,1.059.845l.567.567.075.075c-.032.043.011.1.182.171.866.749,3.8,3.08,7.261,3.08a25.912,25.912,0,0,0,2.62-.043l1.925.321a320.045,320.045,0,0,0,23.848-32.553c-.364-.043-.086-.193-.086-.193a2.406,2.406,0,0,1,.246-.043q2.326-3.641,4.556-7.358c-2.032.406-1.444.032-1.444.032,1.561-1.358.9-1.176.9-1.176a6.1,6.1,0,0,1-1.444.406c-1.7.364-1.241-.011-1.241-.011.321.107,1.091-.706,1.091-.706.578-.6.139-.481.139-.481l-1.818.235c-1.561.246-1.144,0-1.144,0l.652-.385c1.337-.834.577-.781.577-.781-3.636.353-2.984,0-2.984,0a4.624,4.624,0,0,0,1.658-.952,10.253,10.253,0,0,0,5.187,1.593s.449.021,1.2.011c1.39-2.353,2.748-4.716,4.075-7.112a26.568,26.568,0,0,1-2.791.952s-.727.053.3.278a11.385,11.385,0,0,1-1.882.171s-.064.011-.192.021c-.043-.011-.075-.011-.118-.021a.5.5,0,0,0-.192.032c-1.176.064-4.128.128-5.358-.631,0,0-.545-.15.524.781,0,0,.5.716-1.861-.877a1.268,1.268,0,0,0,.4-.513c-.364.139-.61.225-.791.278-.053-.011-.1-.011-.107.021-.513.139-.214-.107-.214-.107,2.577-1.369,2.781-1.7,2.652-1.775,1.529.46,5.2,1.4,8.235.781,0,0,.791-.171,2.053-.567a318.3,318.3,0,0,0,17.346-36.842,9.475,9.475,0,0,1-2.406-1.4c-1.722-1.337-.92-.93-.92-.93a19.386,19.386,0,0,0,4.235-.021c.481-1.208.941-2.428,1.39-3.647C684.589,505.867,685.017,505.567,685.017,505.567Zm-51.942,76.176h-.086c.182-.053.364-.107.556-.171a.537.537,0,0,0,.128.021S634.166,581.743,633.075,581.743ZM636.1,580.6c.321-.139.642-.278.973-.438,0,0,.118,0,.16.064A10.055,10.055,0,0,1,636.1,580.6Zm16.683-29.73c.032.053.021.1-.086.043A.619.619,0,0,1,652.784,550.868Zm-.909.257c.118.1.406.342-.289.064C651.694,551.168,651.779,551.146,651.875,551.125Zm-3.711,9.026c-.171-.364.021-.342.021-.342.225.16.46.289.684.428-.16-.032-.321-.053-.492-.086C648.378,560.151,648.207,560.087,648.164,560.151Zm1.166,1.561c-.332-.385-.567-.674-.749-.92a30.105,30.105,0,0,0,2.353,2.16s.332.257.877.652A17.824,17.824,0,0,1,649.33,561.712Zm3.978-6.737c-.909,0-.492-.16-.492-.16.962-.16,1.219-.3,1.23-.4.214.16.449.31.706.481A10.6,10.6,0,0,1,653.308,554.975Zm.364-4.545a6.911,6.911,0,0,0,.578.588s.791.866-.941-.374A3.638,3.638,0,0,0,653.672,550.43Zm.15,3.839a9.335,9.335,0,0,1-5.978-2.043c-1.722-1.337-.92-.941-.92-.941a20.513,20.513,0,0,0,3.486.054c.182.16.385.342.652.567,0,0-2.289-.524,1.059.845.15.16.342.342.556.567l.075.075c-.021.043.021.1.193.16C653.137,553.724,653.437,553.98,653.822,554.269Zm1.861-6.128a9.87,9.87,0,0,1-1.925.15c-.513,0-.075-.182-.075-.182a6.2,6.2,0,0,0,.706-.545c.214.107.449.225.738.353,0,0,.246.1.663.225A.311.311,0,0,0,655.682,548.141Zm10.63-8.491h-.086c.171-.053.353-.107.556-.171.043.011.075.011.118.021C666.9,539.5,667.393,539.65,666.313,539.65Zm3.016-1.144c.321-.139.642-.278.984-.439,0,0,.118,0,.16.064C670.12,538.26,669.735,538.388,669.328,538.506Z" transform="translate(-84.009 -490.67)" fill="#586c7e"/>
    </g>
    <path id="man" d="M486.807,373.733l-4.2.492c-.607,0-.116-.231-.116-.231l4.229-.928c1.1-.231.866-.718.866-.718-.144-.376-1.039-.208-1.039-.208l-4.345.637c-.9.2-.491-.463-.491-.463l3.243-1.738c.811-.319.466-.858.466-.858-.29-.29-1.588.309-1.588.309L480,371.5a9.463,9.463,0,0,1-1.766.378c-.494,0-.378-.146-.378-.146l.638-1.245a1.972,1.972,0,0,0,0-2.2.5.5,0,0,0-.7,0l-.116,1.042a8,8,0,0,1-1.332,1.854,3.686,3.686,0,0,0-.553.677.628.628,0,0,0-.077.2c-.066.315-.442,1-.732,1.87-.318.956-1.708,1.507-2.23,1.8a32.3,32.3,0,0,1-4,1.852c-.869.232-3.272,1.1-4.084,1.361-.116.038-.29.1-.5.18h0l-.47-.1-1.317.351h-.644l-.611,1.03-1.118.309-1.2.221-.942.47-.867.264-.852.118-.993.8h0c-.434.166-.823.326-.963.385l-.158.034c-.327.041-1.144.222-1.144.222a1.074,1.074,0,0,0-.476.11h0l-1.053.55a.849.849,0,0,0-.137.071l-2.89.438-1.554.264a.865.865,0,0,0-.3.05l-1.493.253-.853.341c-.242.034-.537.092-.537.092a.576.576,0,0,0-.413.288l-.646.259c-.189.034-.34.076-.34.076l-.9-.89-.922-.141.1-1.079a4.888,4.888,0,0,1,.658-1.528c.131.13.411.043.411.043l.287-.387a5.315,5.315,0,0,0,.49-1.291c.355-1.084-.434-.925-.434-.925a5.979,5.979,0,0,0-.181-3.569,2.6,2.6,0,0,0-.9-1.412c0-.2-.369-.536-.369-.536,0,.319-.439.081-.439.081,0-.319-.371-.515-.371-.515,0,.144-.2.116-.2.116-.406-1.158-.376-.406-.376-.406,0,.318-.29-.116-.29-.116a1.7,1.7,0,0,0-.232-.55c0,.231-.406.2-.406.2a.639.639,0,0,0-.319-.522.838.838,0,0,1-.578.232c0-.2-.291-.406-.291-.406l-.491.434-.116-.434c-.13.13-.725.811-.725.579v-.319l-.042.045c-.271.281-.855.961-.855.824v-.522c-.146.464-.985,1.333-.841.928s0-1.072,0-.666a1.373,1.373,0,0,1-.469.811c-.874.2-1.645,1.882-1.645,1.882-.593.593-.466,2.31-.466,2.31-.134.133.213,1.294.33,1.588-.133-.1-.576-.091-.576.476a2.739,2.739,0,0,0,.562,1.43c.462.916.726.413.886.572a17.07,17.07,0,0,1,.858,1.676l.2.977-1.128.118-.554.527-.028,0-.827-.127c-.137-.027-.267-.041-.267-.041h0l-.52-.08-.616-.138-.038-.015a1.217,1.217,0,0,0-.337-.14l-1.455-.607-2.058-1.158-1.8-.643-.772-.644-2.959-1.286-2.058-.9-4.04-1.424-.368-.623-1.9-.679-.683.416a37.479,37.479,0,0,0-3.66-1.3c-1.419-.2-5.3-2.665-5.3-2.665a4.788,4.788,0,0,0-.175-1.1,14.2,14.2,0,0,0-1.852-3.186,8.089,8.089,0,0,1-.811-1.94c-.319-.319-.666.144-.666.144-.565.565.637,2.868.637,2.868,0,.29-.4.4-.4.4-.579.319-2.057-.318-2.057-.318s.406.231-.144-.029-4-1.795-4-1.795c-.55,0-.29.492-.29.492.13.13,3.272,2,3.272,2,.3.3-.173.29-.173.29l-4.2-1.13c-.869,0-.376.522-.376.522.116.116,3.91,1.361,3.91,1.361.52.2.173.29.173.29l-3.331-.811c-.753,0-.376.609-.376.609l4.344,1.361c.435.2.087.347.087.347a16.192,16.192,0,0,1-2.345.059c-.579,0-.406.4-.406.4,0,.435,2.577.464,2.577.464a10.739,10.739,0,0,1,1.391.2l1.448.579s1.188.376,1.708.52,5.213,3.186,5.213,3.186a30.96,30.96,0,0,0,3.763,1.926l-.1.512.634.653,1.344.839.956-.1,1.3.765,2.573,1.8,3.022,2.145,4.14,2.809,3.439,2.7h0l.851,3.665,1.158,5.888v4.019l-.515,3.216-1.462,10.879h.8c-.234,2.606-.651,8.972-.651,9.158,0,.073-.062,1.006-.144,2.252l-.942.332-.581.928-.125,1.2-.067.652-.158,1.521a4.8,4.8,0,0,0-.067.652c-.022.438-.112,1.087-.112,1.087l.469,1.037-.113,1.087-.078.761-.067.652.385,1.028.358,1.242.123-.3c-.151,1.752-.271,3.274-.271,3.274l-.788,10.518-1.4,12.853v1.591l-1.282,1.673v1.717h6.819l1.03-1.2v-2.927l.129-1.319,1-9.119c.522-.841,1.158-8.6,1.158-8.6l1.731-9.259c0-.638,1.9-9.306,1.9-9.306.649-2.665,1.175-4.747,1.554-6.221a.5.5,0,0,1,.978.059C438.663,432.922,440.1,442,440.1,442c0,.753.515,4.772.515,4.772,0,2.693,1.014,12.685,1.014,12.685.347,5.444.306,9.73.306,9.73a2.414,2.414,0,0,0,.087,1.105h0l.207,1.739-.1,1.135-.1,1.619.344,1,3.275.073h3.474l.2-1v-1.963l-.087-1.29-.234-1.17h0l-.5-10.606c0-.406-.183-8.709-.183-8.709,0-.548-.269-4.419-.43-6.685l.368-.907.488-.981v-2.506l.574-.981s-.024-.655,0-1.09a4.778,4.778,0,0,0,0-.655v-3.377l-.483-.981-.935-.441.013-.859c0-1.448.347-5.039.347-5.936,0-.582.01-2.967.018-4.583h1.039l-2-11.008v-6.41h0c.113-.494.235-1.088.357-1.724l1.863-9,6.6-3.331,2.654-1.795,1.8-1.03,1.543-.644,1.158-1.028.725.178,1.072-.631.825-.53v-.645c.988-.375,1.747-.68,1.747-.68.725-.29,4.141-2.259,4.141-2.259l3.591-2.258c.406-.406,2.085-.522,2.085-.522a18.664,18.664,0,0,0,2.433-.645,14.415,14.415,0,0,1,1.507-.311,23.461,23.461,0,0,0,4.14-.057c.449-.449-.144-.667-.144-.667l-2.78-.288c-1.014,0-.579-.435-.579-.435l4.547-.753c.869,0,.887-.5.887-.5C487.491,373.579,486.807,373.733,486.807,373.733Z" transform="translate(-8.615 -21.643)"/>
  </g>
</svg>
