<svg xmlns="http://www.w3.org/2000/svg" width="214" height="34" viewBox="0 0 214 34">
  <g id="who" transform="translate(0 -500)">
    <line id="Line_13" data-name="Line 13" x2="211" transform="translate(1.5 532.5)" fill="none" stroke="#68727c" stroke-linecap="round" stroke-width="3"/>
    <rect id="Rectangle_15" data-name="Rectangle 15" width="203" height="33" transform="translate(0 500)" fill="#68727c"/>
    <path id="Path_6462" data-name="Path 6462" d="M5.52,16.616a4.906,4.906,0,0,1-3.328-1.008A3.583,3.583,0,0,1,1.04,12.76a8.681,8.681,0,0,1,.976-3.84l1.2.5a7.847,7.847,0,0,0-.656,2.912q0,2.656,3.28,2.656a5.175,5.175,0,0,0,2.512-.56,2.559,2.559,0,0,0,1.312-1.6,20.165,20.165,0,0,1-3.056-.752l.336-1.488a16.9,16.9,0,0,0,4.816.72h.192V13h-.176q-.272,0-.848-.032A3.919,3.919,0,0,1,9.24,15.616a6.316,6.316,0,0,1-3.72,1Zm9.456-12.5,1.1.976L15.152,6.12l-1.088-.928Zm-2.208.048,1.1.976L12.94,6.164,11.856,5.24ZM11.952,13q-.192,0-.312-.248a1.56,1.56,0,0,1,0-1.2q.12-.248.312-.248h.256a3.2,3.2,0,0,0,2.04-.448,1.736,1.736,0,0,0,.488-1.344V7.384l1.44-.112v2.1A5.454,5.454,0,0,1,16,10.888a5.7,5.7,0,0,0,2.4.416h.112V13h-.32a4.784,4.784,0,0,1-2.96-.816A4.3,4.3,0,0,1,12.32,13Zm16.24.048a2.359,2.359,0,0,1-2.16-1.008,2.209,2.209,0,0,1-1.128.8,4.712,4.712,0,0,1-1.544.256,4.044,4.044,0,0,1-2.528-.736A3.307,3.307,0,0,1,18.7,13h-.192q-.192,0-.312-.248a1.56,1.56,0,0,1,0-1.2q.12-.248.312-.248h.448a1.745,1.745,0,0,0,1.2-.36,1.966,1.966,0,0,0,.464-1.352l.1-1.232,1.36-.112L22,9.688a5.12,5.12,0,0,1-.208,1.216,3.042,3.042,0,0,0,1.632.416,2.52,2.52,0,0,0,1.416-.384,1.287,1.287,0,0,0,.584-1.152V8.1l1.36-.1V9.864a1.294,1.294,0,0,0,1.488,1.44q1.552,0,1.552-1.408V7.864l1.36-.128v2.08a5.927,5.927,0,0,1-.08.976,3.722,3.722,0,0,0,2.24.512h.176V13h-.3a4.656,4.656,0,0,1-2.736-.816,2.872,2.872,0,0,1-2.292.864ZM33.52,13q-.192,0-.312-.248a1.56,1.56,0,0,1,0-1.2q.12-.248.312-.248h.256a3.2,3.2,0,0,0,2.04-.448A1.736,1.736,0,0,0,36.3,9.512V7.384l1.44-.112v2.1a5.454,5.454,0,0,1-.176,1.52,5.7,5.7,0,0,0,2.4.416h.112V13h-.32a4.784,4.784,0,0,1-2.96-.816A4.3,4.3,0,0,1,33.888,13Zm2.56,1.52,1.1.976-.928,1.024-1.088-.928Zm-2.208.048,1.1.976-.928,1.024L32.96,15.64ZM40.08,13q-.192,0-.312-.248a1.56,1.56,0,0,1,0-1.2q.12-.248.312-.248h.432a23.053,23.053,0,0,0,3.048-.2q1.56-.208,2.408-.408t2.1-.536q-.4-.24-1.272-.8t-1.264-.784a7.326,7.326,0,0,0-.968-.448A2.905,2.905,0,0,0,43.52,7.9a1.317,1.317,0,0,0-1.184.88L41.2,8.36a3.658,3.658,0,0,1,.984-1.52,2.117,2.117,0,0,1,1.384-.464,4.441,4.441,0,0,1,1.968.5,19.237,19.237,0,0,1,2.408,1.472,24.739,24.739,0,0,0,2.2,1.408l-.208,1.312a20.74,20.74,0,0,0-2.064.648,25.57,25.57,0,0,1-3.44.92,21.106,21.106,0,0,1-4.1.368Zm5.776,2.784-1.088-.944.912-1.024,1.072.912Zm-2.208.08L42.56,14.92l.912-1.024,1.072.912Zm1.232,1.744L43.84,16.7l.864-.976,1.024.88ZM58.768,11.32a7.037,7.037,0,0,0,1.616-.192,5.218,5.218,0,0,0-.6-2.352A1.658,1.658,0,0,0,58.3,7.768a1.43,1.43,0,0,0-1.248.616,2.329,2.329,0,0,0-.432,1.368,1.434,1.434,0,0,0,.48,1.168,2.64,2.64,0,0,0,1.668.4Zm-1.856,5.2a6.618,6.618,0,0,1-1.728-.224l.16-1.408a7.192,7.192,0,0,0,1.408.128,3.773,3.773,0,0,0,2.576-.768A2.725,2.725,0,0,0,60.3,12.5a6.173,6.173,0,0,1-2.08.352,2.852,2.852,0,0,1-2.232-.752,3.085,3.085,0,0,1-.664-2.112,4.147,4.147,0,0,1,.856-2.672,2.675,2.675,0,0,1,2.184-1.072A2.819,2.819,0,0,1,60.8,7.624a6.484,6.484,0,0,1,.928,3.68A5.544,5.544,0,0,1,60.5,15.16a4.589,4.589,0,0,1-3.588,1.36Zm15.1.1a4.906,4.906,0,0,1-3.328-1.008,3.583,3.583,0,0,1-1.152-2.848,8.681,8.681,0,0,1,.976-3.84l1.2.5a7.847,7.847,0,0,0-.656,2.912q0,2.656,3.28,2.656a5.175,5.175,0,0,0,2.512-.56,2.559,2.559,0,0,0,1.312-1.6A20.164,20.164,0,0,1,73.1,12.08l.336-1.488a16.9,16.9,0,0,0,4.816.72h.192V13h-.176q-.272,0-.848-.032a3.919,3.919,0,0,1-1.688,2.648,6.316,6.316,0,0,1-3.716,1Zm9.456-12.5,1.1.976-.92,1.024L80.56,5.192Zm-2.208.048,1.1.976-.92,1.024L78.352,5.24ZM78.448,13q-.192,0-.312-.248a1.56,1.56,0,0,1,0-1.2q.12-.248.312-.248H78.7a3.2,3.2,0,0,0,2.04-.448,1.736,1.736,0,0,0,.488-1.344V7.384l1.44-.112v2.1a5.454,5.454,0,0,1-.176,1.52,5.7,5.7,0,0,0,2.4.416H85V13h-.32a4.784,4.784,0,0,1-2.96-.816A4.3,4.3,0,0,1,78.816,13Zm16.24.048a2.359,2.359,0,0,1-2.16-1.008,2.209,2.209,0,0,1-1.128.8,4.712,4.712,0,0,1-1.544.256,4.044,4.044,0,0,1-2.528-.736A3.307,3.307,0,0,1,85.2,13h-.192q-.192,0-.312-.248a1.56,1.56,0,0,1,0-1.2q.12-.248.312-.248h.448a1.745,1.745,0,0,0,1.2-.36,1.966,1.966,0,0,0,.464-1.352l.1-1.232,1.36-.112-.08,1.44a5.121,5.121,0,0,1-.208,1.216,3.042,3.042,0,0,0,1.632.416,2.52,2.52,0,0,0,1.416-.384,1.287,1.287,0,0,0,.584-1.152V8.1l1.36-.1V9.864a1.294,1.294,0,0,0,1.488,1.44q1.552,0,1.552-1.408V7.864l1.36-.128v2.08a5.928,5.928,0,0,1-.08.976,3.722,3.722,0,0,0,2.24.512h.176V13h-.3a4.656,4.656,0,0,1-2.736-.816,2.872,2.872,0,0,1-2.3.864ZM100.016,13q-.192,0-.312-.248a1.56,1.56,0,0,1,0-1.2q.12-.248.312-.248h.256a3.2,3.2,0,0,0,2.04-.448,1.736,1.736,0,0,0,.488-1.344V7.384l1.44-.112v2.1a5.454,5.454,0,0,1-.176,1.52,5.7,5.7,0,0,0,2.4.416h.112V13h-.32a4.784,4.784,0,0,1-2.96-.816,4.3,4.3,0,0,1-2.912.816Zm2.56,1.52,1.1.976-.928,1.024-1.088-.928Zm-2.208.048,1.1.976-.928,1.024-1.088-.928ZM106.576,13q-.192,0-.312-.248a1.56,1.56,0,0,1,0-1.2q.12-.248.312-.248h.336a16.293,16.293,0,0,0,4.688-.576,4.457,4.457,0,0,0-1.384-2.472A7.824,7.824,0,0,0,107.2,6.5V4.568A19.476,19.476,0,0,1,113.968,1.3V2.9a16.967,16.967,0,0,0-5.392,2.5,7.854,7.854,0,0,1,3.3,2.3A5.066,5.066,0,0,1,113,10.932a5.766,5.766,0,0,1-.08,1.008A13.017,13.017,0,0,1,106.976,13Z" transform="translate(83 507.032)" fill="#ededed"/>
    <path id="Path_6404" data-name="Path 6404" d="M-497.43,360.658a3.716,3.716,0,0,1,1.528-2.445c2.626-1.926,5.236-3.861,7.914-5.714a11.567,11.567,0,0,1,4-1.77,3.808,3.808,0,0,1,.965-.08.858.858,0,0,1,.927,1.092,9.267,9.267,0,0,1-.6,1.748c-.527,1.249-1.164,2.455-1.614,3.73-.491,1.39.11,2.065,1.52,1.674a22.99,22.99,0,0,0,3.921-1.489c4.479-2.177,9.026-4.226,13.7-5.959a26.339,26.339,0,0,1,8.674-1.725h.894c-.386.5-.707.927-1.038,1.337-.7.88-1.39,1.767-2.124,2.626a.918.918,0,0,1-.592.221c-1.893.13-3.8.117-5.677.385a31.661,31.661,0,0,0-9.112,2.848c-2.907,1.378-5.821,2.77-8.735,4.149a6.6,6.6,0,0,1-4.608.729,3.8,3.8,0,0,1-1.288-.6,2.126,2.126,0,0,1-.582-2.525c.261-.927.636-1.87.945-2.806a3.151,3.151,0,0,0,.171-.812c.023-.576-.327-.8-.839-.531a7.746,7.746,0,0,0-.978.618q-3.493,2.516-6.976,5.046C-497.124,360.474-497.231,360.533-497.43,360.658Z" transform="translate(527.43 161.452)" fill="#fff"/>
    <path id="Path_6405" data-name="Path 6405" d="M-260.778,321.765h-4.056l.936-2.278a2.416,2.416,0,0,0,.2-.463c.147-.781.656-1,1.39-1.09,1.451-.173,2.89-.449,4.453-.7-.27.646-.5,1.2-.737,1.759-1.191,2.745-2.4,5.483-3.571,8.237a12.762,12.762,0,0,0-.618,2.026c-.057.236,0,.652.154.746a.88.88,0,0,0,.8-.04c.91-.652,1.8-1.333,2.647-2.068a21.391,21.391,0,0,0,1.577-1.662,1.18,1.18,0,0,1-.116,1.175,14.133,14.133,0,0,1-5.64,5.406,5.6,5.6,0,0,1-3.389.689,1.735,1.735,0,0,1-1.535-1.7,8.354,8.354,0,0,1,.724-3.368c.031-.086.073-.169.11-.255.165-.378.238-.891.527-1.094s.772-.1,1.173-.059a1.4,1.4,0,0,0,1.39-.664c1.069-1.416,2.2-2.78,3.311-4.17C-260.987,322.087-260.923,321.982-260.778,321.765Z" transform="translate(333.682 188.924)" fill="#fff"/>
    <path id="Path_6406" data-name="Path 6406" d="M-379.59,391.361c.721-.141,1.439-.3,2.162-.415a12.732,12.732,0,0,0,8.288-4.7,7.852,7.852,0,0,0,1.424-3.812c.2-1.271.187-1.3,1.47-1.515s2.555-.365,3.892-.55a5.912,5.912,0,0,1,0,.618,10.457,10.457,0,0,1-3.4,6.6,13.681,13.681,0,0,1-7.758,3.687,31.814,31.814,0,0,1-5.446.309c-.21-.009-.419-.042-.627-.063Z" transform="translate(427.79 135.536)" fill="#fff"/>
    <path id="Path_6407" data-name="Path 6407" d="M-257.491,446.6a11.013,11.013,0,0,1-1.515-.473.784.784,0,0,1-.518-.619.784.784,0,0,1,.3-.748,4.015,4.015,0,0,1,1.306-.731,3.243,3.243,0,0,1,2.317.057.917.917,0,0,1,.746.725.917.917,0,0,1-.411.955A4.106,4.106,0,0,1-257.491,446.6Z" transform="translate(326.277 81.865)" fill="#fff"/>
    <path id="Path_6408" data-name="Path 6408" d="M-245.257,422.3a5.948,5.948,0,0,1,1.06.392.8.8,0,0,1,.408.587.8.8,0,0,1-.224.679,3.644,3.644,0,0,1-3.728.91.913.913,0,0,1-.667-.741.913.913,0,0,1,.408-.909,4.011,4.011,0,0,1,2.743-.918Z" transform="translate(316.877 100.082)" fill="#fff"/>
    <path id="Path_6409" data-name="Path 6409" d="M-280.7,432.173a11,11,0,0,1-1.422-.463.809.809,0,0,1-.537-.682.809.809,0,0,1,.39-.776,4.83,4.83,0,0,1,1.657-.741,2.78,2.78,0,0,1,2.066.247.873.873,0,0,1,.567.714.873.873,0,0,1-.379.83,3.94,3.94,0,0,1-2.342.871Z" transform="translate(345.836 94.066)" fill="#fff"/>
  </g>
</svg>
