<svg xmlns="http://www.w3.org/2000/svg" width="37.584" height="25.144" viewBox="0 0 37.584 25.144">
  <path id="Path_6465" data-name="Path 6465" d="M37.584,84.735H4.4v4.4H0v20.739H33.18v-4.4h4.4Zm-6.607,9.543a4.2,4.2,0,0,1-2.936-2.936h2.936Zm-5.191-2.936a6.4,6.4,0,0,0,5.191,5.191v5.952a6.4,6.4,0,0,0-5.191,5.191H7.393A6.4,6.4,0,0,0,2.2,102.486V96.533a6.4,6.4,0,0,0,5.191-5.191Zm-20.648,0A4.2,4.2,0,0,1,2.2,94.278V91.342ZM2.2,104.741a4.2,4.2,0,0,1,2.936,2.936H2.2Zm25.839,2.936a4.2,4.2,0,0,1,2.936-2.936v2.936Zm7.341-4.4h-2.2V89.14H6.607v-2.2H35.382Z" transform="translate(0 -84.735)" fill="#ededed"/>
  <path id="Path_6466" data-name="Path 6466" d="M166.366,231.094a4.724,4.724,0,1,0-4.724-4.724A4.729,4.729,0,0,0,166.366,231.094Zm0-7.246a2.522,2.522,0,1,1-2.522,2.522A2.525,2.525,0,0,1,166.366,223.848Z" transform="translate(-149.776 -211.596)" fill="#ededed"/>
  <path id="Path_6467" data-name="Path 6467" d="M326.578,271h3.6v2.2h-3.6Z" transform="translate(-302.604 -257.328)" fill="#ededed"/>
  <path id="Path_6468" data-name="Path 6468" d="M76.327,271h3.6v2.2h-3.6Z" transform="translate(-70.724 -257.328)" fill="#ededed"/>
</svg>
