<?xml version="1.0" encoding="utf-8"?>
<!-- Generator: Adobe Illustrator 25.2.0, SVG Export Plug-In . SVG Version: 6.00 Build 0)  -->
<svg version="1.1" id="Layer_1" xmlns="http://www.w3.org/2000/svg" xmlns:xlink="http://www.w3.org/1999/xlink" x="0px" y="0px"
	 viewBox="0 0 42.4 34.2" style="enable-background:new 0 0 42.4 34.2;" xml:space="preserve">
<style type="text/css">
	.st0{clip-path:url(#SVGID_2_);}
	.st1{fill:none;}
	.st2{fill:none;stroke:#FFFFFF;stroke-width:3;}
	.st3{fill:url(#Icon_awesome-play_1_);stroke:#EDEDED;}
</style>
<g>
	<defs>
		<path id="SVGID_1_" d="M8,0h26.4c4.4,0,8,3.6,8,8v18.2c0,4.4-3.6,8-8,8H8c-4.4,0-8-3.6-8-8V8C0,3.6,3.6,0,8,0z"/>
	</defs>
	<clipPath id="SVGID_2_">
		<use xlink:href="#SVGID_1_"  style="overflow:visible;"/>
	</clipPath>
	<g id="Check_button_pressed" class="st0">
		<g id="Light" transform="translate(-7.047 -6.431)">
			<path class="st1" d="M8,0h25.1c4.4,0,8,3.6,8,8v25.1c0,4.4-3.6,8-8,8H8c-4.4,0-8-3.6-8-8V8C0,3.6,3.6,0,8,0z"/>
			<path class="st2" d="M8,1.5h25.1c3.6,0,6.5,2.9,6.5,6.5v25.1c0,3.6-2.9,6.5-6.5,6.5H8c-3.6,0-6.5-2.9-6.5-6.5V8
				C1.5,4.4,4.4,1.5,8,1.5z"/>
		</g>
		<g id="Dark" transform="translate(1.033 0.308)">
			<path class="st1" d="M8,0h25.1c4.4,0,8,3.6,8,8v25.1c0,4.4-3.6,8-8,8H8c-4.4,0-8-3.6-8-8V8C0,3.6,3.6,0,8,0z"/>
			<path class="st1" d="M8,1h25.1c3.9,0,7,3.1,7,7v25.1c0,3.9-3.1,7-7,7H8c-3.9,0-7-3.1-7-7V8C1,4.1,4.1,1,8,1z"/>
		</g>
	</g>
</g>
<linearGradient id="Icon_awesome-play_1_" gradientUnits="userSpaceOnUse" x1="-882.0874" y1="530.3495" x2="-882.1034" y2="531.0426" gradientTransform="matrix(16.9275 0 0 -19.3622 14954.2773 10289.7803)">
	<stop  offset="0" style="stop-color:#EDEDED"/>
	<stop  offset="1" style="stop-color:#91A1AF"/>
</linearGradient>
<path id="Icon_awesome-play" class="st3" d="M30.3,15.8L17,8c-0.8-0.5-2-0.2-2.5,0.6c-0.2,0.3-0.3,0.6-0.3,1v15.7
	c0,1,0.8,1.8,1.8,1.8c0.3,0,0.6-0.1,0.9-0.3l13.3-7.9c0.9-0.5,1.1-1.6,0.6-2.5C30.8,16.2,30.6,16,30.3,15.8L30.3,15.8z"/>
</svg>
